SplineFontDB: 3.2
FontName: OcticonsV2NF2-Regular
FullName: OcticonsV2NF2 Regular
FamilyName: OcticonsV2NF2
Weight: Regular
Copyright: 
UComments: "2020-6-10: Created with FontForge (http://fontforge.org)"
Version: e5345d7
ItalicAngle: 0
UnderlinePosition: -100
UnderlineWidth: 50
Ascent: 800
Descent: 200
InvalidEm: 0
LayerCount: 2
Layer: 0 0 "Back" 1
Layer: 1 0 "Fore" 0
XUID: [1021 790 1827221160 9742]
OS2Version: 0
OS2_WeightWidthSlopeOnly: 0
OS2_UseTypoMetrics: 1
CreationTime: 1591800147
ModificationTime: 1591829762
OS2TypoAscent: 0
OS2TypoAOffset: 1
OS2TypoDescent: 0
OS2TypoDOffset: 1
OS2TypoLinegap: 0
OS2WinAscent: 0
OS2WinAOffset: 1
OS2WinDescent: 0
OS2WinDOffset: 1
HheadAscent: 0
HheadAOffset: 1
HheadDescent: 0
HheadDOffset: 1
OS2Vendor: 'PfEd'
MarkAttachClasses: 1
DEI: 91125
Encoding: UnicodeBmp
UnicodeInterp: none
NameList: AGL For New Fonts
DisplaySize: -48
AntiAlias: 1
FitToEm: 0
WinInfo: 61636 19 13
BeginPrivate: 0
EndPrivate
BeginChars: 65536 172

StartChar: uniF000
Encoding: 61440 61440 0
Width: 1000
Flags: H
LayerCount: 2
Fore
SplineSet
250 456.25 m 0
 250 377.561523438 281.866210938 325.096679688 319.393554688 272.55859375 c 0
 323.131835938 267.32421875 327.063476562 261.951171875 331.103515625 256.4296875 c 2
 331.110351562 256.419921875 l 2
 359.858398438 217.129882812 394.12890625 170.287109375 403.672851562 112.5 c 2
 596.327148438 112.5 l 2
 605.87109375 170.287109375 640.143554688 217.129882812 668.887695312 256.419921875 c 0
 672.931640625 261.9453125 676.869140625 267.322265625 680.606445312 272.55859375 c 0
 718.130859375 325.096679688 750 377.561523438 750 456.25 c 0
 750 590.338867188 658.443359375 706.25 500 706.25 c 0
 341.556640625 706.25 250 590.338867188 250 456.25 c 0
406.25 18.75 m 1
 406.25 -12.5 l 2
 406.25 -64.275390625 448.22265625 -106.25 500 -106.25 c 0
 551.77734375 -106.25 593.75 -64.275390625 593.75 -12.5 c 2
 593.75 18.75 l 1
 406.25 18.75 l 1
500 800 m 0
 716.556640625 800 843.75 635.543945312 843.75 456.25 c 0
 843.75 347.438476562 797.494140625 274.903320312 756.893554688 218.06640625 c 0
 753.318359375 213.0625 749.862304688 208.249023438 746.525390625 203.60546875 c 2
 746.518554688 203.596679688 l 2
 709.575195312 152.181640625 687.5 121.462890625 687.5 81.25 c 2
 687.5 -12.5 l 2
 687.5 -116.056640625 603.552734375 -200 500 -200 c 0
 396.447265625 -200 312.5 -116.056640625 312.5 -12.5 c 2
 312.5 81.25 l 2
 312.5 121.462890625 290.427734375 152.181640625 253.482421875 203.596679688 c 0
 250.143554688 208.244140625 246.68359375 213.059570312 243.106445312 218.06640625 c 0
 202.508789062 274.903320312 156.25 347.438476562 156.25 456.25 c 0
 156.25 635.543945312 283.443359375 800 500 800 c 0
EndSplineSet
EndChar

StartChar: uniF001
Encoding: 61441 61441 1
Width: 1000
Flags: H
LayerCount: 2
Fore
SplineSet
125 643.75 m 2
 125 685.190429688 141.461914062 724.93359375 170.764648438 754.235351562 c 0
 200.067382812 783.538085938 239.809570312 800 281.25 800 c 2
 828.125 800 l 2
 840.556640625 800 852.481445312 795.061523438 861.268554688 786.270507812 c 0
 870.0625 777.479492188 875 765.556640625 875 753.125 c 2
 875 -28.125 l 2
 875 -40.556640625 870.0625 -52.4814453125 861.268554688 -61.2685546875 c 0
 852.481445312 -70.0625 840.556640625 -75 828.125 -75 c 2
 671.875 -75 l 2
 659.443359375 -75 647.518554688 -70.0625 638.731445312 -61.2685546875 c 0
 629.9375 -52.4814453125 625 -40.556640625 625 -28.125 c 0
 625 -15.693359375 629.9375 -3.7685546875 638.731445312 5.0185546875 c 0
 647.518554688 13.8125 659.443359375 18.75 671.875 18.75 c 2
 781.25 18.75 l 1
 781.25 143.75 l 1
 281.25 143.75 l 2
 268.942382812 143.75 256.91015625 140.112304688 246.66015625 133.299804688 c 0
 236.41015625 126.487304688 228.401367188 116.799804688 223.634765625 105.450195312 c 0
 218.869140625 94.1064453125 217.559570312 81.6064453125 219.87109375 69.5126953125 c 0
 222.181640625 57.4248046875 228.009765625 46.287109375 236.625 37.5 c 0
 245.327148438 28.6123046875 250.143554688 16.6376953125 250.014648438 4.2001953125 c 0
 249.88671875 -8.2373046875 244.822265625 -20.1123046875 235.9375 -28.8125 c 0
 227.052734375 -37.5126953125 215.075195312 -42.3310546875 202.638671875 -42.2001953125 c 0
 190.203125 -42.0751953125 178.327148438 -37.0126953125 169.625 -28.125 c 0
 140.981445312 1.068359375 124.956054688 40.349609375 125 81.25 c 2
 125 643.75 l 2
781.25 706.25 m 1
 281.25 706.25 l 2
 264.673828125 706.25 248.77734375 699.665039062 237.055664062 687.944335938 c 0
 225.334960938 676.22265625 218.75 660.326171875 218.75 643.75 c 2
 218.75 224.5 l 1
 237.875 232.875 259 237.5 281.25 237.5 c 2
 781.25 237.5 l 1
 781.25 706.25 l 1
312.5 34.375 m 2
 312.5 38.5185546875 314.146484375 42.494140625 317.076171875 45.4248046875 c 0
 320.006835938 48.3564453125 323.981445312 50 328.125 50 c 2
 546.875 50 l 2
 551.01953125 50 554.993164062 48.3564453125 557.923828125 45.4248046875 c 0
 560.853515625 42.494140625 562.5 38.5185546875 562.5 34.375 c 2
 562.5 -168.75 l 2
 562.5 -171.650390625 561.69140625 -174.494140625 560.166015625 -176.962890625 c 0
 558.641601562 -179.431640625 556.458007812 -181.424804688 553.862304688 -182.724609375 c 0
 551.267578125 -184.025390625 548.362304688 -184.575195312 545.471679688 -184.3125 c 0
 542.58203125 -184.049804688 539.821289062 -182.994140625 537.5 -181.25 c 2
 446.875 -113.3125 l 2
 444.170898438 -111.28125 440.880859375 -110.1875 437.5 -110.1875 c 0
 434.119140625 -110.1875 430.830078125 -111.28125 428.125 -113.3125 c 2
 337.5 -181.25 l 2
 335.178710938 -182.994140625 332.41796875 -184.049804688 329.528320312 -184.3125 c 0
 326.637695312 -184.575195312 323.732421875 -184.025390625 321.137695312 -182.724609375 c 0
 318.541992188 -181.424804688 316.359375 -179.431640625 314.833984375 -176.962890625 c 0
 313.30859375 -174.494140625 312.5 -171.650390625 312.5 -168.75 c 2
 312.5 34.375 l 2
EndSplineSet
EndChar

StartChar: uniF002
Encoding: 61442 61442 2
Width: 1000
Flags: H
LayerCount: 2
Fore
SplineSet
312.5 596.874023438 m 0
 312.5 609.306640625 307.561523438 621.229492188 298.770507812 630.01953125 c 0
 289.98046875 638.811523438 278.057617188 643.749023438 265.625 643.749023438 c 0
 253.193359375 643.749023438 241.270507812 638.811523438 232.479492188 630.01953125 c 0
 223.688476562 621.229492188 218.75 609.306640625 218.75 596.874023438 c 0
 218.75 584.442382812 223.688476562 572.51953125 232.479492188 563.728515625 c 0
 241.270507812 554.938476562 253.193359375 549.999023438 265.625 549.999023438 c 0
 278.057617188 549.999023438 289.98046875 554.938476562 298.770507812 563.728515625 c 0
 307.561523438 572.51953125 312.5 584.442382812 312.5 596.874023438 c 0
312.5 464.249023438 m 2
 312.5 409.374023438 l 2
 312.5 396.942382812 317.438476562 385.01953125 326.229492188 376.228515625 c 0
 335.020507812 367.438476562 346.943359375 362.499023438 359.375 362.499023438 c 2
 640.625 362.499023438 l 2
 653.056640625 362.499023438 664.981445312 367.438476562 673.768554688 376.228515625 c 0
 682.5625 385.01953125 687.5 396.942382812 687.5 409.374023438 c 2
 687.5 464.249023438 l 2
 656.224609375 475.306640625 629.862304688 497.065429688 613.080078125 525.677734375 c 0
 596.294921875 554.291015625 590.166015625 587.916992188 595.775390625 620.612304688 c 0
 601.384765625 653.306640625 618.372070312 682.966796875 643.737304688 704.34765625 c 0
 669.099609375 725.73046875 701.200195312 737.45703125 734.375 737.45703125 c 0
 767.549804688 737.45703125 799.650390625 725.73046875 825.012695312 704.34765625 c 0
 850.380859375 682.966796875 867.362304688 653.306640625 872.974609375 620.612304688 c 0
 878.587890625 587.916992188 872.456054688 554.291015625 855.668945312 525.677734375 c 0
 838.887695312 497.065429688 812.525390625 475.306640625 781.25 464.249023438 c 2
 781.25 409.374023438 l 2
 781.25 372.079101562 766.4375 336.309570312 740.0625 309.9375 c 0
 713.6875 283.565429688 677.918945312 268.749023438 640.625 268.749023438 c 2
 546.875 268.749023438 l 1
 546.875 135.75 l 2
 578.16796875 124.693359375 604.543945312 102.924804688 621.340820312 74.2998046875 c 0
 638.137695312 45.6748046875 644.275390625 12.03125 638.662109375 -20.681640625 c 0
 633.056640625 -53.3935546875 616.059570312 -83.068359375 590.684570312 -104.462890625 c 0
 565.310546875 -125.849609375 533.190429688 -137.587890625 500 -137.587890625 c 0
 466.810546875 -137.587890625 434.690429688 -125.849609375 409.315429688 -104.462890625 c 0
 383.94140625 -83.068359375 366.947265625 -53.3935546875 361.336914062 -20.681640625 c 0
 355.727539062 12.03125 361.86328125 45.6748046875 378.659179688 74.2998046875 c 0
 395.456054688 102.924804688 421.83203125 124.693359375 453.125 135.75 c 2
 453.125 268.749023438 l 1
 359.375 268.749023438 l 2
 322.079101562 268.749023438 286.310546875 283.565429688 259.938476562 309.9375 c 0
 233.56640625 336.309570312 218.75 372.079101562 218.75 409.374023438 c 2
 218.75 464.249023438 l 2
 187.474609375 475.306640625 161.115234375 497.065429688 144.330078125 525.677734375 c 0
 127.544921875 554.291015625 121.416015625 587.916992188 127.025390625 620.612304688 c 0
 132.634765625 653.306640625 149.622070312 682.966796875 174.985351562 704.34765625 c 0
 200.34765625 725.73046875 232.452148438 737.45703125 265.625 737.45703125 c 0
 298.797851562 737.45703125 330.903320312 725.73046875 356.265625 704.34765625 c 0
 381.627929688 682.966796875 398.615234375 653.306640625 404.224609375 620.612304688 c 0
 409.833984375 587.916992188 403.706054688 554.291015625 386.920898438 525.677734375 c 0
 370.135742188 497.065429688 343.776367188 475.306640625 312.5 464.249023438 c 2
546.875 3.125 m 0
 546.875 15.556640625 541.936523438 27.4814453125 533.145507812 36.2685546875 c 0
 524.35546875 45.0625 512.432617188 50 500 50 c 0
 487.568359375 50 475.645507812 45.0625 466.854492188 36.2685546875 c 0
 458.063476562 27.4814453125 453.125 15.556640625 453.125 3.125 c 0
 453.125 -9.306640625 458.063476562 -21.2314453125 466.854492188 -30.0185546875 c 0
 475.645507812 -38.8125 487.568359375 -43.75 500 -43.75 c 0
 512.432617188 -43.75 524.35546875 -38.8125 533.145507812 -30.0185546875 c 0
 541.936523438 -21.2314453125 546.875 -9.306640625 546.875 3.125 c 0
734.375 549.999023438 m 0
 746.806640625 549.999023438 758.731445312 554.938476562 767.518554688 563.728515625 c 0
 776.3125 572.51953125 781.25 584.442382812 781.25 596.874023438 c 0
 781.25 609.306640625 776.3125 621.229492188 767.518554688 630.01953125 c 0
 758.731445312 638.811523438 746.806640625 643.749023438 734.375 643.749023438 c 0
 721.943359375 643.749023438 710.018554688 638.811523438 701.231445312 630.01953125 c 0
 692.4375 621.229492188 687.5 609.306640625 687.5 596.874023438 c 0
 687.5 584.442382812 692.4375 572.51953125 701.231445312 563.728515625 c 0
 710.018554688 554.938476562 721.943359375 549.999023438 734.375 549.999023438 c 0
EndSplineSet
EndChar

StartChar: uniF005
Encoding: 61445 61445 3
Width: 1000
Flags: H
LayerCount: 2
Fore
SplineSet
62.5 643.75 m 2
 62.5 730.043945312 132.456054688 800 218.75 800 c 2
 765.625 800 l 2
 791.512695312 800 812.5 779.013671875 812.5 753.125 c 2
 812.5 534.375 l 2
 812.5 508.487304688 791.512695312 487.5 765.625 487.5 c 0
 739.737304688 487.5 718.75 508.487304688 718.75 534.375 c 2
 718.75 706.25 l 1
 218.75 706.25 l 2
 184.232421875 706.25 156.25 678.267578125 156.25 643.75 c 2
 156.25 224.499023438 l 1
 175.389648438 232.861328125 196.528320312 237.5 218.75 237.5 c 2
 421.875 237.5 l 2
 447.762695312 237.5 468.75 216.512695312 468.75 190.625 c 0
 468.75 164.737304688 447.762695312 143.75 421.875 143.75 c 2
 218.75 143.75 l 2
 184.232421875 143.75 156.25 115.768554688 156.25 81.25 c 0
 156.25 46.7314453125 184.232421875 18.75 218.75 18.75 c 2
 578.125 18.75 l 2
 604.012695312 18.75 625 -2.2373046875 625 -28.125 c 0
 625 -54.0126953125 604.012695312 -75 578.125 -75 c 2
 218.75 -75 l 2
 132.456054688 -75 62.5 -5.0439453125 62.5 81.25 c 2
 62.5 643.75 l 2
889.337890625 156.869140625 m 2
 812.806640625 233.403320312 l 1
 812.806640625 -153.125 l 2
 812.806640625 -179.012695312 791.818359375 -200 765.931640625 -200 c 0
 740.043945312 -200 719.056640625 -179.012695312 719.056640625 -153.125 c 2
 719.056640625 233.3828125 l 1
 642.543945312 156.869140625 l 2
 624.235351562 138.5625 594.555664062 138.5625 576.25 156.869140625 c 0
 557.944335938 175.174804688 557.944335938 204.854492188 576.25 223.16015625 c 2
 732.793945312 379.705078125 l 2
 751.099609375 398.01171875 780.78125 398.01171875 799.087890625 379.705078125 c 2
 955.630859375 223.16015625 l 2
 973.9375 204.854492188 973.9375 175.174804688 955.630859375 156.869140625 c 0
 937.325195312 138.5625 907.643554688 138.5625 889.337890625 156.869140625 c 2
EndSplineSet
EndChar

StartChar: uniF006
Encoding: 61446 61446 4
Width: 1000
Flags: H
LayerCount: 2
Fore
SplineSet
812.5 300 m 1
 812.5 425 l 1
 437.5 425 l 1
 437.5 550 l 1
 812.5 550 l 1
 812.5 675 l 1
 1000 487.5 l 1
 812.5 300 l 1
250 675 m 1
 250 612.5 l 1
 187.5 612.5 l 1
 187.5 675 l 1
 250 675 l 1
687.5 362.5 m 1
 750 362.5 l 1
 750 -12.5 l 2
 750 -46.875 721.875 -75 687.5 -75 c 2
 375 -75 l 1
 375 -200 l 1
 281.25 -106.25 l 1
 187.5 -200 l 1
 187.5 -75 l 1
 62.5 -75 l 2
 28.125 -75 0 -46.875 0 -12.5 c 2
 0 737.5 l 2
 0 771.875 28.125 800 62.5 800 c 2
 687.5 800 l 2
 721.875 800 750 771.875 750 737.5 c 2
 750 612.5 l 1
 687.5 612.5 l 1
 687.5 737.5 l 1
 125 737.5 l 1
 125 175 l 1
 687.5 175 l 1
 687.5 362.5 l 1
687.5 112.5 m 1
 62.5 112.5 l 1
 62.5 -12.5 l 1
 187.5 -12.5 l 1
 187.5 50 l 1
 375 50 l 1
 375 -12.5 l 1
 687.5 -12.5 l 1
 687.5 112.5 l 1
250 425 m 1
 250 362.5 l 1
 187.5 362.5 l 1
 187.5 425 l 1
 250 425 l 1
250 550 m 1
 250 487.5 l 1
 187.5 487.5 l 1
 187.5 550 l 1
 250 550 l 1
187.5 237.5 m 1
 187.5 300 l 1
 250 300 l 1
 250 237.5 l 1
 187.5 237.5 l 1
EndSplineSet
EndChar

StartChar: uniF02D
Encoding: 61485 61485 5
Width: 1000
Flags: H
LayerCount: 2
Fore
SplineSet
513.780273438 690.401367188 m 2
 507.893554688 701.4140625 492.10546875 701.4140625 486.219726562 690.400390625 c 2
 106.1171875 -20.755859375 l 2
 100.553710938 -31.1689453125 108.095703125 -43.75 119.896484375 -43.75 c 2
 880.099609375 -43.75 l 2
 891.90625 -43.75 899.443359375 -31.1689453125 893.880859375 -20.755859375 c 2
 513.780273438 690.401367188 l 2
403.5390625 734.592773438 m 2
 444.7421875 811.68359375 555.2578125 811.68359375 596.4609375 734.592773438 c 2
 976.5625 23.431640625 l 2
 1015.50585938 -49.4248046875 962.712890625 -137.5 880.099609375 -137.5 c 2
 119.896484375 -137.5 l 2
 37.2841796875 -137.5 -15.505859375 -49.4248046875 23.435546875 23.431640625 c 2
 403.5390625 734.592773438 l 2
562.5 112.5 m 0
 562.5 77.9814453125 534.518554688 50 500 50 c 0
 465.482421875 50 437.5 77.9814453125 437.5 112.5 c 0
 437.5 147.018554688 465.482421875 175 500 175 c 0
 534.518554688 175 562.5 147.018554688 562.5 112.5 c 0
546.875 440.625 m 2
 546.875 284.375 l 2
 546.875 258.487304688 525.887695312 237.5 500 237.5 c 0
 474.112304688 237.5 453.125 258.487304688 453.125 284.375 c 2
 453.125 440.625 l 2
 453.125 466.512695312 474.112304688 487.5 500 487.5 c 0
 525.887695312 487.5 546.875 466.512695312 546.875 440.625 c 2
EndSplineSet
EndChar

StartChar: uniF007
Encoding: 61447 61447 6
Width: 1000
Flags: H
LayerCount: 2
Fore
SplineSet
0 690.625 m 2
 0 716.512695312 20.986328125 737.5 46.875 737.5 c 2
 312.678710938 737.5 l 2
 389.3828125 737.5 457.487304688 700.651367188 500.24609375 643.68359375 c 1
 543.001953125 700.6484375 611.103515625 737.5 687.8125 737.5 c 2
 953.125 737.5 l 2
 979.012695312 737.5 1000 716.512695312 1000 690.625 c 2
 1000 34.375 l 2
 1000 8.4873046875 979.012695312 -12.5 953.125 -12.5 c 2
 671.412109375 -12.5 l 2
 634.119140625 -12.5 598.350585938 -27.318359375 571.978515625 -53.6875 c 2
 533.145507812 -92.5185546875 l 2
 514.83984375 -110.825195312 485.16015625 -110.825195312 466.854492188 -92.5185546875 c 2
 428.021484375 -53.6875 l 2
 401.649414062 -27.318359375 365.880859375 -12.5 328.584960938 -12.5 c 2
 46.875 -12.5 l 2
 20.986328125 -12.5 0 8.4873046875 0 34.375 c 2
 0 690.625 l 2
547.1875 503.125 m 2
 546.952148438 45.474609375 l 1
 583.961914062 68.662109375 627.037109375 81.25 671.412109375 81.25 c 2
 906.25 81.25 l 1
 906.25 643.75 l 1
 687.8125 643.75 l 2
 610.147460938 643.75 547.1875 580.790039062 547.1875 503.125 c 2
453.202148438 45.375 m 1
 453.4375 362.456054688 l 1
 453.302734375 503.258789062 l 2
 453.229492188 580.872070312 390.291015625 643.75 312.678710938 643.75 c 2
 93.75 643.75 l 1
 93.75 81.25 l 1
 328.584960938 81.25 l 2
 373.022460938 81.25 416.159179688 68.630859375 453.202148438 45.375 c 1
EndSplineSet
EndChar

StartChar: uniF008
Encoding: 61448 61448 7
Width: 1000
Flags: H
LayerCount: 2
Fore
SplineSet
918.75 466.25 m 0
 969.375 411.875 1000 341.875 1000 256.875 c 0
 1000 -65 789.375 -137.5 498.75 -137.5 c 0
 208.125 -137.5 0 -65 0 256.875 c 0
 0 341.875 30.625 411.875 81.25 466.25 c 0
 73.125 486.25 46.875 565.625 89.375 673.125 c 2
 89.375 673.125 155 694.375 304.375 591.875 c 0
 366.875 609.375 433.75 611.875 500 611.875 c 0
 566.25 611.875 633.125 609.375 695.625 591.875 c 0
 845 693.75 910.625 673.125 910.625 673.125 c 2
 953.125 565.625 926.875 486.25 918.75 466.25 c 0
500 -76.25 m 0
 706.25 -76.25 873.75 -66.25 873.75 133.125 c 0
 873.75 181.25 850.625 225.625 810 262.5 c 0
 742.5 323.75 629.375 291.25 500 291.25 c 0
 371.25 291.25 256.875 323.75 190 262.5 c 0
 150 225.625 126.25 180.625 126.25 133.125 c 0
 126.25 -66.875 293.75 -76.25 500 -76.25 c 0
343.125 236.875 m 0
 384.375 236.875 418.125 187.5 418.125 125.625 c 0
 418.125 63.75 384.375 13.75 343.125 13.75 c 0
 301.875 13.75 268.125 64.375 268.125 125.625 c 0
 268.125 186.875 301.875 236.875 343.125 236.875 c 0
656.875 236.875 m 0
 698.75 236.875 731.875 187.5 731.875 125.625 c 0
 731.875 63.75 698.125 13.75 656.875 13.75 c 0
 615.625 13.75 581.875 63.75 581.875 125.625 c 0
 581.875 187.5 615.625 236.875 656.875 236.875 c 0
EndSplineSet
EndChar

StartChar: uniF009
Encoding: 61449 61449 8
Width: 1000
Flags: H
LayerCount: 2
Fore
SplineSet
448.545898438 607.923828125 m 2
 598.32421875 757.703125 l 2
 608.16796875 767.545898438 624.997070312 760.575195312 624.997070312 746.654296875 c 2
 624.997070312 447.098632812 l 2
 624.997070312 433.177734375 608.16796875 426.20703125 598.32421875 436.049804688 c 2
 448.545898438 585.827148438 l 2
 442.444335938 591.928710938 442.444335938 601.822265625 448.545898438 607.923828125 c 2
234.375 643.75 m 0
 208.487304688 643.75 187.5 622.762695312 187.5 596.875 c 0
 187.5 570.987304688 208.487304688 550 234.375 550 c 0
 260.262695312 550 281.25 570.987304688 281.25 596.875 c 0
 281.25 622.762695312 260.262695312 643.75 234.375 643.75 c 0
93.75 596.875 m 0
 93.75 674.540039062 156.709960938 737.5 234.375 737.5 c 0
 312.040039062 737.5 375 674.540039062 375 596.875 c 0
 375 535.646484375 335.868164062 483.556640625 281.25 464.251953125 c 2
 281.25 135.75 l 2
 335.868164062 116.443359375 375 64.3564453125 375 3.125 c 0
 375 -74.537109375 312.040039062 -137.5 234.375 -137.5 c 0
 156.709960938 -137.5 93.75 -74.537109375 93.75 3.125 c 0
 93.75 64.3564453125 132.881835938 116.443359375 187.5 135.75 c 2
 187.5 464.251953125 l 2
 132.881835938 483.556640625 93.75 535.646484375 93.75 596.875 c 0
687.5 643.75 m 2
 773.793945312 643.75 843.75 573.793945312 843.75 487.5 c 2
 843.75 135.75 l 2
 898.369140625 116.443359375 937.5 64.3564453125 937.5 3.125 c 0
 937.5 -74.537109375 874.537109375 -137.5 796.875 -137.5 c 0
 719.212890625 -137.5 656.25 -74.537109375 656.25 3.125 c 0
 656.25 64.3564453125 695.380859375 116.443359375 750 135.75 c 2
 750 487.5 l 2
 750 522.017578125 722.018554688 550 687.5 550 c 2
 625 550 l 1
 625 643.75 l 1
 687.5 643.75 l 2
750 3.125 m 0
 750 -22.7626953125 770.987304688 -43.75 796.875 -43.75 c 0
 822.762695312 -43.75 843.75 -22.7626953125 843.75 3.125 c 0
 843.75 29.0126953125 822.762695312 50 796.875 50 c 0
 770.987304688 50 750 29.0126953125 750 3.125 c 0
234.375 50 m 0
 208.487304688 50 187.5 29.0126953125 187.5 3.125 c 0
 187.5 -22.7626953125 208.487304688 -43.75 234.375 -43.75 c 0
 260.262695312 -43.75 281.25 -22.7626953125 281.25 3.125 c 0
 281.25 29.0126953125 260.262695312 50 234.375 50 c 0
EndSplineSet
EndChar

StartChar: uniF00A
Encoding: 61450 61450 9
Width: 1000
Flags: H
LayerCount: 2
Fore
SplineSet
500 800 m 0
 776.25 800 1000 576.25 1000 300 c 0
 1000 79.375 856.875 -108.125 659.375 -174.375 c 0
 634.375 -179.375 625 -163.75 625 -150.625 c 0
 625 -133.75 625.625 -80 625.625 -13.125 c 0
 625.625 33.75 610 63.75 591.875 79.375 c 1
 703.125 91.875 820 134.375 820 326.25 c 0
 820 381.25 800.625 425.625 768.75 460.625 c 0
 773.75 473.125 791.25 524.375 763.75 593.125 c 2
 763.75 593.125 721.875 606.875 626.25 541.875 c 0
 586.25 553.125 543.75 558.75 501.25 558.75 c 0
 458.75 558.75 416.25 553.125 376.25 541.875 c 0
 280.625 606.25 238.75 593.125 238.75 593.125 c 2
 211.25 524.375 228.75 473.125 233.75 460.625 c 0
 201.875 425.625 182.5 380.625 182.5 326.25 c 0
 182.5 135 298.75 91.875 410 79.375 c 1
 395.625 66.875 382.5 45 378.125 12.5 c 0
 349.375 -0.625 277.5 -21.875 232.5 53.75 c 0
 223.125 68.75 195 105.625 155.625 105 c 0
 113.75 104.375 138.75 81.25 156.25 71.875 c 0
 177.5 60 201.875 15.625 207.5 1.25 c 0
 217.5 -26.875 250 -80.625 375.625 -57.5 c 1
 375.625 -99.375 376.25 -138.75 376.25 -150.625 c 0
 376.25 -163.75 366.875 -178.75 341.875 -174.375 c 0
 143.125 -108.125 0 78.75 0 300 c 0
 0 576.25 223.75 800 500 800 c 0
EndSplineSet
EndChar

StartChar: uniF00B
Encoding: 61451 61451 10
Width: 1000
Flags: H
LayerCount: 2
Fore
SplineSet
466.854492188 126.231445312 m 2
 232.479492188 360.604492188 l 2
 214.173828125 378.91015625 214.173828125 408.58984375 232.479492188 426.895507812 c 0
 250.78515625 445.201171875 280.46484375 445.201171875 298.770507812 426.895507812 c 2
 453.125 272.541015625 l 1
 453.125 690.625 l 2
 453.125 716.512695312 474.112304688 737.5 500 737.5 c 0
 525.887695312 737.5 546.875 716.512695312 546.875 690.625 c 2
 546.875 272.541015625 l 1
 701.231445312 426.895507812 l 2
 719.537109375 445.201171875 749.212890625 445.201171875 767.518554688 426.895507812 c 0
 785.825195312 408.58984375 785.825195312 378.91015625 767.518554688 360.604492188 c 2
 533.145507812 126.231445312 l 2
 514.83984375 107.924804688 485.16015625 107.924804688 466.854492188 126.231445312 c 2
234.375 -12.505859375 m 2
 765.625 -12.505859375 l 2
 791.512695312 -12.505859375 812.5 -33.494140625 812.5 -59.380859375 c 0
 812.5 -85.2685546875 791.512695312 -106.255859375 765.625 -106.255859375 c 2
 234.375 -106.255859375 l 2
 208.487304688 -106.255859375 187.5 -85.2685546875 187.5 -59.380859375 c 0
 187.5 -33.494140625 208.487304688 -12.505859375 234.375 -12.505859375 c 2
EndSplineSet
EndChar

StartChar: uniF00C
Encoding: 61452 61452 11
Width: 1000
Flags: H
LayerCount: 2
Fore
SplineSet
533.145507812 723.770507812 m 2
 767.518554688 489.395507812 l 2
 785.825195312 471.08984375 785.825195312 441.41015625 767.518554688 423.104492188 c 0
 749.212890625 404.798828125 719.537109375 404.798828125 701.231445312 423.104492188 c 2
 546.875 577.458984375 l 1
 546.875 159.375 l 2
 546.875 133.487304688 525.887695312 112.5 500 112.5 c 0
 474.112304688 112.5 453.125 133.487304688 453.125 159.375 c 2
 453.125 577.458984375 l 1
 298.770507812 423.104492188 l 2
 280.46484375 404.798828125 250.78515625 404.798828125 232.479492188 423.104492188 c 0
 214.173828125 441.41015625 214.173828125 471.08984375 232.479492188 489.395507812 c 2
 466.854492188 723.770507812 l 2
 485.16015625 742.076171875 514.83984375 742.076171875 533.145507812 723.770507812 c 2
234.375 -12.5 m 2
 765.625 -12.5 l 2
 791.512695312 -12.5 812.5 -33.4873046875 812.5 -59.375 c 0
 812.5 -85.2626953125 791.512695312 -106.25 765.625 -106.25 c 2
 234.375 -106.25 l 2
 208.487304688 -106.25 187.5 -85.2626953125 187.5 -59.375 c 0
 187.5 -33.4873046875 208.487304688 -12.5 234.375 -12.5 c 2
EndSplineSet
EndChar

StartChar: uniF010
Encoding: 61456 61456 12
Width: 1000
Flags: H
LayerCount: 2
Fore
SplineSet
250 690.625 m 2
 250 751.03125 298.96875 800 359.375 800 c 2
 708.487304688 800 l 2
 737.494140625 800 765.3125 788.4765625 785.825195312 767.96484375 c 2
 967.962890625 585.826171875 l 2
 988.474609375 565.314453125 1000 537.495117188 1000 508.487304688 c 2
 1000 -28.125 l 2
 1000 -88.53125 951.03125 -137.5 890.625 -137.5 c 2
 328.125 -137.5 l 2
 302.237304688 -137.5 281.25 -116.512695312 281.25 -90.625 c 0
 281.25 -64.7373046875 302.237304688 -43.75 328.125 -43.75 c 2
 890.625 -43.75 l 2
 899.255859375 -43.75 906.25 -36.755859375 906.25 -28.125 c 2
 906.25 425 l 1
 734.375 425 l 2
 673.96875 425 625 473.96875 625 534.375 c 2
 625 706.25 l 1
 359.375 706.25 l 2
 350.74609375 706.25 343.75 699.25390625 343.75 690.625 c 2
 343.75 534.375 l 2
 343.75 508.487304688 322.762695312 487.5 296.875 487.5 c 0
 270.987304688 487.5 250 508.487304688 250 534.375 c 2
 250 690.625 l 2
718.75 702.40625 m 1
 718.75 534.375 l 2
 718.75 525.74609375 725.744140625 518.75 734.375 518.75 c 2
 902.40625 518.75 l 1
 902.174804688 519.01953125 901.924804688 519.28125 901.674804688 519.53515625 c 2
 719.537109375 701.673828125 l 2
 719.28125 701.927734375 719.018554688 702.171875 718.75 702.40625 c 1
357.479492188 380.020507812 m 0
 375.78515625 398.326171875 405.46484375 398.326171875 423.770507812 380.020507812 c 2
 548.770507812 255.020507812 l 2
 567.076171875 236.71484375 567.076171875 207.03515625 548.770507812 188.729492188 c 2
 423.770507812 63.7314453125 l 2
 405.46484375 45.4248046875 375.78515625 45.4248046875 357.479492188 63.7314453125 c 0
 339.173828125 82.037109375 339.173828125 111.712890625 357.479492188 130.018554688 c 2
 449.333984375 221.875 l 1
 357.479492188 313.729492188 l 2
 339.173828125 332.03515625 339.173828125 361.71484375 357.479492188 380.020507812 c 0
205.020507812 313.729492188 m 2
 113.166015625 221.875 l 1
 205.020507812 130.018554688 l 2
 223.326171875 111.712890625 223.326171875 82.037109375 205.020507812 63.7314453125 c 0
 186.71484375 45.4248046875 157.03515625 45.4248046875 138.729492188 63.7314453125 c 2
 13.7294921875 188.729492188 l 2
 -4.576171875 207.03515625 -4.576171875 236.71484375 13.7294921875 255.020507812 c 2
 138.729492188 380.020507812 l 2
 157.03515625 398.326171875 186.71484375 398.326171875 205.020507812 380.020507812 c 0
 223.326171875 361.71484375 223.326171875 332.03515625 205.020507812 313.729492188 c 2
EndSplineSet
EndChar

StartChar: uniF011
Encoding: 61457 61457 13
Width: 1000
Flags: H
LayerCount: 2
Fore
SplineSet
234.375 706.25 m 2
 230.231445312 706.25 226.256835938 704.603515625 223.326171875 701.673828125 c 0
 220.396484375 698.743164062 218.75 694.768554688 218.75 690.625 c 2
 218.75 -28.125 l 2
 218.75 -36.75 225.75 -43.75 234.375 -43.75 c 2
 765.625 -43.75 l 2
 769.768554688 -43.75 773.744140625 -42.1064453125 776.674804688 -39.1748046875 c 0
 779.606445312 -36.244140625 781.25 -32.2685546875 781.25 -28.125 c 2
 781.25 425 l 1
 609.375 425 l 2
 580.3671875 425 552.546875 436.5234375 532.03515625 457.03515625 c 0
 511.5234375 477.546875 500 505.3671875 500 534.375 c 2
 500 706.25 l 1
 234.375 706.25 l 2
593.75 671.25 m 1
 593.75 534.375 l 2
 593.75 525.75 600.75 518.75 609.375 518.75 c 2
 746.25 518.75 l 1
 593.75 671.25 l 1
125 690.625 m 2
 125 751 174 800 234.375 800 c 2
 552.25 800 l 2
 581.25 800 609.0625 788.5 629.5625 767.9375 c 2
 842.9375 554.5625 l 2
 863.5 534.0625 875 506.25 875 477.25 c 2
 875 -28.125 l 2
 875 -57.130859375 863.474609375 -84.9501953125 842.962890625 -105.462890625 c 0
 822.450195312 -125.974609375 794.630859375 -137.5 765.625 -137.5 c 2
 234.375 -137.5 l 2
 205.3671875 -137.5 177.546875 -125.974609375 157.03515625 -105.462890625 c 0
 136.5234375 -84.9501953125 125 -57.130859375 125 -28.125 c 2
 125 690.625 l 2
EndSplineSet
EndChar

StartChar: uniF012
Encoding: 61458 61458 14
Width: 1000
Flags: H
LayerCount: 2
Fore
SplineSet
109.375 643.75 m 2
 100.74609375 643.75 93.75 636.75390625 93.75 628.125 c 2
 93.75 -28.125 l 2
 93.75 -36.755859375 100.74609375 -43.75 109.375 -43.75 c 2
 168.1796875 -43.75 l 2
 168.7578125 -43.1064453125 169.358398438 -42.46875 169.979492188 -41.849609375 c 2
 549.815429688 337.987304688 l 2
 591.02734375 379.19921875 657.318359375 380.85546875 700.537109375 341.752929688 c 2
 906.25 155.630859375 l 1
 906.25 628.125 l 2
 906.25 636.75390625 899.255859375 643.75 890.625 643.75 c 2
 109.375 643.75 l 2
890.625 -43.75 m 2
 899.255859375 -43.75 906.25 -36.755859375 906.25 -28.125 c 2
 906.25 29.2060546875 l 1
 637.637695312 272.233398438 l 2
 631.462890625 277.8203125 621.993164062 277.583007812 616.10546875 271.696289062 c 2
 300.66015625 -43.75 l 1
 890.625 -43.75 l 2
1000 -28.125 m 2
 1000 -88.53125 951.03125 -137.5 890.625 -137.5 c 2
 109.375 -137.5 l 2
 48.96875 -137.5 0 -88.53125 0 -28.125 c 2
 0 628.125 l 2
 0 688.53125 48.96875 737.5 109.375 737.5 c 2
 890.625 737.5 l 2
 951.03125 737.5 1000 688.53125 1000 628.125 c 2
 1000 50.1748046875 l 1
 1000 49.8125 l 1
 1000 -28.125 l 2
343.75 425 m 0
 343.75 442.258789062 329.758789062 456.25 312.5 456.25 c 0
 295.241210938 456.25 281.25 442.258789062 281.25 425 c 0
 281.25 407.741210938 295.241210938 393.75 312.5 393.75 c 0
 329.758789062 393.75 343.75 407.741210938 343.75 425 c 0
437.5 425 m 0
 437.5 355.96484375 381.53515625 300 312.5 300 c 0
 243.46484375 300 187.5 355.96484375 187.5 425 c 0
 187.5 494.03515625 243.46484375 550 312.5 550 c 0
 381.53515625 550 437.5 494.03515625 437.5 425 c 0
EndSplineSet
EndChar

StartChar: uniF013
Encoding: 61459 61459 15
Width: 1000
Flags: H
LayerCount: 2
Fore
SplineSet
218.75 690.625 m 2
 218.75 -28.125 l 2
 218.75 -33.849609375 221.803710938 -38.9189453125 226.596679688 -41.6875 c 0
 249.005859375 -54.650390625 256.663085938 -83.3251953125 243.700195312 -105.737304688 c 0
 230.737304688 -128.143554688 202.0625 -135.799804688 179.653320312 -122.837890625 c 0
 147.083984375 -104 125 -68.6689453125 125 -28.125 c 2
 125 690.625 l 2
 125 751.03125 173.96875 800 234.375 800 c 2
 583.487304688 800 l 2
 612.494140625 800 640.3125 788.4765625 660.825195312 767.96484375 c 2
 842.962890625 585.826171875 l 2
 863.474609375 565.314453125 875 537.495117188 875 508.487304688 c 2
 875 -28.125 l 2
 875 -88.53125 826.03125 -137.5 765.625 -137.5 c 2
 734.375 -137.5 l 2
 708.487304688 -137.5 687.5 -116.512695312 687.5 -90.625 c 0
 687.5 -64.7373046875 708.487304688 -43.75 734.375 -43.75 c 2
 765.625 -43.75 l 2
 774.255859375 -43.75 781.25 -36.755859375 781.25 -28.125 c 2
 781.25 508.487304688 l 2
 781.25 512.630859375 779.606445312 516.60546875 776.674804688 519.53515625 c 2
 594.53515625 701.673828125 l 2
 591.60546875 704.603515625 587.630859375 706.25 583.487304688 706.25 c 2
 453.125 706.25 l 1
 479.012695312 706.25 500 685.262695312 500 659.375 c 0
 500 633.487304688 479.012695312 612.5 453.125 612.5 c 2
 421.875 612.5 l 2
 395.987304688 612.5 375 633.487304688 375 659.375 c 0
 375 685.25390625 395.97265625 706.235351562 421.84765625 706.25 c 1
 234.375 706.25 l 2
 225.74609375 706.25 218.75 699.25390625 218.75 690.625 c 2
546.875 612.5 m 2
 578.125 612.5 l 2
 604.012695312 612.5 625 591.512695312 625 565.625 c 0
 625 539.737304688 604.012695312 518.75 578.125 518.75 c 2
 546.875 518.75 l 2
 520.987304688 518.75 500 539.737304688 500 565.625 c 0
 500 591.512695312 520.987304688 612.5 546.875 612.5 c 2
375 471.875 m 0
 375 497.762695312 395.987304688 518.75 421.875 518.75 c 2
 453.125 518.75 l 2
 479.012695312 518.75 500 497.762695312 500 471.875 c 0
 500 445.987304688 479.012695312 425 453.125 425 c 2
 421.875 425 l 2
 395.987304688 425 375 445.987304688 375 471.875 c 0
500 378.125 m 0
 500 404.012695312 520.987304688 425 546.875 425 c 2
 578.125 425 l 2
 604.012695312 425 625 404.012695312 625 378.125 c 0
 625 352.237304688 604.012695312 331.25 578.125 331.25 c 2
 546.875 331.25 l 2
 520.987304688 331.25 500 352.237304688 500 378.125 c 0
421.875 331.25 m 2
 453.125 331.25 l 2
 479.012695312 331.25 500 310.262695312 500 284.375 c 0
 500 258.487304688 479.012695312 237.5 453.125 237.5 c 2
 421.875 237.5 l 2
 395.987304688 237.5 375 258.487304688 375 284.375 c 0
 375 310.262695312 395.987304688 331.25 421.875 331.25 c 2
500 190.625 m 0
 500 216.512695312 520.987304688 237.5 546.875 237.5 c 2
 578.125 237.5 l 2
 604.012695312 237.5 625 216.512695312 625 190.625 c 0
 625 164.737304688 604.012695312 143.75 578.125 143.75 c 2
 546.875 143.75 l 2
 520.987304688 143.75 500 164.737304688 500 190.625 c 0
453.125 143.75 m 2
 484.375 143.75 l 2
 544.78125 143.75 593.75 94.78125 593.75 34.375 c 2
 593.75 -153.125 l 2
 593.75 -179.012695312 572.762695312 -200 546.875 -200 c 2
 390.625 -200 l 2
 364.737304688 -200 343.75 -179.012695312 343.75 -153.125 c 2
 343.75 34.375 l 2
 343.75 94.78125 392.71875 143.75 453.125 143.75 c 2
437.5 34.375 m 2
 437.5 -106.25 l 1
 500 -106.25 l 1
 500 34.375 l 2
 500 43.005859375 493.00390625 50 484.375 50 c 2
 453.125 50 l 2
 444.49609375 50 437.5 43.005859375 437.5 34.375 c 2
EndSplineSet
EndChar

StartChar: uniF015
Encoding: 61461 61461 16
Width: 1000
Flags: H
LayerCount: 2
Fore
SplineSet
156.25 314.0625 m 2
 156.24609375 312.009765625 156.647460938 309.975585938 157.4296875 308.077148438 c 0
 158.212890625 306.178710938 159.362304688 304.454101562 160.8125 303 c 2
 551.4375 -87.625 l 2
 552.888671875 -89.0810546875 554.61328125 -90.2373046875 556.51171875 -91.025390625 c 0
 558.41015625 -91.8125 560.4453125 -92.212890625 562.5 -92.212890625 c 0
 564.5546875 -92.212890625 566.58984375 -91.8125 568.48828125 -91.025390625 c 0
 570.38671875 -90.2373046875 572.111328125 -89.0810546875 573.5625 -87.625 c 2
 887.625 226.4375 l 2
 889.081054688 227.888671875 890.237304688 229.61328125 891.025390625 231.51171875 c 0
 891.8125 233.41015625 892.212890625 235.4453125 892.212890625 237.5 c 0
 892.212890625 239.5546875 891.8125 241.58984375 891.025390625 243.48828125 c 0
 890.237304688 245.38671875 889.081054688 247.111328125 887.625 248.5625 c 2
 497 639.1875 l 2
 495.545898438 640.637695312 493.821289062 641.787109375 491.922851562 642.5703125 c 0
 490.024414062 643.352539062 487.990234375 643.75390625 485.9375 643.75 c 2
 171.875 643.75 l 2
 167.731445312 643.75 163.756835938 642.103515625 160.826171875 639.173828125 c 0
 157.896484375 636.243164062 156.25 632.268554688 156.25 628.125 c 2
 156.25 314.0625 l 2
62.5 314.0625 m 2
 62.5 628.125 l 2
 62.5 688.5 111.5 737.5 171.875 737.5 c 2
 485.9375 737.5 l 2
 514.9375 737.5 542.8125 726 563.3125 705.4375 c 2
 953.9375 314.8125 l 2
 974.431640625 294.302734375 985.943359375 266.494140625 985.943359375 237.5 c 0
 985.943359375 208.505859375 974.431640625 180.697265625 953.9375 160.1875 c 2
 639.8125 -153.9375 l 2
 619.302734375 -174.431640625 591.494140625 -185.943359375 562.5 -185.943359375 c 0
 533.505859375 -185.943359375 505.697265625 -174.431640625 485.1875 -153.9375 c 2
 94.5625 236.6875 l 2
 84.396484375 246.845703125 76.3330078125 258.908203125 70.8310546875 272.184570312 c 0
 65.330078125 285.4609375 62.4990234375 299.69140625 62.5 314.0625 c 2
375 487.5 m 0
 391.576171875 487.5 407.47265625 480.915039062 419.194335938 469.194335938 c 0
 430.915039062 457.47265625 437.5 441.576171875 437.5 425 c 0
 437.5 408.423828125 430.915039062 392.52734375 419.194335938 380.805664062 c 0
 407.47265625 369.084960938 391.576171875 362.5 375 362.5 c 0
 358.423828125 362.5 342.52734375 369.084960938 330.805664062 380.805664062 c 0
 319.084960938 392.52734375 312.5 408.423828125 312.5 425 c 0
 312.5 441.576171875 319.084960938 457.47265625 330.805664062 469.194335938 c 0
 342.52734375 480.915039062 358.423828125 487.5 375 487.5 c 0
EndSplineSet
EndChar

StartChar: uniF016
Encoding: 61462 61462 17
Width: 1000
Flags: H
LayerCount: 2
Fore
SplineSet
109.375 737.5 m 2
 328.125 737.5 l 2
 362.5 737.5 395 721.25 415.625 693.75 c 2
 471.875 618.75 l 2
 473.331054688 616.809570312 475.217773438 615.234375 477.387695312 614.149414062 c 0
 479.556640625 613.065429688 481.94921875 612.5 484.375 612.5 c 2
 890.625 612.5 l 2
 919.630859375 612.5 947.450195312 600.9765625 967.962890625 580.46484375 c 0
 988.474609375 559.953125 1000 532.1328125 1000 503.125 c 2
 1000 -28.125 l 2
 1000 -57.130859375 988.474609375 -84.9501953125 967.962890625 -105.462890625 c 0
 947.450195312 -125.974609375 919.630859375 -137.5 890.625 -137.5 c 2
 109.375 -137.5 l 2
 49 -137.5 0 -88.5 0 -28.125 c 2
 0 628.125 l 2
 0 657.1328125 11.5234375 684.953125 32.03515625 705.46484375 c 0
 52.546875 725.9765625 80.3671875 737.5 109.375 737.5 c 2
EndSplineSet
EndChar

StartChar: uniF017
Encoding: 61463 61463 18
Width: 1000
Flags: H
LayerCount: 2
Fore
SplineSet
0 628.125 m 2
 0 688.53125 48.96875 737.5 109.375 737.5 c 2
 312.5 737.5 l 2
 346.926757812 737.5 379.34375 721.291015625 400 693.75 c 2
 456.25 618.75 l 2
 459.200195312 614.815429688 463.83203125 612.5 468.75 612.5 c 2
 890.625 612.5 l 2
 951.03125 612.5 1000 563.53125 1000 503.125 c 2
 1000 -28.125 l 2
 1000 -88.53125 951.03125 -137.5 890.625 -137.5 c 2
 109.375 -137.5 l 2
 48.96875 -137.5 0 -88.53125 0 -28.125 c 2
 0 628.125 l 2
588.7578125 43.130859375 m 2
 768.918945312 210.426757812 l 2
 775.575195312 216.608398438 775.575195312 227.14453125 768.918945312 233.327148438 c 2
 588.756835938 400.619140625 l 2
 578.759765625 409.90234375 562.5 402.8125 562.5 389.168945312 c 2
 562.5 268.75 l 1
 296.875 268.75 l 2
 270.987304688 268.75 250 247.763671875 250 221.875 c 0
 250 195.987304688 270.987304688 175 296.875 175 c 2
 562.5 175 l 1
 562.5 54.5810546875 l 2
 562.5 40.9375 578.759765625 33.849609375 588.7578125 43.130859375 c 2
EndSplineSet
EndChar

StartChar: uniF018
Encoding: 61464 61464 19
Width: 1000
Flags: H
LayerCount: 2
Fore
SplineSet
656.25 487.5 m 0
 656.25 528.940429688 639.787109375 568.68359375 610.485351562 597.985351562 c 0
 581.18359375 627.288085938 541.440429688 643.75 500 643.75 c 0
 458.559570312 643.75 418.817382812 627.288085938 389.514648438 597.985351562 c 0
 360.211914062 568.68359375 343.75 528.940429688 343.75 487.5 c 0
 343.75 446.059570312 360.211914062 406.317382812 389.514648438 377.014648438 c 0
 418.817382812 347.711914062 458.559570312 331.25 500 331.25 c 0
 541.440429688 331.25 581.18359375 347.711914062 610.485351562 377.014648438 c 0
 639.787109375 406.317382812 656.25 446.059570312 656.25 487.5 c 0
660.0625 295.4375 m 1
 721.599609375 266.358398438 774.068359375 221.090820312 811.856445312 164.481445312 c 0
 849.637695312 107.869140625 871.3125 42.0498046875 874.5625 -25.9375 c 0
 874.994140625 -32.162109375 874.174804688 -38.4189453125 872.150390625 -44.3251953125 c 0
 870.130859375 -50.2314453125 866.956054688 -55.6748046875 862.799804688 -60.337890625 c 0
 858.650390625 -65 853.606445312 -68.78125 847.974609375 -71.46875 c 0
 842.337890625 -74.15625 836.224609375 -75.693359375 829.987304688 -75.9814453125 c 0
 823.75 -76.275390625 817.518554688 -75.318359375 811.65625 -73.1689453125 c 0
 805.799804688 -71.0185546875 800.424804688 -67.71875 795.856445312 -63.462890625 c 0
 791.287109375 -59.212890625 787.612304688 -54.087890625 785.049804688 -48.3935546875 c 0
 782.487304688 -42.7001953125 781.09375 -36.556640625 780.9375 -30.3125 c 0
 777.53125 41.90625 746.443359375 110.037109375 694.130859375 159.9375 c 0
 641.818359375 209.841796875 572.297851562 237.68359375 500 237.68359375 c 0
 427.702148438 237.68359375 358.181640625 209.841796875 305.869140625 159.9375 c 0
 253.556640625 110.037109375 222.469726562 41.90625 219.0625 -30.3125 c 0
 218.220703125 -42.537109375 212.625976562 -53.943359375 203.4765625 -62.09375 c 0
 194.327148438 -70.244140625 182.349609375 -74.4873046875 170.110351562 -73.912109375 c 0
 157.87109375 -73.34375 146.341796875 -68 137.9921875 -59.03125 c 0
 129.642578125 -50.068359375 125.13671875 -38.1875 125.4375 -25.9375 c 0
 128.678710938 42.0439453125 150.345703125 107.856445312 188.119140625 164.46875 c 0
 225.891601562 221.078125 278.349609375 266.349609375 339.875 295.4375 c 1
 300.41796875 328.334960938 272.053710938 372.588867188 258.640625 422.178710938 c 0
 245.227539062 471.76953125 247.41796875 524.287109375 264.912109375 572.588867188 c 0
 282.405273438 620.889648438 314.35546875 662.62890625 356.4140625 692.12890625 c 0
 398.471679688 721.627929688 448.596679688 737.453125 499.96875 737.453125 c 0
 551.340820312 737.453125 601.465820312 721.627929688 643.525390625 692.12890625 c 0
 685.581054688 662.62890625 717.53125 620.889648438 735.025390625 572.588867188 c 0
 752.518554688 524.287109375 754.712890625 471.76953125 741.299804688 422.178710938 c 0
 727.880859375 372.588867188 699.518554688 328.334960938 660.0625 295.4375 c 1
EndSplineSet
EndChar

StartChar: uniF01F
Encoding: 61471 61471 20
Width: 1000
Flags: H
LayerCount: 2
Fore
SplineSet
656.25 315.625 m 0
 656.25 357.065429688 639.787109375 396.807617188 610.485351562 426.110351562 c 0
 581.18359375 455.412109375 541.440429688 471.875 500 471.875 c 0
 458.559570312 471.875 418.81640625 455.412109375 389.514648438 426.110351562 c 0
 360.211914062 396.807617188 343.75 357.065429688 343.75 315.625 c 0
 343.75 274.184570312 360.211914062 234.44140625 389.514648438 205.139648438 c 0
 418.81640625 175.836914062 458.559570312 159.375 500 159.375 c 0
 541.440429688 159.375 581.18359375 175.836914062 610.485351562 205.139648438 c 0
 639.787109375 234.44140625 656.25 274.184570312 656.25 315.625 c 0
745.625 268.75 m 2
 734.712890625 211.599609375 704.212890625 160.043945312 659.380859375 122.956054688 c 0
 614.544921875 85.875 558.18359375 65.587890625 500 65.587890625 c 0
 441.81640625 65.587890625 385.455078125 85.875 340.62109375 122.956054688 c 0
 295.787109375 160.043945312 265.287109375 211.599609375 254.375 268.75 c 2
 46.875 268.75 l 2
 34.443359375 268.75 22.5205078125 273.688476562 13.7294921875 282.479492188 c 0
 4.9384765625 291.26953125 0 303.192382812 0 315.625 c 0
 0 328.056640625 4.9384765625 339.979492188 13.7294921875 348.770507812 c 0
 22.5205078125 357.561523438 34.443359375 362.5 46.875 362.5 c 2
 254.375 362.5 l 2
 265.287109375 419.650390625 295.787109375 471.20703125 340.62109375 508.290039062 c 0
 385.455078125 545.373046875 441.81640625 565.662109375 500 565.662109375 c 0
 558.18359375 565.662109375 614.544921875 545.373046875 659.380859375 508.290039062 c 0
 704.212890625 471.20703125 734.712890625 419.650390625 745.625 362.5 c 2
 953.125 362.5 l 2
 965.556640625 362.5 977.481445312 357.561523438 986.268554688 348.770507812 c 0
 995.0625 339.979492188 1000 328.056640625 1000 315.625 c 0
 1000 303.192382812 995.0625 291.26953125 986.268554688 282.479492188 c 0
 977.481445312 273.688476562 965.556640625 268.75 953.125 268.75 c 2
 745.625 268.75 l 2
EndSplineSet
EndChar

StartChar: uniF020
Encoding: 61472 61472 21
Width: 1000
Flags: H
LayerCount: 2
Fore
SplineSet
734.375 643.75 m 0
 708.487304688 643.75 687.5 622.762695312 687.5 596.875 c 0
 687.5 570.987304688 708.487304688 550 734.375 550 c 0
 760.262695312 550 781.25 570.987304688 781.25 596.875 c 0
 781.25 622.762695312 760.262695312 643.75 734.375 643.75 c 0
593.75 596.875 m 0
 593.75 674.540039062 656.712890625 737.5 734.375 737.5 c 0
 812.037109375 737.5 875 674.540039062 875 596.875 c 0
 875 535.646484375 835.869140625 483.556640625 781.25 464.251953125 c 2
 781.25 425 l 2
 781.25 338.706054688 711.293945312 268.75 625 268.75 c 2
 375 268.75 l 2
 340.482421875 268.75 312.5 240.767578125 312.5 206.25 c 2
 312.5 135.75 l 2
 367.118164062 116.443359375 406.25 64.3564453125 406.25 3.125 c 0
 406.25 -74.537109375 343.290039062 -137.5 265.625 -137.5 c 0
 187.959960938 -137.5 125 -74.537109375 125 3.125 c 0
 125 64.3564453125 164.131835938 116.443359375 218.75 135.75 c 2
 218.75 206.25 l 1
 218.75 464.251953125 l 2
 164.131835938 483.556640625 125 535.646484375 125 596.875 c 0
 125 674.540039062 187.959960938 737.5 265.625 737.5 c 0
 343.290039062 737.5 406.25 674.540039062 406.25 596.875 c 0
 406.25 535.646484375 367.118164062 483.556640625 312.5 464.251953125 c 2
 312.5 349.499023438 l 1
 331.639648438 357.861328125 352.778320312 362.5 375 362.5 c 2
 625 362.5 l 2
 659.518554688 362.5 687.5 390.482421875 687.5 425 c 2
 687.5 464.251953125 l 2
 632.880859375 483.556640625 593.75 535.646484375 593.75 596.875 c 0
265.625 50 m 0
 239.737304688 50 218.75 29.0126953125 218.75 3.125 c 0
 218.75 -22.7626953125 239.737304688 -43.75 265.625 -43.75 c 0
 291.512695312 -43.75 312.5 -22.7626953125 312.5 3.125 c 0
 312.5 29.0126953125 291.512695312 50 265.625 50 c 0
218.75 596.875 m 0
 218.75 570.987304688 239.737304688 550 265.625 550 c 0
 291.512695312 550 312.5 570.987304688 312.5 596.875 c 0
 312.5 622.762695312 291.512695312 643.75 265.625 643.75 c 0
 239.737304688 643.75 218.75 622.762695312 218.75 596.875 c 0
EndSplineSet
EndChar

StartChar: uniF023
Encoding: 61475 61475 22
Width: 1000
Flags: H
LayerCount: 2
Fore
SplineSet
312.5 596.625 m 1
 312.5 596.875 l 2
 312.458984375 609.293945312 307.490234375 621.188476562 298.6875 629.947265625 c 0
 289.884765625 638.706054688 277.965820312 643.614257812 265.546875 643.59375 c 0
 253.12890625 643.573242188 241.225585938 638.625976562 232.452148438 629.836914062 c 0
 223.677734375 621.047851562 218.75 609.137695312 218.75 596.71875 c 0
 218.75 584.30078125 223.677734375 572.389648438 232.452148438 563.600585938 c 0
 241.225585938 554.8125 253.12890625 549.864257812 265.546875 549.84375 c 0
 277.965820312 549.823242188 289.884765625 554.731445312 298.6875 563.490234375 c 0
 307.490234375 572.249023438 312.458984375 584.14453125 312.5 596.5625 c 2
 312.5 596.875 l 1
 312.5 596.625 l 1
340.625 477.875 m 0
 362.708984375 433.8046875 396.620117188 396.749023438 438.563476562 370.853515625 c 0
 480.5078125 344.958984375 528.831054688 331.24609375 578.125 331.25 c 2
 664.25 331.25 l 2
 675.306640625 362.54296875 697.075195312 388.918945312 725.700195312 405.715820312 c 0
 754.325195312 422.512695312 787.96875 428.6484375 820.681640625 423.038085938 c 0
 853.387695312 417.428710938 883.068359375 400.434570312 904.456054688 375.059570312 c 0
 925.849609375 349.685546875 937.587890625 317.564453125 937.587890625 284.375 c 0
 937.587890625 251.185546875 925.849609375 219.065429688 904.456054688 193.690429688 c 0
 883.068359375 168.318359375 853.387695312 151.318359375 820.681640625 145.712890625 c 0
 787.96875 140.099609375 754.325195312 146.237304688 725.700195312 163.03125 c 0
 697.075195312 179.831054688 675.306640625 206.20703125 664.25 237.5 c 2
 578.125 237.5 l 2
 528.115234375 237.44140625 478.647460938 247.849609375 432.900390625 268.053710938 c 0
 387.154296875 288.2578125 346.141601562 317.810546875 312.5 354.8125 c 1
 312.5 135.75 l 2
 343.79296875 124.693359375 370.168945312 102.924804688 386.965820312 74.2998046875 c 0
 403.762695312 45.6748046875 409.8984375 12.03125 404.288085938 -20.681640625 c 0
 398.677734375 -53.3876953125 381.684570312 -83.068359375 356.309570312 -104.456054688 c 0
 330.934570312 -125.849609375 298.814453125 -137.587890625 265.625 -137.587890625 c 0
 232.435546875 -137.587890625 200.314453125 -125.849609375 174.940429688 -104.456054688 c 0
 149.565429688 -83.068359375 132.571289062 -53.3876953125 126.961914062 -20.681640625 c 0
 121.3515625 12.03125 127.487304688 45.6748046875 144.284179688 74.2998046875 c 0
 161.081054688 102.924804688 187.45703125 124.693359375 218.75 135.75 c 2
 218.75 464.25 l 2
 188.7421875 474.860351562 163.219726562 495.3359375 146.358398438 522.331054688 c 0
 129.49609375 549.327148438 122.290039062 581.244140625 125.918945312 612.865234375 c 0
 129.547851562 644.486328125 143.795898438 673.940429688 166.3359375 696.4140625 c 0
 188.875 718.887695312 218.37109375 733.049804688 250.002929688 736.5859375 c 0
 281.634765625 740.122070312 313.530273438 732.823242188 340.4765625 715.8828125 c 0
 367.421875 698.94140625 387.823242188 673.360351562 398.345703125 643.3203125 c 0
 408.8671875 613.28125 408.887695312 580.561523438 398.403320312 550.508789062 c 0
 387.918945312 520.45703125 367.549804688 494.849609375 340.625 477.875 c 0
796.875 237.5 m 0
 809.306640625 237.5 821.231445312 242.438476562 830.018554688 251.229492188 c 0
 838.8125 260.01953125 843.75 271.943359375 843.75 284.375 c 0
 843.75 296.806640625 838.8125 308.73046875 830.018554688 317.520507812 c 0
 821.231445312 326.311523438 809.306640625 331.25 796.875 331.25 c 0
 784.443359375 331.25 772.518554688 326.311523438 763.731445312 317.520507812 c 0
 754.9375 308.73046875 750 296.806640625 750 284.375 c 0
 750 271.943359375 754.9375 260.01953125 763.731445312 251.229492188 c 0
 772.518554688 242.438476562 784.443359375 237.5 796.875 237.5 c 0
265.625 -43.75 m 0
 278.056640625 -43.75 289.98046875 -38.8125 298.770507812 -30.0185546875 c 0
 307.561523438 -21.2314453125 312.5 -9.306640625 312.5 3.125 c 0
 312.5 15.556640625 307.561523438 27.4814453125 298.770507812 36.2685546875 c 0
 289.98046875 45.0625 278.056640625 50 265.625 50 c 0
 253.193359375 50 241.26953125 45.0625 232.479492188 36.2685546875 c 0
 223.688476562 27.4814453125 218.75 15.556640625 218.75 3.125 c 0
 218.75 -9.306640625 223.688476562 -21.2314453125 232.479492188 -30.0185546875 c 0
 241.26953125 -38.8125 253.193359375 -43.75 265.625 -43.75 c 0
EndSplineSet
EndChar

StartChar: uniF024
Encoding: 61476 61476 23
Width: 1000
Flags: H
LayerCount: 2
Fore
SplineSet
546.875 690.625 m 2
 546.875 659.375 l 2
 546.875 633.487304688 525.887695312 612.5 500 612.5 c 0
 474.112304688 612.5 453.125 633.487304688 453.125 659.375 c 2
 453.125 690.625 l 2
 453.125 716.512695312 474.112304688 737.5 500 737.5 c 0
 525.887695312 737.5 546.875 716.512695312 546.875 690.625 c 2
500 550 m 0
 525.887695312 550 546.875 529.012695312 546.875 503.125 c 2
 546.875 471.875 l 2
 546.875 445.987304688 525.887695312 425 500 425 c 0
 474.112304688 425 453.125 445.987304688 453.125 471.875 c 2
 453.125 503.125 l 2
 453.125 529.012695312 474.112304688 550 500 550 c 0
546.875 315.625 m 2
 546.875 284.375 l 2
 546.875 258.487304688 525.887695312 237.5 500 237.5 c 0
 474.112304688 237.5 453.125 258.487304688 453.125 284.375 c 2
 453.125 315.625 l 2
 453.125 341.512695312 474.112304688 362.5 500 362.5 c 0
 525.887695312 362.5 546.875 341.512695312 546.875 315.625 c 2
500 175 m 0
 525.887695312 175 546.875 154.012695312 546.875 128.125 c 2
 546.875 96.875 l 2
 546.875 70.9873046875 525.887695312 50 500 50 c 0
 474.112304688 50 453.125 70.9873046875 453.125 96.875 c 2
 453.125 128.125 l 2
 453.125 154.012695312 474.112304688 175 500 175 c 0
500 -12.5 m 0
 525.887695312 -12.5 546.875 -33.4873046875 546.875 -59.375 c 2
 546.875 -90.625 l 2
 546.875 -116.512695312 525.887695312 -137.5 500 -137.5 c 0
 474.112304688 -137.5 453.125 -116.512695312 453.125 -90.625 c 2
 453.125 -59.375 l 2
 453.125 -33.4873046875 474.112304688 -12.5 500 -12.5 c 0
971.681640625 608.669921875 m 0
 988.869140625 601.26171875 1000 584.33984375 1000 565.624023438 c 2
 1000 34.375 l 2
 1000 15.65625 988.869140625 -1.2626953125 971.681640625 -8.6748046875 c 0
 954.494140625 -16.0810546875 934.543945312 -12.556640625 920.9375 0.2939453125 c 2
 639.6875 265.919921875 l 2
 630.3125 274.775390625 625 287.102539062 625 299.999023438 c 0
 625 312.895507812 630.3125 325.22265625 639.6875 334.077148438 c 2
 920.9375 599.702148438 l 2
 934.543945312 612.552734375 954.494140625 616.079101562 971.681640625 608.669921875 c 0
740.143554688 299.999023438 m 1
 906.25 143.119140625 l 1
 906.25 456.876953125 l 1
 740.143554688 299.999023438 l 1
0 34.375 m 2
 0 565.625976562 l 2
 0 584.341796875 11.1328125 601.263671875 28.3203125 608.672851562 c 0
 45.5068359375 616.081054688 65.4541015625 612.555664062 79.060546875 599.705078125 c 2
 360.310546875 334.080078125 l 2
 369.686523438 325.224609375 375 312.897460938 375 300.000976562 c 0
 375 287.104492188 369.686523438 274.77734375 360.310546875 265.922851562 c 2
 79.060546875 0.2998046875 l 2
 65.4541015625 -12.556640625 45.5068359375 -16.0810546875 28.3203125 -8.6689453125 c 0
 11.1328125 -1.2626953125 0 15.662109375 0 34.375 c 2
93.75 456.87890625 m 1
 93.75 143.125 l 1
 259.856445312 300.000976562 l 1
 93.75 456.87890625 l 1
EndSplineSet
EndChar

StartChar: uniF026
Encoding: 61478 61478 24
Width: 1000
Flags: H
LayerCount: 2
Fore
SplineSet
500 706.25 m 0
 392.255859375 706.25 288.924804688 663.44921875 212.73828125 587.26171875 c 0
 136.55078125 511.075195312 93.75 407.744140625 93.75 300 c 0
 93.75 192.255859375 136.55078125 88.9248046875 212.73828125 12.7373046875 c 0
 288.924804688 -63.4501953125 392.255859375 -106.25 500 -106.25 c 0
 607.744140625 -106.25 711.075195312 -63.4501953125 787.262695312 12.7373046875 c 0
 863.450195312 88.9248046875 906.25 192.255859375 906.25 300 c 0
 906.25 407.744140625 863.450195312 511.075195312 787.262695312 587.26171875 c 0
 711.075195312 663.44921875 607.744140625 706.25 500 706.25 c 0
0 300 m 0
 0 432.608398438 52.6787109375 559.78515625 146.447265625 653.552734375 c 0
 240.21484375 747.321289062 367.391601562 800 500 800 c 0
 632.606445312 800 759.787109375 747.321289062 853.556640625 653.552734375 c 0
 947.318359375 559.78515625 1000 432.608398438 1000 300 c 0
 1000 167.393554688 947.318359375 40.212890625 853.556640625 -53.556640625 c 0
 759.787109375 -147.318359375 632.606445312 -200 500 -200 c 0
 367.391601562 -200 240.21484375 -147.318359375 146.447265625 -53.556640625 c 0
 52.6787109375 40.212890625 0 167.393554688 0 300 c 0
562.5 112.5 m 0
 562.5 95.9248046875 555.915039062 80.025390625 544.194335938 68.306640625 c 0
 532.47265625 56.587890625 516.576171875 50 500 50 c 0
 483.423828125 50 467.52734375 56.587890625 455.805664062 68.306640625 c 0
 444.084960938 80.025390625 437.5 95.9248046875 437.5 112.5 c 0
 437.5 129.075195312 444.084960938 144.974609375 455.805664062 156.693359375 c 0
 467.52734375 168.412109375 483.423828125 175 500 175 c 0
 516.576171875 175 532.47265625 168.412109375 544.194335938 156.693359375 c 0
 555.915039062 144.974609375 562.5 129.075195312 562.5 112.5 c 0
546.875 503.125 m 2
 546.875 284.375 l 2
 546.875 271.943359375 541.936523438 260.01953125 533.145507812 251.229492188 c 0
 524.35546875 242.438476562 512.431640625 237.5 500 237.5 c 0
 487.568359375 237.5 475.64453125 242.438476562 466.854492188 251.229492188 c 0
 458.063476562 260.01953125 453.125 271.943359375 453.125 284.375 c 2
 453.125 503.125 l 2
 453.125 515.556640625 458.063476562 527.48046875 466.854492188 536.270507812 c 0
 475.64453125 545.061523438 487.568359375 550 500 550 c 0
 512.431640625 550 524.35546875 545.061523438 533.145507812 536.270507812 c 0
 541.936523438 527.48046875 546.875 515.556640625 546.875 503.125 c 2
EndSplineSet
EndChar

StartChar: uniF027
Encoding: 61479 61479 25
Width: 1000
Flags: H
LayerCount: 2
Fore
SplineSet
500 706.25 m 1
 435.41015625 706.302734375 371.741210938 690.93359375 314.2890625 661.418945312 c 0
 256.8359375 631.904296875 207.26171875 589.098632812 169.6875 536.5625 c 2
 254.5625 451.6875 l 2
 256.752929688 449.501953125 258.24609375 446.715820312 258.8515625 443.680664062 c 0
 259.456054688 440.646484375 259.146484375 437.5 257.961914062 434.641601562 c 0
 256.77734375 431.783203125 254.76953125 429.340820312 252.1953125 427.624023438 c 0
 249.62109375 425.908203125 246.594726562 424.994140625 243.5 425 c 2
 15.625 425 l 2
 11.4814453125 425 7.5068359375 426.646484375 4.576171875 429.576171875 c 0
 1.646484375 432.506835938 0 436.481445312 0 440.625 c 2
 0 668.5 l 2
 -0.005859375 671.594726562 0.908203125 674.62109375 2.6240234375 677.1953125 c 0
 4.3408203125 679.76953125 6.783203125 681.77734375 9.6416015625 682.961914062 c 0
 12.5 684.146484375 15.646484375 684.456054688 18.6806640625 683.8515625 c 0
 21.7158203125 683.24609375 24.501953125 681.752929688 26.6875 679.5625 c 2
 102.6875 603.5625 l 1
 163.48046875 683.159179688 246.77734375 742.663085938 341.78515625 774.365234375 c 0
 436.79296875 806.067382812 539.130859375 808.505859375 635.543945312 781.364257812 c 0
 731.950195312 754.22265625 817.987304688 698.752929688 882.5 622.141601562 c 0
 947.018554688 545.530273438 987.037109375 451.309570312 997.375 351.6875 c 0
 998.075195312 345.532226562 997.543945312 339.299804688 995.8125 333.350585938 c 0
 994.087890625 327.401367188 991.200195312 321.853515625 987.318359375 317.02734375 c 0
 983.431640625 312.200195312 978.630859375 308.19140625 973.1875 305.233398438 c 0
 967.75 302.2734375 961.775390625 300.422851562 955.612304688 299.787109375 c 0
 949.450195312 299.150390625 943.21875 299.7421875 937.287109375 301.52734375 c 0
 931.356445312 303.3125 925.837890625 306.255859375 921.049804688 310.186523438 c 0
 916.262695312 314.118164062 912.299804688 318.958984375 909.400390625 324.430664062 c 0
 906.494140625 329.90234375 904.700195312 335.89453125 904.125 342.0625 c 0
 893.706054688 441.98828125 846.637695312 534.512695312 772.005859375 601.770507812 c 0
 697.375 669.028320312 600.467773438 706.250976562 500 706.25 c 1
 500 706.25 l 1
44.5 299.75 m 1
 56.865234375 301.0078125 69.2236328125 297.302734375 78.8583984375 289.450195312 c 0
 88.4921875 281.59765625 94.61328125 270.240234375 95.875 257.875 c 0
 104.4296875 175.885742188 137.719726562 98.4375 191.325195312 35.8125 c 0
 244.932617188 -26.806640625 316.319335938 -71.6435546875 396.0078125 -92.744140625 c 0
 475.697265625 -113.837890625 559.91796875 -110.200195312 637.487304688 -82.306640625 c 0
 715.056640625 -54.40625 782.3125 -3.5810546875 830.3125 63.4375 c 2
 745.4375 148.3125 l 2
 743.244140625 150.5 741.755859375 153.28125 741.150390625 156.318359375 c 0
 740.543945312 159.356445312 740.849609375 162.5 742.037109375 165.356445312 c 0
 743.224609375 168.21875 745.231445312 170.65625 747.806640625 172.375 c 0
 750.380859375 174.09375 753.40625 175.005859375 756.5 175 c 2
 984.375 175 l 2
 988.518554688 175 992.494140625 173.356445312 995.424804688 170.424804688 c 0
 998.356445312 167.494140625 1000 163.518554688 1000 159.375 c 2
 1000 -68.5 l 2
 1000.00585938 -71.59375 999.09375 -74.619140625 997.375 -77.193359375 c 0
 995.65625 -79.7685546875 993.21875 -81.775390625 990.356445312 -82.962890625 c 0
 987.5 -84.150390625 984.356445312 -84.4560546875 981.318359375 -83.849609375 c 0
 978.28125 -83.244140625 975.5 -81.755859375 973.3125 -79.5625 c 2
 897.3125 -3.5625 l 1
 836.5 -83.130859375 753.206054688 -142.606445312 658.206054688 -174.287109375 c 0
 563.20703125 -205.96875 460.883789062 -208.400390625 364.48828125 -181.262695312 c 0
 268.092773438 -154.125 182.065429688 -98.6689453125 117.547851562 -22.0810546875 c 0
 53.0302734375 54.5126953125 12.994140625 148.706054688 2.625 248.3125 c 0
 1.994140625 254.440429688 2.576171875 260.631835938 4.33984375 266.534179688 c 0
 6.1025390625 272.436523438 9.01171875 277.93359375 12.9013671875 282.7109375 c 0
 16.7900390625 287.487304688 21.5830078125 291.451171875 27.0048828125 294.375 c 0
 32.4267578125 297.298828125 38.3720703125 299.125976562 44.5 299.75 c 1
 44.5 299.75 l 1
562.5 112.5 m 1
 562.5 95.9248046875 555.915039062 80.025390625 544.194335938 68.306640625 c 0
 532.47265625 56.587890625 516.576171875 50 500 50 c 0
 483.423828125 50 467.52734375 56.587890625 455.805664062 68.306640625 c 0
 444.084960938 80.025390625 437.5 95.9248046875 437.5 112.5 c 0
 437.5 129.075195312 444.084960938 144.974609375 455.805664062 156.693359375 c 0
 467.52734375 168.412109375 483.423828125 175 500 175 c 0
 516.576171875 175 532.47265625 168.412109375 544.194335938 156.693359375 c 0
 555.915039062 144.974609375 562.5 129.075195312 562.5 112.5 c 1
 562.5 112.5 l 1
546.875 503.125 m 2
 546.875 284.375 l 2
 546.875 271.943359375 541.936523438 260.01953125 533.145507812 251.229492188 c 0
 524.35546875 242.438476562 512.431640625 237.5 500 237.5 c 0
 487.568359375 237.5 475.64453125 242.438476562 466.854492188 251.229492188 c 0
 458.063476562 260.01953125 453.125 271.943359375 453.125 284.375 c 2
 453.125 503.125 l 2
 453.125 515.556640625 458.063476562 527.48046875 466.854492188 536.270507812 c 0
 475.64453125 545.061523438 487.568359375 550 500 550 c 0
 512.431640625 550 524.35546875 545.061523438 533.145507812 536.270507812 c 0
 541.936523438 527.48046875 546.875 515.556640625 546.875 503.125 c 2
EndSplineSet
EndChar

StartChar: uniF028
Encoding: 61480 61480 26
Width: 1000
Flags: H
LayerCount: 2
Fore
SplineSet
93.7509765625 300 m 1
 93.7509765625 300 l 1
 93.6552734375 201.842773438 129.1015625 106.96875 193.53515625 32.9248046875 c 0
 257.969726562 -41.125 347.034179688 -89.337890625 444.262695312 -102.806640625 c 0
 541.490234375 -116.268554688 640.306640625 -94.0810546875 722.443359375 -40.337890625 c 0
 804.575195312 13.412109375 864.474609375 95.0751953125 891.0625 189.5625 c 0
 894.4375 201.530273438 902.424804688 211.66796875 913.275390625 217.74609375 c 0
 924.119140625 223.823242188 936.9375 225.341796875 948.90625 221.96875 c 0
 960.875 218.595703125 971.012695312 210.606445312 977.087890625 199.758789062 c 0
 983.168945312 188.91015625 984.6875 176.092773438 981.3125 164.125 c 0
 952.037109375 60.380859375 890.025390625 -31.125 804.505859375 -96.755859375 c 0
 718.987304688 -162.380859375 614.552734375 -198.612304688 506.765625 -200.049804688 c 0
 398.978515625 -201.487304688 293.614257812 -168.049804688 206.37890625 -104.724609375 c 0
 119.143554688 -41.400390625 54.7099609375 48.4189453125 22.681640625 151.349609375 c 0
 -9.345703125 254.278320312 -7.251953125 364.80078125 28.65234375 466.44140625 c 0
 64.556640625 568.083007812 132.346679688 655.399414062 221.918945312 715.374023438 c 0
 311.490234375 775.348632812 418.045898438 804.76953125 525.700195312 799.250976562 c 0
 633.356445312 793.732421875 736.34375 753.569335938 819.3125 684.75 c 0
 828.587890625 676.715820312 834.337890625 665.3671875 835.337890625 653.139648438 c 0
 836.337890625 640.912109375 832.505859375 628.779296875 824.65625 619.346679688 c 0
 816.8125 609.9140625 805.581054688 603.93359375 793.375 602.688476562 c 0
 781.168945312 601.443359375 768.962890625 605.033203125 759.375 612.6875 c 0
 700.005859375 661.9375 627.84375 693.266601562 551.3203125 703.01171875 c 0
 474.80078125 712.755859375 397.086914062 700.512695312 327.268554688 667.71484375 c 0
 257.450195312 634.916015625 198.412109375 582.91796875 157.059570312 517.80078125 c 0
 115.70703125 452.68359375 93.748046875 377.138671875 93.7509765625 300 c 1
500.000976562 50 m 0
 483.424804688 50 467.52734375 56.587890625 455.806640625 68.306640625 c 0
 444.0859375 80.025390625 437.500976562 95.9248046875 437.500976562 112.5 c 0
 437.500976562 129.075195312 444.0859375 144.974609375 455.806640625 156.693359375 c 0
 467.52734375 168.412109375 483.424804688 175 500.000976562 175 c 0
 516.577148438 175 532.473632812 168.412109375 544.1953125 156.693359375 c 0
 555.916015625 144.974609375 562.500976562 129.075195312 562.500976562 112.5 c 0
 562.500976562 95.9248046875 555.916015625 80.025390625 544.1953125 68.306640625 c 0
 532.473632812 56.587890625 516.577148438 50 500.000976562 50 c 0
500.000976562 550 m 0
 512.43359375 550 524.35546875 545.061523438 533.146484375 536.270507812 c 0
 541.9375 527.48046875 546.875976562 515.556640625 546.875976562 503.125 c 2
 546.875976562 284.375 l 2
 546.875976562 271.943359375 541.9375 260.01953125 533.146484375 251.229492188 c 0
 524.35546875 242.438476562 512.43359375 237.5 500.000976562 237.5 c 0
 487.568359375 237.5 475.646484375 242.438476562 466.85546875 251.229492188 c 0
 458.064453125 260.01953125 453.125976562 271.943359375 453.125976562 284.375 c 2
 453.125976562 503.125 l 2
 453.125976562 515.556640625 458.064453125 527.48046875 466.85546875 536.270507812 c 0
 475.646484375 545.061523438 487.568359375 550 500.000976562 550 c 0
798.75 282.5 m 1
 798.75 282.5 l 1
 789.962890625 273.721679688 778.049804688 268.791015625 765.625 268.791015625 c 0
 753.206054688 268.791015625 741.287109375 273.721679688 732.5 282.5 c 2
 638.75 376.25 l 2
 634.143554688 380.541015625 630.450195312 385.715820312 627.887695312 391.465820312 c 0
 625.325195312 397.215820312 623.950195312 403.423828125 623.838867188 409.717773438 c 0
 623.728515625 416.01171875 624.885742188 422.262695312 627.244140625 428.099609375 c 0
 629.599609375 433.936523438 633.112304688 439.23828125 637.5625 443.690429688 c 0
 642.012695312 448.141601562 647.3125 451.650390625 653.150390625 454.0078125 c 0
 658.987304688 456.365234375 665.237304688 457.5234375 671.53125 457.412109375 c 0
 677.825195312 457.30078125 684.037109375 455.922851562 689.787109375 453.361328125 c 0
 695.537109375 450.799804688 700.712890625 447.10546875 705 442.5 c 2
 765.625 381.875 l 1
 920 536.25 l 2
 928.887695312 544.530273438 940.637695312 549.037109375 952.78125 548.82421875 c 0
 964.924804688 548.609375 976.512695312 543.690429688 985.099609375 535.1015625 c 0
 993.6875 526.512695312 998.612304688 514.92578125 998.825195312 502.782226562 c 0
 999.037109375 490.638671875 994.53125 478.88671875 986.25 470 c 2
 798.75 282.5 l 1
EndSplineSet
EndChar

StartChar: uniF02A
Encoding: 61482 61482 27
Width: 1000
Flags: H
LayerCount: 2
Fore
SplineSet
500 784.375 m 0
 508.750976562 784.380859375 517.328125 781.936523438 524.76171875 777.319335938 c 0
 532.1953125 772.702148438 538.188476562 766.096679688 542.0625 758.25 c 2
 659.6875 519.8125 l 1
 922.8125 481.5625 l 2
 931.46875 480.305664062 939.59375 476.653320312 946.28125 471.017578125 c 0
 952.96875 465.3828125 957.943359375 457.98828125 960.650390625 449.672851562 c 0
 963.356445312 441.356445312 963.681640625 432.450195312 961.587890625 423.958984375 c 0
 959.494140625 415.46875 955.068359375 407.732421875 948.8125 401.625 c 2
 758.4375 216 l 1
 803.375 -46 l 2
 804.856445312 -54.619140625 803.900390625 -63.4814453125 800.606445312 -71.587890625 c 0
 797.3125 -79.693359375 791.818359375 -86.712890625 784.744140625 -91.8564453125 c 0
 777.668945312 -97 769.293945312 -100.0625 760.568359375 -100.693359375 c 0
 751.84375 -101.325195312 743.119140625 -99.505859375 735.375 -95.4375 c 2
 500 28.3125 l 1
 264.625 -95.4375 l 2
 256.88671875 -99.5 248.166015625 -101.318359375 239.44921875 -100.6875 c 0
 230.731445312 -100.056640625 222.365234375 -97 215.29296875 -91.869140625 c 0
 208.219726562 -86.7314453125 202.724609375 -79.71875 199.42578125 -71.625 c 0
 196.126953125 -63.53125 195.157226562 -54.681640625 196.625 -46.0625 c 2
 241.625 216.0625 l 1
 51.125 401.625 l 2
 44.84765625 407.73046875 40.40625 415.470703125 38.302734375 423.970703125 c 0
 36.2001953125 432.470703125 36.51953125 441.389648438 39.2265625 449.716796875 c 0
 41.9326171875 458.043945312 46.91796875 465.447265625 53.6162109375 471.086914062 c 0
 60.314453125 476.7265625 68.4580078125 480.376953125 77.125 481.625 c 2
 340.25 519.8125 l 1
 457.9375 758.25 l 2
 461.811523438 766.096679688 467.803710938 772.702148438 475.237304688 777.319335938 c 0
 482.670898438 781.936523438 491.249023438 784.380859375 500 784.375 c 0
EndSplineSet
EndChar

StartChar: uniF02B
Encoding: 61483 61483 28
Width: 1000
Flags: H
LayerCount: 2
Fore
SplineSet
171.875 643.75 m 2
 167.731445312 643.75 163.756835938 642.103515625 160.826171875 639.173828125 c 0
 157.896484375 636.243164062 156.25 632.268554688 156.25 628.125 c 2
 156.25 159.375 l 2
 156.25 150.75 163.25 143.75 171.875 143.75 c 2
 296.875 143.75 l 2
 309.306640625 143.75 321.23046875 138.8125 330.020507812 130.018554688 c 0
 338.811523438 121.231445312 343.75 109.306640625 343.75 96.875 c 2
 343.75 -40 l 1
 513.75 130 l 2
 522.532226562 138.793945312 534.447265625 143.737304688 546.875 143.75 c 2
 828.125 143.75 l 2
 832.268554688 143.75 836.244140625 145.393554688 839.174804688 148.325195312 c 0
 842.106445312 151.255859375 843.75 155.231445312 843.75 159.375 c 2
 843.75 628.125 l 2
 843.75 632.268554688 842.106445312 636.243164062 839.174804688 639.173828125 c 0
 836.244140625 642.103515625 832.268554688 643.75 828.125 643.75 c 2
 171.875 643.75 l 2
62.5 628.125 m 2
 62.5 688.5 111.5 737.5 171.875 737.5 c 2
 828.125 737.5 l 2
 888.5 737.5 937.5 688.5 937.5 628.125 c 2
 937.5 159.375 l 2
 937.5 130.369140625 925.974609375 102.549804688 905.462890625 82.037109375 c 0
 884.950195312 61.525390625 857.130859375 50 828.125 50 c 2
 566.25 50 l 1
 405.4375 -110.8125 l 2
 392.702148438 -123.543945312 376.479492188 -132.206054688 358.819335938 -135.71875 c 0
 341.159179688 -139.231445312 322.854492188 -137.424804688 306.21875 -130.537109375 c 0
 289.583007812 -123.650390625 275.36328125 -111.981445312 265.356445312 -97.0126953125 c 0
 255.350585938 -82.0439453125 250.005859375 -64.443359375 250 -46.4375 c 2
 250 50 l 1
 171.875 50 l 2
 142.8671875 50 115.046875 61.525390625 94.53515625 82.037109375 c 0
 74.0234375 102.549804688 62.5 130.369140625 62.5 159.375 c 2
 62.5 628.125 l 2
EndSplineSet
EndChar

StartChar: uniF02C
Encoding: 61484 61484 29
Width: 1000
Flags: H
LayerCount: 2
Fore
SplineSet
500 706.25 m 0
 275.634765625 706.25 93.75 524.365234375 93.75 300 c 0
 93.75 75.630859375 275.634765625 -106.25 500 -106.25 c 0
 724.369140625 -106.25 906.25 75.630859375 906.25 300 c 0
 906.25 524.365234375 724.369140625 706.25 500 706.25 c 0
0 300 m 0
 0 576.142578125 223.857421875 800 500 800 c 0
 776.143554688 800 1000 576.142578125 1000 300 c 0
 1000 23.8564453125 776.143554688 -200 500 -200 c 0
 223.857421875 -200 0 23.8564453125 0 300 c 0
562.5 112.5 m 0
 562.5 77.9814453125 534.518554688 50 500 50 c 0
 465.482421875 50 437.5 77.9814453125 437.5 112.5 c 0
 437.5 147.018554688 465.482421875 175 500 175 c 0
 534.518554688 175 562.5 147.018554688 562.5 112.5 c 0
432.55078125 419.662109375 m 0
 420.973632812 396.506835938 392.81640625 387.12109375 369.662109375 398.69921875 c 0
 346.505859375 410.276367188 337.12109375 438.43359375 348.69921875 461.587890625 c 0
 359.291015625 482.7734375 375.916992188 505.385742188 401.732421875 522.596679688 c 0
 427.841796875 540.002929688 460.547851562 550 500 550 c 0
 534.598632812 550 572.213867188 539.78515625 602.34375 517.1875 c 0
 633.724609375 493.651367188 656.25 456.880859375 656.25 409.375 c 0
 656.25 381.3515625 649.037109375 357.50390625 635.681640625 337.474609375 c 0
 622.891601562 318.2890625 606.296875 305.413085938 592.409179688 296.153320312 c 0
 585.616210938 291.625 578.704101562 287.477539062 572.849609375 283.96484375 c 2
 572.846679688 283.962890625 l 1
 572.458007812 283.73046875 l 2
 566.1875 279.967773438 561.05078125 276.874023438 556.27734375 273.69140625 c 0
 546.728515625 267.325195312 541.838867188 262.623046875 539.00390625 258.369140625 c 0
 524.64453125 236.828125 495.541992188 231.005859375 474.000976562 245.364257812 c 0
 452.458984375 259.723632812 446.63671875 288.826171875 460.99609375 310.3671875 c 0
 473.78515625 329.5546875 490.379882812 342.43359375 504.26953125 351.693359375 c 0
 511.065429688 356.224609375 517.98046875 360.374023438 523.836914062 363.887695312 c 2
 523.837890625 363.887695312 l 1
 524.221679688 364.118164062 l 2
 530.4921875 367.880859375 535.62890625 370.974609375 540.403320312 374.157226562 c 0
 549.952148438 380.5234375 554.842773438 385.225585938 557.676757812 389.478515625 c 0
 559.94921875 392.88671875 562.5 398.3359375 562.5 409.375 c 0
 562.5 424.369140625 556.37890625 434.473632812 546.09375 442.1875 c 0
 534.556640625 450.83984375 517.484375 456.25 500 456.25 c 0
 476.952148438 456.25 462.783203125 450.622070312 453.735351562 444.590820312 c 0
 444.39453125 438.364257812 437.583007812 429.7265625 432.55078125 419.662109375 c 0
EndSplineSet
EndChar

StartChar: uniF02E
Encoding: 61486 61486 30
Width: 1000
Flags: H
LayerCount: 2
Fore
SplineSet
718.75 362.5 m 0
 718.75 437.092773438 689.119140625 508.62890625 636.375 561.374023438 c 0
 583.627929688 614.119140625 512.090820312 643.75 437.499023438 643.75 c 0
 362.907226562 643.75 291.370117188 614.119140625 238.625976562 561.374023438 c 0
 185.880859375 508.62890625 156.249023438 437.092773438 156.249023438 362.5 c 0
 156.249023438 325.56640625 163.5234375 288.993164062 177.658203125 254.87109375 c 0
 191.79296875 220.747070312 212.508789062 189.743164062 238.625976562 163.625 c 0
 264.7421875 137.512695312 295.747070312 116.793945312 329.869140625 102.65625 c 0
 363.9921875 88.525390625 400.565429688 81.25 437.499023438 81.25 c 0
 474.43359375 81.25 511.005859375 88.525390625 545.12890625 102.65625 c 0
 579.251953125 116.793945312 610.255859375 137.512695312 636.375 163.625 c 0
 662.487304688 189.743164062 683.206054688 220.747070312 697.337890625 254.87109375 c 0
 711.474609375 288.993164062 718.75 325.56640625 718.75 362.5 c 0
667.5 66.25 m 2
 592.1484375 7.75 497.334960938 -19.8310546875 402.362304688 -10.880859375 c 0
 307.388671875 -1.9375 219.395507812 42.869140625 156.295898438 114.412109375 c 0
 93.1962890625 185.956054688 59.7333984375 278.856445312 62.7197265625 374.203125 c 0
 65.70703125 469.549804688 104.91796875 560.174804688 172.37109375 627.627929688 c 0
 239.825195312 695.081054688 330.44921875 734.29296875 425.795898438 737.279296875 c 0
 521.143554688 740.265625 614.043945312 706.802734375 685.587890625 643.703125 c 0
 757.130859375 580.603515625 801.9375 492.610351562 810.880859375 397.637695312 c 0
 819.831054688 302.665039062 792.25 207.8515625 733.75 132.5 c 2
 923.75 -57.5 l 2
 928.356445312 -61.7939453125 932.049804688 -66.96875 934.612304688 -72.71875 c 0
 937.174804688 -78.46875 938.549804688 -84.6748046875 938.662109375 -90.96875 c 0
 938.775390625 -97.2626953125 937.612304688 -103.512695312 935.255859375 -109.349609375 c 0
 932.900390625 -115.1875 929.387695312 -120.487304688 924.9375 -124.9375 c 0
 920.487304688 -129.393554688 915.1875 -132.900390625 909.349609375 -135.255859375 c 0
 903.512695312 -137.612304688 897.262695312 -138.775390625 890.96875 -138.662109375 c 0
 884.674804688 -138.549804688 878.462890625 -137.174804688 872.71875 -134.612304688 c 0
 866.96875 -132.049804688 861.793945312 -128.356445312 857.5 -123.75 c 2
 667.5 66.25 l 2
EndSplineSet
EndChar

StartChar: uniF02F
Encoding: 61487 61487 31
Width: 1000
Flags: H
LayerCount: 2
Fore
SplineSet
464.299804688 704.706054688 m 0
 462.081054688 704.512695312 457.541992188 702.407226562 455.752929688 695.56640625 c 2
 437.684570312 626.484375 l 2
 428.522460938 591.451171875 403.36328125 566.075195312 375.357421875 552.203125 c 0
 364.512695312 546.83203125 354.059570312 540.778320312 344.0546875 534.09765625 c 0
 318.015625 516.7109375 283.42578125 507.6015625 248.485351562 517.188476562 c 2
 179.548828125 536.103515625 l 2
 172.7421875 537.970703125 168.641601562 535.10546875 167.35546875 533.276367188 c 0
 153.700195312 513.844726562 141.7109375 493.172851562 131.58984375 471.465820312 c 0
 130.66015625 469.474609375 130.205078125 464.50390625 135.235351562 459.534179688 c 2
 186.166015625 409.209960938 l 2
 211.885742188 383.795898438 221.3125 349.3671875 219.327148438 318.173828125 c 0
 218.946289062 312.170898438 218.751953125 306.111328125 218.751953125 300 c 0
 218.751953125 293.888671875 218.946289062 287.829101562 219.327148438 281.826171875 c 0
 221.3125 250.6328125 211.885742188 216.204101562 186.166015625 190.790039062 c 2
 135.235351562 140.46875 l 2
 130.205078125 135.494140625 130.66015625 130.525390625 131.58984375 128.53125 c 0
 141.7109375 106.825195312 153.700195312 86.15625 167.35546875 66.724609375 c 0
 168.641601562 64.8935546875 172.7421875 62.03125 179.548828125 63.8935546875 c 2
 248.485351562 82.8125 l 2
 283.42578125 92.400390625 318.015625 83.287109375 344.0546875 65.900390625 c 0
 354.059570312 59.21875 364.512695312 53.1689453125 375.357421875 47.7939453125 c 0
 403.364257812 33.9248046875 428.522460938 8.5498046875 437.684570312 -26.4814453125 c 2
 455.752929688 -95.568359375 l 2
 457.541992188 -102.40625 462.081054688 -104.512695312 464.299804688 -104.706054688 c 0
 476.052734375 -105.724609375 487.959960938 -106.25 500 -106.25 c 0
 512.040039062 -106.25 523.947265625 -105.724609375 535.700195312 -104.706054688 c 0
 537.91796875 -104.512695312 542.45703125 -102.40625 544.247070312 -95.568359375 c 2
 562.313476562 -26.4873046875 l 2
 571.4765625 8.5498046875 596.635742188 33.9248046875 624.643554688 47.7939453125 c 0
 635.487304688 53.1689453125 645.943359375 59.21875 655.950195312 65.900390625 c 0
 681.987304688 83.287109375 716.575195312 92.400390625 751.518554688 82.8125 c 2
 820.450195312 63.8935546875 l 2
 827.255859375 62.03125 831.356445312 64.8935546875 832.643554688 66.724609375 c 0
 846.299804688 86.15625 858.287109375 106.825195312 868.412109375 128.53125 c 0
 869.337890625 130.525390625 869.793945312 135.494140625 864.762695312 140.46875 c 2
 813.837890625 190.786132812 l 2
 788.119140625 216.200195312 778.693359375 250.629882812 780.674804688 281.82421875 c 0
 781.056640625 287.827148438 781.25 293.887695312 781.25 300 c 0
 781.25 306.112304688 781.056640625 312.172851562 780.674804688 318.17578125 c 0
 778.693359375 349.370117188 788.119140625 383.799804688 813.837890625 409.213867188 c 2
 864.762695312 459.534179688 l 2
 869.793945312 464.504882812 869.337890625 469.474609375 868.412109375 471.465820312 c 0
 858.287109375 493.172851562 846.299804688 513.844726562 832.643554688 533.276367188 c 0
 831.356445312 535.10546875 827.255859375 537.971679688 820.450195312 536.103515625 c 2
 751.518554688 517.189453125 l 2
 716.575195312 507.602539062 681.987304688 516.711914062 655.950195312 534.09765625 c 0
 645.943359375 540.779296875 635.487304688 546.833007812 624.643554688 552.204101562 c 0
 596.635742188 566.077148438 571.4765625 591.452148438 562.313476562 626.486328125 c 2
 544.247070312 695.56640625 l 2
 542.45703125 702.407226562 537.91796875 704.512695312 535.700195312 704.706054688 c 0
 523.947265625 705.727539062 512.040039062 706.25 500 706.25 c 0
 487.959960938 706.25 476.052734375 705.727539062 464.299804688 704.706054688 c 0
500 800 m 0
 514.75390625 800 529.369140625 799.359375 543.818359375 798.103515625 c 0
 590.2421875 794.068359375 624.380859375 759.684570312 634.943359375 719.2890625 c 2
 653.012695312 650.208007812 l 2
 654.106445312 646.034179688 657.943359375 640.329101562 666.255859375 636.21484375 c 0
 680.731445312 629.043945312 694.674804688 620.96875 708.005859375 612.065429688 c 0
 715.693359375 606.93359375 722.543945312 606.455078125 726.712890625 607.59765625 c 2
 795.643554688 626.51171875 l 2
 835.849609375 637.54296875 882.606445312 625.232421875 909.349609375 587.177734375 c 0
 926.143554688 563.27734375 940.90625 537.830078125 953.375 511.086914062 c 0
 973.0625 468.87109375 960.325195312 422.16015625 930.65625 392.846679688 c 2
 879.731445312 342.526367188 l 2
 876.65625 339.4921875 873.650390625 333.330078125 874.237304688 324.12890625 c 0
 874.744140625 316.14453125 875 308.099609375 875 300 c 0
 875 291.900390625 874.744140625 283.85546875 874.237304688 275.87109375 c 0
 873.650390625 266.669921875 876.65625 260.5078125 879.731445312 257.473632812 c 2
 930.65625 207.153320312 l 2
 960.325195312 177.83984375 973.0625 131.130859375 953.375 88.912109375 c 0
 940.90625 62.1689453125 926.143554688 36.724609375 909.349609375 12.818359375 c 0
 882.606445312 -25.2314453125 835.849609375 -37.5439453125 795.643554688 -26.5126953125 c 2
 726.712890625 -7.599609375 l 2
 722.543945312 -6.4560546875 715.693359375 -6.931640625 708.005859375 -12.0625 c 0
 694.674804688 -20.96875 680.731445312 -29.0439453125 666.255859375 -36.212890625 c 0
 657.943359375 -40.3310546875 654.106445312 -46.03125 653.012695312 -50.2060546875 c 2
 634.943359375 -119.287109375 l 2
 624.380859375 -159.6875 590.2421875 -194.068359375 543.818359375 -198.106445312 c 0
 529.369140625 -199.362304688 514.75390625 -200 500 -200 c 0
 485.24609375 -200 470.630859375 -199.362304688 456.180664062 -198.106445312 c 0
 409.756835938 -194.068359375 375.619140625 -159.6875 365.053710938 -119.287109375 c 2
 346.985351562 -50.2060546875 l 2
 345.89453125 -46.03125 342.0546875 -40.3251953125 333.74609375 -36.212890625 c 0
 319.26953125 -29.0439453125 305.329101562 -20.96875 291.995117188 -12.0625 c 0
 284.309570312 -6.931640625 277.458007812 -6.4560546875 273.291992188 -7.599609375 c 2
 204.35546875 -26.5126953125 l 2
 164.15234375 -37.5439453125 117.391601562 -25.2314453125 90.650390625 12.8251953125 c 0
 73.85546875 36.724609375 59.09375 62.1689453125 46.623046875 88.912109375 c 0
 26.9375 131.130859375 39.6767578125 177.840820312 69.3427734375 207.153320312 c 2
 120.272460938 257.4765625 l 2
 123.34375 260.51171875 126.352539062 266.672851562 125.766601562 275.874023438 c 0
 125.259765625 283.856445312 125.001953125 291.90234375 125.001953125 300 c 0
 125.001953125 308.09765625 125.259765625 316.143554688 125.766601562 324.125976562 c 0
 126.352539062 333.327148438 123.34375 339.48828125 120.272460938 342.5234375 c 2
 69.3427734375 392.846679688 l 2
 39.6767578125 422.159179688 26.9375 468.870117188 46.623046875 511.0859375 c 0
 59.09375 537.829101562 73.85546875 563.27734375 90.650390625 587.177734375 c 0
 117.391601562 625.231445312 164.15234375 637.54296875 204.35546875 626.51171875 c 2
 273.291992188 607.596679688 l 2
 277.458007812 606.454101562 284.30859375 606.932617188 291.995117188 612.064453125 c 0
 305.329101562 620.967773438 319.26953125 629.041992188 333.74609375 636.211914062 c 0
 342.0546875 640.327148438 345.89453125 646.032226562 346.985351562 650.206054688 c 2
 365.053710938 719.2890625 l 2
 375.619140625 759.684570312 409.756835938 794.067382812 456.180664062 798.103515625 c 0
 470.630859375 799.359375 485.24609375 800 500 800 c 0
593.75 300 m 0
 593.75 351.77734375 551.77734375 393.75 500 393.75 c 0
 448.22265625 393.75 406.25 351.77734375 406.25 300 c 0
 406.25 248.22265625 448.22265625 206.25 500 206.25 c 0
 551.77734375 206.25 593.75 248.22265625 593.75 300 c 0
687.5 300 m 0
 687.5 196.447265625 603.552734375 112.5 500 112.5 c 0
 396.447265625 112.5 312.5 196.447265625 312.5 300 c 0
 312.5 403.552734375 396.447265625 487.5 500 487.5 c 0
 603.552734375 487.5 687.5 403.552734375 687.5 300 c 0
EndSplineSet
EndChar

StartChar: uniF031
Encoding: 61489 61489 32
Width: 1000
Flags: H
LayerCount: 2
Fore
SplineSet
339.537109375 655.983398438 m 0
 339.416015625 655.909179688 339.275390625 655.81640625 339.1171875 655.706054688 c 0
 266.252929688 604.787109375 218.75 520.427734375 218.75 424.98046875 c 0
 218.75 325.12109375 270.759765625 237.375976562 349.389648438 187.405273438 c 0
 381.73828125 166.849609375 407.411132812 129.700195312 405.725585938 84.869140625 c 2
 405.706054688 84.34375 l 1
 395.509765625 -124.181640625 l 2
 394.24609375 -150.037109375 372.259765625 -169.974609375 346.40234375 -168.706054688 c 0
 320.544921875 -167.443359375 300.608398438 -145.456054688 301.872070312 -119.599609375 c 2
 312.046875 88.556640625 l 2
 312.172851562 93.818359375 308.958007812 102.018554688 299.106445312 108.28125 c 0
 194.548828125 174.724609375 125 291.715820312 125 424.98046875 c 0
 125 552.3359375 188.530273438 664.846679688 285.416015625 732.551757812 c 0
 319.739257812 756.537109375 359.971679688 754.227539062 389.984375 735.006835938 c 0
 418.849609375 716.520507812 437.5 683.314453125 437.5 646.0546875 c 2
 437.5 469.864257812 l 2
 437.5 464.688476562 440.064453125 459.846679688 444.346679688 456.938476562 c 2
 491.221679688 425.10546875 l 2
 496.520507812 421.505859375 503.479492188 421.505859375 508.778320312 425.10546875 c 2
 555.653320312 456.938476562 l 2
 559.935546875 459.846679688 562.5 464.6875 562.5 469.864257812 c 2
 562.5 646.0546875 l 2
 562.5 683.314453125 581.150390625 716.520507812 610.015625 735.006835938 c 0
 640.03125 754.227539062 680.262695312 756.537109375 714.581054688 732.551757812 c 0
 811.46875 664.846679688 875 552.3359375 875 424.98046875 c 0
 875 291.715820312 805.450195312 174.724609375 700.893554688 108.28125 c 0
 691.043945312 102.018554688 687.825195312 93.818359375 687.956054688 88.556640625 c 2
 698.125 -119.599609375 l 2
 699.393554688 -145.456054688 679.456054688 -167.443359375 653.599609375 -168.706054688 c 0
 627.737304688 -169.974609375 605.75390625 -150.037109375 604.490234375 -124.181640625 c 2
 594.271484375 84.869140625 l 2
 592.5859375 129.700195312 618.26171875 166.849609375 650.612304688 187.405273438 c 0
 729.244140625 237.375976562 781.25 325.12109375 781.25 424.98046875 c 0
 781.25 520.427734375 733.75 604.787109375 660.880859375 655.706054688 c 0
 660.724609375 655.81640625 660.587890625 655.909179688 660.462890625 655.983398438 c 0
 658.962890625 654.954101562 656.25 651.783203125 656.25 646.0546875 c 2
 656.25 469.864257812 l 2
 656.25 433.626953125 638.299804688 399.741210938 608.323242188 379.3828125 c 2
 561.448242188 347.548828125 l 2
 524.35546875 322.358398438 475.64453125 322.358398438 438.551757812 347.548828125 c 2
 391.676757812 379.3828125 l 2
 361.698242188 399.741210938 343.75 433.626953125 343.75 469.864257812 c 2
 343.75 646.0546875 l 2
 343.75 651.783203125 341.040039062 654.954101562 339.537109375 655.983398438 c 0
340.174804688 656.313476562 m 1
 340.206054688 656.322265625 340.174804688 656.3125 340.174804688 656.313476562 c 1
EndSplineSet
EndChar

StartChar: uniF014
Encoding: 61460 61460 33
Width: 1000
Flags: H
LayerCount: 2
Fore
SplineSet
531.25 737.5 m 1
 750 518.75 l 1
 750 -75 l 2
 750 -109.517578125 722.017578125 -137.5 687.5 -137.5 c 2
 62.5 -137.5 l 2
 27.982421875 -137.5 0 -109.517578125 0 -75 c 2
 0 675 l 2
 0 709.517578125 27.982421875 737.5 62.5 737.5 c 2
 531.25 737.5 l 1
62.5 675 m 1
 62.5 675 l 1
 62.5 88.75 l 1
 81.3291015625 104.982421875 102.374023438 118.451171875 125 128.75 c 0
 139.036132812 135.751953125 153.431640625 142.009765625 168.125 147.5 c 0
 175 158.75 193.75 200 225 262.5 c 0
 251.770507812 316.32421875 274.946289062 371.862304688 294.375 428.75 c 0
 283.967773438 465.544921875 276.856445312 503.193359375 273.125 541.25 c 0
 269.600585938 571.967773438 271.50390625 603.06640625 278.75 633.125 c 0
 281.061523438 643.947265625 285.998046875 654.03515625 293.125 662.5 c 0
 298.307617188 668.372070312 305.013671875 672.698242188 312.5 675 c 1
 62.5 675 l 1
338.75 375 m 2
 339.375 375.625 l 1
 339.375 375.625 l 1
 324.358398438 326.241210938 305.336914062 278.165039062 282.5 231.875 c 0
 258.125 181.25 207.682617188 138.53515625 244.375 153.75 c 0
 281.067382812 168.96484375 318.889648438 181.293945312 357.5 190.625 c 0
 393.75 198.75 430.625 205.625 470.625 211.25 c 1
 449.0390625 218.288085938 429.069335938 229.547851562 411.875 244.375 c 0
 378.444335938 282.190429688 353.509765625 326.732421875 338.75 375 c 2
687.5 -75 m 1
 686.875 -75 l 1
 686.875 -75 l 1
 686.875 115 l 1
 663.125 115 l 2
 637.14453125 117.64453125 611.430664062 122.453125 586.25 129.375 c 0
 556.39453125 137.901367188 527.328125 148.984375 499.375 162.5 c 0
 469.375 160 438.125 156.25 406.875 150 c 0
 375.625 143.75 345 137.5 316.875 129.375 c 2
 290.625 120.625 l 2
 276.25 115.625 259.375 109.375 240 101.25 c 0
 210.423828125 46.4716796875 172.9375 -3.6494140625 128.75 -47.5 c 0
 115.560546875 -59.6611328125 100.038085938 -69.0166015625 83.125 -75 c 1
 86.6552734375 -75.408203125 90.2197265625 -75.408203125 93.75 -75 c 2
 687.5 -75 l 1
687.5 228.75 m 1
 687.5 229.375 l 1
 687.5 229.375 l 1
 687.5 487.5 l 1
 500 675 l 1
 342.5 675 l 1
 356.6484375 675.682617188 370.44921875 670.479492188 380.625 660.625 c 0
 392.859375 645.108398438 397.451171875 624.905273438 393.125 605.625 c 0
 394.327148438 590.0234375 394.327148438 574.3515625 393.125 558.75 c 0
 391.737304688 516.852539062 387.561523438 475.092773438 380.625 433.75 c 0
 396.388671875 379.837890625 423.92578125 330.099609375 461.25 288.125 c 0
 479.2109375 270.760742188 500.459960938 257.161132812 523.75 248.125 c 0
 549.2578125 251.265625 574.924804688 252.935546875 600.625 253.125 c 0
 616.424804688 252.244140625 632.11328125 249.943359375 647.5 246.25 c 0
 661.350585938 241.677734375 674.7421875 235.818359375 687.5 228.75 c 1
EndSplineSet
EndChar

StartChar: uniF032
Encoding: 61490 61490 34
Width: 1000
Flags: H
LayerCount: 2
Fore
SplineSet
125 628.125 m 2
 125 688.53125 173.96875 737.5 234.375 737.5 c 2
 390.625 737.5 l 2
 416.512695312 737.5 437.5 716.512695312 437.5 690.625 c 0
 437.5 664.737304688 416.512695312 643.75 390.625 643.75 c 2
 234.375 643.75 l 2
 225.74609375 643.75 218.75 636.75390625 218.75 628.125 c 2
 218.75 -28.125 l 2
 218.75 -36.755859375 225.74609375 -43.75 234.375 -43.75 c 2
 390.625 -43.75 l 2
 416.512695312 -43.75 437.5 -64.7373046875 437.5 -90.625 c 0
 437.5 -116.512695312 416.512695312 -137.5 390.625 -137.5 c 2
 234.375 -137.5 l 2
 173.96875 -137.5 125 -88.53125 125 -28.125 c 2
 125 628.125 l 2
777.456054688 346.875 m 1
 654.356445312 469.979492188 l 2
 636.049804688 488.28515625 636.049804688 517.96484375 654.356445312 536.270507812 c 0
 672.662109375 554.576171875 702.337890625 554.576171875 720.643554688 536.270507812 c 2
 923.768554688 333.145507812 l 2
 942.075195312 314.83984375 942.075195312 285.16015625 923.768554688 266.854492188 c 2
 720.643554688 63.7314453125 l 2
 702.337890625 45.4248046875 672.662109375 45.4248046875 654.356445312 63.7314453125 c 0
 636.049804688 82.037109375 636.049804688 111.712890625 654.356445312 130.018554688 c 2
 777.456054688 253.125 l 1
 421.875976562 253.125 l 2
 395.98828125 253.125 375.000976562 274.111328125 375.000976562 300 c 0
 375.000976562 325.887695312 395.98828125 346.875 421.875976562 346.875 c 2
 777.456054688 346.875 l 1
EndSplineSet
EndChar

StartChar: uniF033
Encoding: 61491 61491 35
Width: 1000
Flags: H
LayerCount: 2
Fore
SplineSet
879 800 m 2
 890.625 800 l 2
 919.630859375 800 947.450195312 788.4765625 967.962890625 767.96484375 c 0
 988.474609375 747.453125 1000 719.6328125 1000 690.625 c 2
 1000 679 l 2
 999.962890625 533.974609375 942.318359375 394.903320312 839.75 292.375 c 2
 811.125 263.6875 l 2
 791.5 244.0625 771.0625 225.1875 749.9375 207.1875 c 2
 749.9375 6.75 l 2
 749.931640625 -11.9248046875 745.143554688 -30.287109375 736.03125 -46.59375 c 0
 726.918945312 -62.8935546875 713.78125 -76.587890625 697.875 -86.375 c 2
 524.499023438 -193.0625 l 2
 518.405273438 -196.8125 511.534179688 -199.119140625 504.41015625 -199.806640625 c 0
 497.287109375 -200.487304688 490.1015625 -199.537109375 483.405273438 -197.012695312 c 0
 476.708007812 -194.494140625 470.677734375 -190.46875 465.775390625 -185.255859375 c 0
 460.873046875 -180.043945312 457.23046875 -173.775390625 455.124023438 -166.9375 c 2
 395.499023438 26.9375 l 2
 392.311523438 29.25 389.311523438 31.875 386.436523438 34.75 c 2
 234.624023438 186.5 l 2
 231.811523438 189.3125 229.186523438 192.375 226.874023438 195.5625 c 2
 32.9990234375 255.1875 l 2
 26.16015625 257.29296875 19.8935546875 260.936523438 14.6806640625 265.838867188 c 0
 9.466796875 270.740234375 5.4453125 276.771484375 2.923828125 283.467773438 c 0
 0.4013671875 290.165039062 -0.5537109375 297.350585938 0.130859375 304.473632812 c 0
 0.81640625 311.596679688 3.123046875 318.46875 6.8740234375 324.5625 c 2
 113.749023438 497.9375 l 2
 123.53515625 513.844726562 137.231445312 526.98046875 153.533203125 536.09375 c 0
 169.834960938 545.20703125 188.198242188 549.994140625 206.874023438 550 c 2
 407.124023438 550 l 2
 425.124023438 571.125 443.999023438 591.5625 463.624023438 611.1875 c 2
 492.311523438 639.8125 l 2
 594.866210938 742.373046875 733.962890625 799.994140625 879 800 c 2
656.25 135.9375 m 1
 650.75 132.1875 645.1875 128.5625 639.625 125 c 2
 492.749023438 29.9375 l 1
 526.999023438 -81.5 l 1
 648.8125 -6.5 l 2
 651.087890625 -5.099609375 652.962890625 -3.1435546875 654.262695312 -0.8125 c 0
 655.568359375 1.5185546875 656.25 4.1435546875 656.25 6.8125 c 2
 656.25 135.9375 l 1
229.874023438 292.75 m 1
 324.999023438 439.625 l 2
 328.624023438 445.25 332.311523438 450.75 335.999023438 456.25 c 1
 206.811523438 456.25 l 2
 204.142578125 456.250976562 201.516601562 455.567382812 199.186523438 454.265625 c 0
 196.856445312 452.963867188 194.8984375 451.0859375 193.499023438 448.8125 c 2
 118.499023438 326.9375 l 1
 229.874023438 292.75 l 1
558.624023438 573.5625 m 2
 558.499023438 573.5625 l 1
 529.874023438 544.9375 l 2
 482.404296875 497.447265625 440.0859375 445.072265625 403.624023438 388.6875 c 2
 309.874023438 243.875 l 1
 443.811523438 109.9375 l 1
 588.624023438 203.6875 l 2
 645 240.125 697.3125 282.4375 744.8125 329.9375 c 2
 773.5 358.5625 l 2
 815.575195312 400.64453125 848.950195312 450.603515625 871.712890625 505.583984375 c 0
 894.481445312 560.565429688 906.193359375 619.4921875 906.1875 679 c 2
 906.1875 690.625 l 2
 906.1875 694.768554688 904.543945312 698.743164062 901.612304688 701.673828125 c 0
 898.681640625 704.603515625 894.706054688 706.25 890.5625 706.25 c 2
 878.9375 706.25 l 2
 758.799804688 706.232421875 643.581054688 658.505859375 558.624023438 573.5625 c 2
750 487.5 m 0
 750 470.923828125 743.412109375 455.02734375 731.693359375 443.305664062 c 0
 719.974609375 431.584960938 704.075195312 425 687.5 425 c 0
 670.924804688 425 655.025390625 431.584960938 643.306640625 443.305664062 c 0
 631.581054688 455.02734375 624.999023438 470.923828125 624.999023438 487.5 c 0
 624.999023438 504.076171875 631.581054688 519.97265625 643.306640625 531.694335938 c 0
 655.025390625 543.415039062 670.924804688 550 687.5 550 c 0
 704.075195312 550 719.974609375 543.415039062 731.693359375 531.694335938 c 0
 743.412109375 519.97265625 750 504.076171875 750 487.5 c 0
222.499023438 -110 m 0
 176.749023438 -155.75 76.6240234375 -175.3125 34.6865234375 -181.75 c 0
 32.4267578125 -182.130859375 30.107421875 -181.962890625 27.9248046875 -181.268554688 c 0
 25.7412109375 -180.568359375 23.755859375 -179.362304688 22.134765625 -177.737304688 c 0
 20.5146484375 -176.119140625 19.3046875 -174.130859375 18.6064453125 -171.950195312 c 0
 17.9091796875 -169.768554688 17.744140625 -167.450195312 18.1240234375 -165.1875 c 0
 24.5615234375 -123.25 44.1240234375 -23.125 89.9990234375 22.5 c 0
 98.58203125 31.712890625 108.932617188 39.099609375 120.431640625 44.224609375 c 0
 131.931640625 49.34375 144.346679688 52.099609375 156.934570312 52.3251953125 c 0
 169.521484375 52.5439453125 182.025390625 50.2314453125 193.69921875 45.5126953125 c 0
 205.372070312 40.7998046875 215.9765625 33.78125 224.87890625 24.880859375 c 0
 233.78125 15.974609375 240.799804688 5.375 245.514648438 -6.2998046875 c 0
 250.23046875 -17.974609375 252.545898438 -30.474609375 252.323242188 -43.0625 c 0
 252.1015625 -55.65625 249.346679688 -68.068359375 244.221679688 -79.568359375 c 0
 239.09765625 -91.068359375 231.709960938 -101.418945312 222.499023438 -110 c 0
EndSplineSet
EndChar

StartChar: uniF034
Encoding: 61492 61492 36
Width: 1000
Flags: H
LayerCount: 2
Fore
SplineSet
125.1015625 629.67578125 m 0
 126.80078125 655.508789062 149.12109375 675.071289062 174.954101562 673.37109375 c 0
 549.393554688 648.725585938 848.712890625 349.403320312 873.362304688 -25.037109375 c 0
 875.0625 -50.869140625 855.5 -73.1875 829.668945312 -74.8876953125 c 0
 803.831054688 -76.587890625 781.512695312 -57.025390625 779.8125 -31.193359375 c 0
 758.255859375 296.3203125 496.310546875 558.266601562 168.795898438 579.82421875 c 0
 142.963867188 581.5234375 123.400390625 603.84375 125.1015625 629.67578125 c 0
125 -12.4873046875 m 0
 125 22.03125 152.982421875 50.0126953125 187.5 50.0126953125 c 0
 222.017578125 50.0126953125 250 22.03125 250 -12.4873046875 c 0
 250 -47 222.017578125 -74.9873046875 187.5 -74.9873046875 c 0
 152.982421875 -74.9873046875 125 -47 125 -12.4873046875 c 0
177.44140625 359.40234375 m 0
 377.186523438 335.513671875 535.497070312 177.203125 559.385742188 -22.5439453125 c 0
 562.458984375 -48.244140625 544.11328125 -71.5751953125 518.408203125 -74.650390625 c 0
 492.703125 -77.724609375 469.373046875 -59.380859375 466.298828125 -33.6748046875 c 0
 447.547851562 123.112304688 323.099609375 247.564453125 166.309570312 266.315429688 c 0
 140.604492188 269.389648438 122.2578125 292.719726562 125.33203125 318.424804688 c 0
 128.407226562 344.129882812 151.737304688 362.4765625 177.44140625 359.40234375 c 0
EndSplineSet
EndChar

StartChar: uniF035
Encoding: 61493 61493 37
Width: 1000
Flags: H
LayerCount: 2
Fore
SplineSet
359.375 737.5 m 2
 640.625 737.5 l 2
 666.512695312 737.5 687.5 716.512695312 687.5 690.625 c 2
 687.5 503.125 l 2
 687.5 477.237304688 666.512695312 456.25 640.625 456.25 c 2
 359.375 456.25 l 2
 333.487304688 456.25 312.5 477.237304688 312.5 503.125 c 2
 312.5 690.625 l 2
 312.5 716.512695312 333.487304688 737.5 359.375 737.5 c 2
406.25 550 m 1
 593.75 550 l 1
 593.75 643.75 l 1
 406.25 643.75 l 1
 406.25 550 l 1
226.596679688 579.1875 m 0
 221.803710938 576.416015625 218.75 571.348632812 218.75 565.624023438 c 2
 218.75 -28.125 l 2
 218.75 -36.755859375 225.74609375 -43.75 234.375 -43.75 c 2
 765.625 -43.75 l 2
 774.255859375 -43.75 781.25 -36.755859375 781.25 -28.125 c 2
 781.25 565.624023438 l 2
 781.25 571.348632812 778.193359375 576.416015625 773.40625 579.1875 c 0
 750.994140625 592.150390625 743.337890625 620.825195312 756.299804688 643.234375 c 0
 769.262695312 665.643554688 797.9375 673.30078125 820.34375 660.337890625 c 0
 852.918945312 641.497070312 875 606.16796875 875 565.624023438 c 2
 875 -28.125 l 2
 875 -88.53125 826.03125 -137.5 765.625 -137.5 c 2
 234.375 -137.5 l 2
 173.96875 -137.5 125 -88.53125 125 -28.125 c 2
 125 565.624023438 l 2
 125 606.16796875 147.083984375 641.497070312 179.653320312 660.337890625 c 0
 202.0625 673.30078125 230.737304688 665.643554688 243.700195312 643.234375 c 0
 256.663085938 620.825195312 249.005859375 592.150390625 226.596679688 579.1875 c 0
EndSplineSet
EndChar

StartChar: uniF036
Encoding: 61494 61494 38
Width: 1000
Flags: H
LayerCount: 2
Fore
SplineSet
125 628.125 m 2
 125 688.53125 173.96875 737.5 234.375 737.5 c 2
 390.625 737.5 l 2
 416.512695312 737.5 437.5 716.512695312 437.5 690.625 c 0
 437.5 664.737304688 416.512695312 643.75 390.625 643.75 c 2
 234.375 643.75 l 2
 225.74609375 643.75 218.75 636.75390625 218.75 628.125 c 2
 218.75 -28.125 l 2
 218.75 -36.755859375 225.74609375 -43.75 234.375 -43.75 c 2
 390.625 -43.75 l 2
 416.512695312 -43.75 437.5 -64.7373046875 437.5 -90.625 c 0
 437.5 -116.512695312 416.512695312 -137.5 390.625 -137.5 c 2
 234.375 -137.5 l 2
 173.96875 -137.5 125 -88.53125 125 -28.125 c 2
 125 628.125 l 2
535.041015625 346.875 m 1
 890.625 346.875 l 2
 916.512695312 346.875 937.5 325.888671875 937.5 300 c 0
 937.5 274.112304688 916.512695312 253.125 890.625 253.125 c 2
 535.041015625 253.125 l 1
 658.143554688 130.018554688 l 2
 676.450195312 111.712890625 676.450195312 82.037109375 658.143554688 63.7314453125 c 0
 639.837890625 45.4248046875 610.16015625 45.4248046875 591.854492188 63.7314453125 c 2
 388.729492188 266.854492188 l 2
 370.423828125 285.16015625 370.423828125 314.83984375 388.729492188 333.145507812 c 2
 591.854492188 536.270507812 l 2
 610.16015625 554.576171875 639.837890625 554.576171875 658.143554688 536.270507812 c 0
 676.450195312 517.96484375 676.450195312 488.28515625 658.143554688 469.979492188 c 2
 535.041015625 346.875 l 1
EndSplineSet
EndChar

StartChar: uniF037
Encoding: 61495 61495 39
Width: 1000
Flags: H
LayerCount: 2
Fore
SplineSet
93.75 -90.625 m 2
 93.75 -99.255859375 100.74609375 -106.25 109.375 -106.25 c 2
 250 -106.25 l 1
 250 -28.125 l 2
 250 -2.2373046875 270.987304688 18.75 296.875 18.75 c 2
 453.125 18.75 l 2
 479.012695312 18.75 500 -2.2373046875 500 -28.125 c 2
 500 -106.25 l 1
 640.625 -106.25 l 2
 649.255859375 -106.25 656.25 -99.255859375 656.25 -90.625 c 2
 656.25 690.625 l 2
 656.25 699.25390625 649.255859375 706.25 640.625 706.25 c 2
 109.375 706.25 l 2
 100.74609375 706.25 93.75 699.25390625 93.75 690.625 c 2
 93.75 -90.625 l 2
109.375 -200 m 2
 48.96875 -200 0 -151.03125 0 -90.625 c 2
 0 690.625 l 2
 0 751.03125 48.96875 800 109.375 800 c 2
 640.625 800 l 2
 701.03125 800 750 751.03125 750 690.625 c 2
 750 -90.625 l 2
 750 -95.931640625 749.625 -101.150390625 748.893554688 -106.255859375 c 1
 890.625 -106.255859375 l 2
 899.255859375 -106.255859375 906.25 -99.2626953125 906.25 -90.630859375 c 2
 906.25 282.170898438 l 2
 906.25 287.39453125 903.637695312 292.2734375 899.293945312 295.171875 c 2
 833.375 339.1171875 l 2
 811.831054688 353.478515625 806.012695312 382.581054688 820.375 404.122070312 c 0
 834.731445312 425.662109375 863.837890625 431.482421875 885.375 417.122070312 c 2
 951.293945312 373.17578125 l 2
 981.724609375 352.891601562 1000 318.740234375 1000 282.170898438 c 2
 1000 -90.630859375 l 2
 1000 -151.037109375 951.03125 -200.005859375 890.625 -200.005859375 c 2
 671.875 -200.005859375 l 2
 667.612304688 -200.005859375 663.481445312 -199.4375 659.549804688 -198.369140625 c 0
 653.40625 -199.443359375 647.081054688 -200 640.625 -200 c 2
 453.125 -200 l 2
 427.237304688 -200 406.25 -179.012695312 406.25 -153.125 c 2
 406.25 -75 l 1
 343.75 -75 l 1
 343.75 -153.125 l 2
 343.75 -179.012695312 322.762695312 -200 296.875 -200 c 2
 109.375 -200 l 2
187.5 565.625 m 0
 187.5 591.512695312 208.487304688 612.5 234.375 612.5 c 2
 265.625 612.5 l 2
 291.512695312 612.5 312.5 591.512695312 312.5 565.625 c 0
 312.5 539.737304688 291.512695312 518.75 265.625 518.75 c 2
 234.375 518.75 l 2
 208.487304688 518.75 187.5 539.737304688 187.5 565.625 c 0
234.375 425 m 2
 265.625 425 l 2
 291.512695312 425 312.5 404.012695312 312.5 378.125 c 0
 312.5 352.237304688 291.512695312 331.25 265.625 331.25 c 2
 234.375 331.25 l 2
 208.487304688 331.25 187.5 352.237304688 187.5 378.125 c 0
 187.5 404.012695312 208.487304688 425 234.375 425 c 2
187.5 190.625 m 0
 187.5 216.512695312 208.487304688 237.5 234.375 237.5 c 2
 265.625 237.5 l 2
 291.512695312 237.5 312.5 216.512695312 312.5 190.625 c 0
 312.5 164.737304688 291.512695312 143.75 265.625 143.75 c 2
 234.375 143.75 l 2
 208.487304688 143.75 187.5 164.737304688 187.5 190.625 c 0
484.375 237.5 m 2
 515.625 237.5 l 2
 541.512695312 237.5 562.5 216.512695312 562.5 190.625 c 0
 562.5 164.737304688 541.512695312 143.75 515.625 143.75 c 2
 484.375 143.75 l 2
 458.487304688 143.75 437.5 164.737304688 437.5 190.625 c 0
 437.5 216.512695312 458.487304688 237.5 484.375 237.5 c 2
437.5 378.125 m 0
 437.5 404.012695312 458.487304688 425 484.375 425 c 2
 515.625 425 l 2
 541.512695312 425 562.5 404.012695312 562.5 378.125 c 0
 562.5 352.237304688 541.512695312 331.25 515.625 331.25 c 2
 484.375 331.25 l 2
 458.487304688 331.25 437.5 352.237304688 437.5 378.125 c 0
484.375 612.5 m 2
 515.625 612.5 l 2
 541.512695312 612.5 562.5 591.512695312 562.5 565.625 c 0
 562.5 539.737304688 541.512695312 518.75 515.625 518.75 c 2
 484.375 518.75 l 2
 458.487304688 518.75 437.5 539.737304688 437.5 565.625 c 0
 437.5 591.512695312 458.487304688 612.5 484.375 612.5 c 2
EndSplineSet
EndChar

StartChar: uniF038
Encoding: 61496 61496 40
Width: 1000
Flags: H
LayerCount: 2
Fore
SplineSet
234.375 800 m 2
 765.625 800 l 2
 826.03125 800 875 751.03125 875 690.625 c 2
 875 -90.625 l 2
 875 -151.03125 826.03125 -200 765.625 -200 c 2
 234.375 -200 l 2
 173.96875 -200 125 -151.03125 125 -90.625 c 2
 125 690.625 l 2
 125 751.03125 173.96875 800 234.375 800 c 2
218.75 690.625 m 2
 218.75 -90.625 l 2
 218.75 -99.255859375 225.74609375 -106.25 234.375 -106.25 c 2
 765.625 -106.25 l 2
 774.255859375 -106.25 781.25 -99.255859375 781.25 -90.625 c 2
 781.25 690.625 l 2
 781.25 699.25390625 774.255859375 706.25 765.625 706.25 c 2
 234.375 706.25 l 2
 225.74609375 706.25 218.75 699.25390625 218.75 690.625 c 2
500 -12.5 m 0
 465.482421875 -12.5 437.5 15.4814453125 437.5 50 c 0
 437.5 84.5185546875 465.482421875 112.5 500 112.5 c 0
 534.517578125 112.5 562.5 84.5185546875 562.5 50 c 0
 562.5 15.4814453125 534.517578125 -12.5 500 -12.5 c 0
EndSplineSet
EndChar

StartChar: uniF039
Encoding: 61497 61497 41
Width: 1000
Flags: H
LayerCount: 2
Fore
SplineSet
511.047851562 788.950195312 m 2
 692.075195312 607.921875 l 2
 701.918945312 598.079101562 694.950195312 581.249023438 681.025390625 581.249023438 c 2
 546.875 581.249023438 l 1
 546.875 471.875 l 2
 546.875 445.987304688 525.887695312 425 500 425 c 0
 474.112304688 425 453.125 445.987304688 453.125 471.875 c 2
 453.125 581.249023438 l 1
 318.971679688 581.249023438 l 2
 305.05078125 581.249023438 298.080078125 598.079101562 307.922851562 607.921875 c 2
 488.951171875 788.950195312 l 2
 495.052734375 795.051757812 504.946289062 795.051757812 511.047851562 788.950195312 c 2
546.875 159.375 m 2
 546.875 50 l 1
 681.03125 50 l 2
 694.950195312 50 701.918945312 33.1689453125 692.075195312 23.3251953125 c 2
 511.048828125 -157.700195312 l 2
 504.947265625 -163.799804688 495.053710938 -163.799804688 488.952148438 -157.700195312 c 2
 307.923828125 23.3251953125 l 2
 298.081054688 33.1689453125 305.051757812 50 318.97265625 50 c 2
 453.125 50 l 1
 453.125 159.375 l 2
 453.125 185.262695312 474.112304688 206.25 500 206.25 c 0
 525.887695312 206.25 546.875 185.262695312 546.875 159.375 c 2
171.875 362.5 m 2
 828.125 362.5 l 2
 854.012695312 362.5 875 341.512695312 875 315.625 c 0
 875 289.737304688 854.012695312 268.75 828.125 268.75 c 2
 171.875 268.75 l 2
 145.987304688 268.75 125 289.737304688 125 315.625 c 0
 125 341.512695312 145.987304688 362.5 171.875 362.5 c 2
EndSplineSet
EndChar

StartChar: uniF03A
Encoding: 61498 61498 42
Width: 1000
Flags: H
LayerCount: 2
Fore
SplineSet
861.25 536.25 m 0
 870.025390625 527.4609375 874.956054688 515.546875 874.956054688 503.125 c 0
 874.956054688 490.703125 870.025390625 478.7890625 861.25 470 c 2
 408.125 16.875 l 2
 399.3359375 8.099609375 387.421875 3.1689453125 375 3.1689453125 c 0
 362.578125 3.1689453125 350.6640625 8.099609375 341.875 16.875 c 2
 138.75 220 l 2
 130.469726562 228.88671875 125.962890625 240.638671875 126.17578125 252.783203125 c 0
 126.390625 264.926757812 131.309570312 276.512695312 139.8984375 285.1015625 c 0
 148.487304688 293.690429688 160.07421875 298.609375 172.217773438 298.82421875 c 0
 184.361328125 299.038085938 196.11328125 294.530273438 205 286.25 c 2
 375 116.25 l 1
 795 536.25 l 2
 803.787109375 545.028320312 815.700195312 549.958984375 828.125 549.958984375 c 0
 840.543945312 549.958984375 852.462890625 545.028320312 861.25 536.25 c 0
EndSplineSet
EndChar

StartChar: uniF03B
Encoding: 61499 61499 43
Width: 1000
Flags: H
LayerCount: 2
Fore
SplineSet
109.375 675 m 2
 890.625 675 l 2
 951.03125 675 1000 626.03125 1000 565.625 c 2
 1000 519.62890625 l 2
 1000.01269531 519.072265625 1000.01269531 518.514648438 1000 517.958984375 c 2
 1000 34.375 l 2
 1000 -26.03125 951.03125 -75 890.625 -75 c 2
 109.375 -75 l 2
 48.96875 -75 0 -26.03125 0 34.375 c 2
 0 517.94921875 l 2
 -0.009765625 518.51171875 -0.009765625 519.075195312 0 519.639648438 c 2
 0 565.625 l 2
 0 626.03125 48.96875 675 109.375 675 c 2
906.25 545.606445312 m 1
 906.25 565.625 l 2
 906.25 574.25390625 899.255859375 581.25 890.625 581.25 c 2
 109.375 581.25 l 2
 100.74609375 581.25 93.75 574.25390625 93.75 565.625 c 2
 93.75 545.606445312 l 1
 500 307.4609375 l 1
 906.25 545.606445312 l 1
93.75 436.936523438 m 1
 93.75 34.375 l 2
 93.75 25.744140625 100.74609375 18.75 109.375 18.75 c 2
 890.625 18.75 l 2
 899.255859375 18.75 906.25 25.744140625 906.25 34.375 c 2
 906.25 436.936523438 l 1
 523.706054688 212.686523438 l 2
 509.06640625 204.10546875 490.93359375 204.10546875 476.293945312 212.686523438 c 2
 93.75 436.936523438 l 1
EndSplineSet
EndChar

StartChar: uniF03D
Encoding: 61501 61501 44
Width: 1000
Flags: H
LayerCount: 2
Fore
SplineSet
216.854492188 313.729492188 m 0
 198.548828125 332.03515625 198.548828125 361.71484375 216.854492188 380.020507812 c 2
 482.479492188 645.645507812 l 2
 500.78515625 663.951171875 530.46484375 663.951171875 548.770507812 645.645507812 c 2
 814.393554688 380.020507812 l 2
 832.700195312 361.71484375 832.700195312 332.03515625 814.393554688 313.729492188 c 0
 796.087890625 295.423828125 766.412109375 295.423828125 748.106445312 313.729492188 c 2
 562.5 499.333984375 l 1
 562.5 34.375 l 2
 562.5 8.4873046875 541.512695312 -12.5 515.625 -12.5 c 0
 489.737304688 -12.5 468.75 8.4873046875 468.75 34.375 c 2
 468.75 499.333984375 l 1
 283.145507812 313.729492188 l 2
 264.83984375 295.423828125 235.16015625 295.423828125 216.854492188 313.729492188 c 0
EndSplineSet
EndChar

StartChar: uniF03E
Encoding: 61502 61502 45
Width: 1000
Flags: H
LayerCount: 2
Fore
SplineSet
513.729492188 614.395507812 m 0
 532.03515625 632.701171875 561.71484375 632.701171875 580.020507812 614.395507812 c 2
 845.643554688 348.770507812 l 2
 863.950195312 330.46484375 863.950195312 300.78515625 845.643554688 282.479492188 c 2
 580.020507812 16.8564453125 l 2
 561.71484375 -1.4501953125 532.03515625 -1.4501953125 513.729492188 16.8564453125 c 0
 495.423828125 35.162109375 495.423828125 64.837890625 513.729492188 83.1435546875 c 2
 699.331054688 268.75 l 1
 234.375 268.75 l 2
 208.487304688 268.75 187.5 289.737304688 187.5 315.625 c 0
 187.5 341.512695312 208.487304688 362.5 234.375 362.5 c 2
 699.331054688 362.5 l 1
 513.729492188 548.104492188 l 2
 495.423828125 566.41015625 495.423828125 596.08984375 513.729492188 614.395507812 c 0
EndSplineSet
EndChar

StartChar: uniF03F
Encoding: 61503 61503 46
Width: 1000
Flags: H
LayerCount: 2
Fore
SplineSet
814.393554688 286.270507812 m 0
 832.700195312 267.96484375 832.700195312 238.28515625 814.393554688 219.979492188 c 2
 548.770507812 -45.6435546875 l 2
 530.46484375 -63.9501953125 500.78515625 -63.9501953125 482.479492188 -45.6435546875 c 2
 216.854492188 219.979492188 l 2
 198.548828125 238.28515625 198.548828125 267.96484375 216.854492188 286.270507812 c 0
 235.16015625 304.576171875 264.83984375 304.576171875 283.145507812 286.270507812 c 2
 468.75 100.668945312 l 1
 468.75 565.625 l 2
 468.75 591.512695312 489.737304688 612.5 515.625 612.5 c 0
 541.512695312 612.5 562.5 591.512695312 562.5 565.625 c 2
 562.5 100.668945312 l 1
 748.106445312 286.270507812 l 2
 766.412109375 304.576171875 796.087890625 304.576171875 814.393554688 286.270507812 c 0
EndSplineSet
EndChar

StartChar: uniF040
Encoding: 61504 61504 47
Width: 1000
Flags: H
LayerCount: 2
Fore
SplineSet
486.270507812 16.8564453125 m 0
 467.96484375 -1.4501953125 438.28515625 -1.4501953125 419.979492188 16.8564453125 c 2
 154.354492188 282.479492188 l 2
 136.048828125 300.78515625 136.048828125 330.46484375 154.354492188 348.770507812 c 2
 419.979492188 614.395507812 l 2
 438.28515625 632.701171875 467.96484375 632.701171875 486.270507812 614.395507812 c 0
 504.576171875 596.08984375 504.576171875 566.41015625 486.270507812 548.104492188 c 2
 300.666015625 362.5 l 1
 765.625 362.5 l 2
 791.512695312 362.5 812.5 341.512695312 812.5 315.625 c 0
 812.5 289.737304688 791.512695312 268.75 765.625 268.75 c 2
 300.666015625 268.75 l 1
 486.270507812 83.1435546875 l 2
 504.576171875 64.837890625 504.576171875 35.162109375 486.270507812 16.8564453125 c 0
EndSplineSet
EndChar

StartChar: uniF041
Encoding: 61505 61505 48
Width: 1000
Flags: H
LayerCount: 2
Fore
SplineSet
278.474609375 754.140625 m 2
 332.284179688 807.94921875 423.232421875 791.728515625 455.122070312 722.634765625 c 2
 493.4140625 639.669921875 l 2
 502.934570312 619.041992188 516.030273438 600.26171875 532.094726562 584.196289062 c 0
 557.295898438 558.995117188 588.99609375 541.28125 623.666992188 533.026367188 c 2
 777.049804688 496.505859375 l 2
 860.293945312 476.6875 889.5625 373.26953125 829.056640625 312.765625 c 2
 691.293945312 175 l 1
 923.768554688 -57.4814453125 l 2
 942.075195312 -75.787109375 942.075195312 -105.462890625 923.768554688 -123.768554688 c 0
 905.462890625 -142.075195312 875.787109375 -142.075195312 857.481445312 -123.768554688 c 2
 625 108.706054688 l 1
 487.235351562 -29.056640625 l 2
 426.73046875 -89.5625 323.313476562 -60.2939453125 303.494140625 22.9501953125 c 2
 266.973632812 176.333984375 l 2
 258.71875 211.00390625 241.004882812 242.704101562 215.803710938 267.905273438 c 0
 199.73828125 283.969726562 180.958007812 297.065429688 160.329101562 306.5859375 c 2
 77.365234375 344.877929688 l 2
 8.271484375 376.767578125 -7.94921875 467.715820312 45.859375 521.525390625 c 2
 278.474609375 754.140625 l 2
370.000976562 683.34765625 m 2
 365.4453125 693.21875 352.452148438 695.536132812 344.765625 687.848632812 c 2
 112.151367188 455.234375 l 2
 104.463867188 447.547851562 106.78125 434.5546875 116.65234375 429.999023438 c 2
 199.616210938 391.70703125 l 2
 230.286132812 377.551757812 258.209960938 358.081054688 282.095703125 334.196289062 c 0
 319.564453125 296.7265625 345.900390625 249.596679688 358.174804688 198.047851562 c 2
 394.6953125 44.662109375 l 2
 397.526367188 32.7685546875 412.299804688 28.587890625 420.943359375 37.2314453125 c 2
 762.768554688 379.056640625 l 2
 771.412109375 387.700195312 767.231445312 402.474609375 755.337890625 405.305664062 c 2
 601.952148438 441.825195312 l 2
 550.404296875 454.099609375 503.272460938 480.436523438 465.803710938 517.905273438 c 0
 441.91796875 541.791015625 422.448242188 569.713867188 408.29296875 600.3828125 c 2
 370.000976562 683.34765625 l 2
EndSplineSet
EndChar

StartChar: uniF042
Encoding: 61506 61506 49
Width: 1000
Flags: H
LayerCount: 2
Fore
SplineSet
296.875 706.25 m 0
 253.727539062 706.25 218.75 671.272460938 218.75 628.125 c 0
 218.75 584.977539062 253.727539062 550 296.875 550 c 2
 441.170898438 550 l 1
 426.612304688 601.09765625 407.2890625 637.567382812 386.28515625 662.072265625 c 0
 359.407226562 693.4296875 329.131835938 706.25 296.875 706.25 c 0
125 628.125 m 0
 125 723.048828125 201.951171875 800 296.875 800 c 0
 358.368164062 800 414.030273438 773.758789062 457.46484375 723.083984375 c 0
 473.453125 704.431640625 487.641601562 682.672851562 500 657.934570312 c 1
 512.358398438 682.672851562 526.546875 704.431640625 542.53515625 723.083984375 c 0
 585.969726562 773.758789062 641.630859375 800 703.125 800 c 0
 798.049804688 800 875 723.048828125 875 628.125 c 0
 875 599.993164062 868.244140625 573.439453125 856.255859375 550 c 1
 890.625 550 l 2
 951.03125 550 1000 501.03125 1000 440.625 c 2
 1000 315.625 l 2
 1000 271.994140625 974.450195312 234.329101562 937.5 216.775390625 c 2
 937.5 -90.625 l 2
 937.5 -151.03125 888.53125 -200 828.125 -200 c 2
 171.875 -200 l 2
 111.46875 -200 62.5 -151.03125 62.5 -90.625 c 2
 62.5 216.775390625 l 2
 25.5478515625 234.329101562 0 271.994140625 0 315.625 c 2
 0 440.625 l 2
 0 501.03125 48.96875 550 109.375 550 c 2
 143.740234375 550 l 1
 131.758789062 573.439453125 125 599.993164062 125 628.125 c 0
558.829101562 550 m 1
 703.125 550 l 2
 746.275390625 550 781.25 584.977539062 781.25 628.125 c 0
 781.25 671.272460938 746.275390625 706.25 703.125 706.25 c 0
 670.869140625 706.25 640.59375 693.4296875 613.71484375 662.072265625 c 0
 592.7109375 637.567382812 573.387695312 601.09765625 558.829101562 550 c 1
443.833984375 456.25 m 1
 296.875 456.25 l 1
 109.375 456.25 l 2
 100.74609375 456.25 93.75 449.25390625 93.75 440.625 c 2
 93.75 315.625 l 2
 93.75 306.99609375 100.74609375 300 109.375 300 c 2
 453.125 300 l 1
 453.125 456.25 l 1
 443.833984375 456.25 l 1
546.875 456.25 m 1
 546.875 300 l 1
 890.625 300 l 2
 899.255859375 300 906.25 306.99609375 906.25 315.625 c 2
 906.25 440.625 l 2
 906.25 449.25390625 899.255859375 456.25 890.625 456.25 c 2
 703.125 456.25 l 1
 556.166015625 456.25 l 1
 546.875 456.25 l 1
546.875 206.25 m 1
 546.875 -106.25 l 1
 828.125 -106.25 l 2
 836.755859375 -106.25 843.75 -99.255859375 843.75 -90.625 c 2
 843.75 206.25 l 1
 546.875 206.25 l 1
453.125 206.25 m 1
 156.25 206.25 l 1
 156.25 -90.625 l 2
 156.25 -99.255859375 163.24609375 -106.25 171.875 -106.25 c 2
 453.125 -106.25 l 1
 453.125 206.25 l 1
EndSplineSet
EndChar

StartChar: uniF043
Encoding: 61507 61507 50
Width: 1000
Flags: H
LayerCount: 2
Fore
SplineSet
93.75 690.625 m 2
 93.75 -43.75 l 1
 953.125 -43.75 l 2
 979.012695312 -43.75 1000 -64.7373046875 1000 -90.625 c 0
 1000 -116.512695312 979.012695312 -137.5 953.125 -137.5 c 2
 46.875 -137.5 l 2
 20.986328125 -137.5 0 -116.512695312 0 -90.625 c 2
 0 690.625 l 2
 0 716.512695312 20.986328125 737.5 46.875 737.5 c 0
 72.7626953125 737.5 93.75 716.512695312 93.75 690.625 c 2
986.268554688 532.479492188 m 2
 658.143554688 204.354492188 l 2
 649.356445312 195.563476562 637.431640625 190.625 625 190.625 c 0
 612.568359375 190.625 600.64453125 195.563476562 591.854492188 204.354492188 c 2
 437.5 358.708984375 l 1
 267.520507812 188.729492188 l 2
 249.21484375 170.424804688 219.53515625 170.424804688 201.229492188 188.729492188 c 0
 182.923828125 207.03515625 182.923828125 236.71484375 201.229492188 255.020507812 c 2
 404.354492188 458.145507812 l 2
 422.66015625 476.451171875 452.33984375 476.451171875 470.645507812 458.145507812 c 2
 625 303.791015625 l 1
 919.981445312 598.770507812 l 2
 938.287109375 617.076171875 967.962890625 617.076171875 986.268554688 598.770507812 c 0
 1004.57519531 580.46484375 1004.57519531 550.78515625 986.268554688 532.479492188 c 2
EndSplineSet
EndChar

StartChar: uniF045
Encoding: 61509 61509 51
Width: 1000
Flags: H
LayerCount: 2
Fore
SplineSet
671.875 237.5 m 2
 765.625 237.5 l 2
 791.512695312 237.5 812.5 216.512695312 812.5 190.625 c 0
 812.5 164.737304688 791.512695312 143.75 765.625 143.75 c 2
 671.875 143.75 l 2
 645.987304688 143.75 625 164.737304688 625 190.625 c 0
 625 216.512695312 645.987304688 237.5 671.875 237.5 c 2
0 565.625 m 2
 0 626.03125 48.96875 675 109.375 675 c 2
 890.625 675 l 2
 951.03125 675 1000 626.03125 1000 565.625 c 2
 1000 34.375 l 2
 1000 -26.03125 951.03125 -75 890.625 -75 c 2
 109.375 -75 l 2
 48.96875 -75 0 -26.03125 0 34.375 c 2
 0 565.625 l 2
906.25 565.625 m 2
 906.25 574.25390625 899.255859375 581.25 890.625 581.25 c 2
 109.375 581.25 l 2
 100.74609375 581.25 93.75 574.25390625 93.75 565.625 c 2
 93.75 487.5 l 1
 906.25 487.5 l 1
 906.25 565.625 l 2
906.25 393.75 m 1
 93.75 393.75 l 1
 93.75 34.375 l 2
 93.75 25.744140625 100.74609375 18.75 109.375 18.75 c 2
 890.625 18.75 l 2
 899.255859375 18.75 906.25 25.744140625 906.25 34.375 c 2
 906.25 393.75 l 1
EndSplineSet
EndChar

StartChar: uniF046
Encoding: 61510 61510 52
Width: 1000
Flags: H
LayerCount: 2
Fore
SplineSet
93.75 300 m 0
 93.75 192.255859375 136.55078125 88.9248046875 212.73828125 12.7373046875 c 0
 288.924804688 -63.4501953125 392.255859375 -106.25 500 -106.25 c 0
 607.744140625 -106.25 711.075195312 -63.4501953125 787.262695312 12.7373046875 c 0
 863.450195312 88.9248046875 906.25 192.255859375 906.25 300 c 0
 906.25 407.744140625 863.450195312 511.075195312 787.262695312 587.26171875 c 0
 711.075195312 663.44921875 607.744140625 706.25 500 706.25 c 0
 392.255859375 706.25 288.924804688 663.44921875 212.73828125 587.26171875 c 0
 136.55078125 511.075195312 93.75 407.744140625 93.75 300 c 0
500 800 m 1
 500 800 l 1
 632.606445312 800 759.787109375 747.321289062 853.556640625 653.552734375 c 0
 947.318359375 559.78515625 1000 432.608398438 1000 300 c 0
 1000 167.393554688 947.318359375 40.212890625 853.556640625 -53.556640625 c 0
 759.787109375 -147.318359375 632.606445312 -200 500 -200 c 0
 367.391601562 -200 240.21484375 -147.318359375 146.447265625 -53.556640625 c 0
 52.6787109375 40.212890625 0 167.393554688 0 300 c 0
 0 432.608398438 52.6787109375 559.78515625 146.447265625 653.552734375 c 0
 240.21484375 747.321289062 367.391601562 800 500 800 c 1
531.25 503.125 m 2
 531.25 316.125 l 1
 658 265.375 l 2
 669.168945312 260.505859375 678.005859375 251.478515625 682.630859375 240.20703125 c 0
 687.255859375 228.934570312 687.3125 216.303710938 682.787109375 204.991210938 c 0
 678.262695312 193.677734375 669.505859375 184.572265625 658.380859375 179.604492188 c 0
 647.255859375 174.637695312 634.630859375 174.193359375 623.1875 178.375 c 2
 466.9375 240.875 l 2
 458.248046875 244.357421875 450.80078125 250.362304688 445.553710938 258.114257812 c 0
 440.307617188 265.8671875 437.501953125 275.013671875 437.5 284.375 c 2
 437.5 503.125 l 2
 437.5 515.556640625 442.438476562 527.48046875 451.229492188 536.270507812 c 0
 460.01953125 545.061523438 471.943359375 550 484.375 550 c 0
 496.806640625 550 508.73046875 545.061523438 517.520507812 536.270507812 c 0
 526.311523438 527.48046875 531.25 515.556640625 531.25 503.125 c 2
EndSplineSet
EndChar

StartChar: uniF048
Encoding: 61512 61512 53
Width: 1000
Flags: H
LayerCount: 2
Fore
SplineSet
204.20703125 708.938476562 m 0
 222.952148438 691.08203125 223.670898438 661.411132812 205.813476562 642.666992188 c 0
 136.333007812 569.734375 93.75 471.139648438 93.75 362.499023438 c 0
 93.75 261.349609375 130.655273438 168.9375 191.795898438 97.818359375 c 0
 196.336914062 92.537109375 201.01171875 87.369140625 205.813476562 82.3310546875 c 0
 223.670898438 63.587890625 222.952148438 33.912109375 204.208007812 16.056640625 c 0
 185.463867188 -1.7998046875 155.79296875 -1.0810546875 137.936523438 17.662109375 c 0
 132.032226562 23.8623046875 126.286132812 30.212890625 120.704101562 36.7060546875 c 2
 156.25 67.2626953125 l 1
 120.704101562 36.7060546875 l 2
 45.4990234375 124.1875 0 238.087890625 0 362.499023438 c 0
 0 496.1640625 52.51171875 617.665039062 137.936523438 707.33203125 c 0
 155.79296875 726.077148438 185.463867188 726.795898438 204.20703125 708.938476562 c 0
795.793945312 708.938476562 m 0
 814.537109375 726.793945312 844.206054688 726.075195312 862.0625 707.331054688 c 0
 947.487304688 617.6640625 1000 496.1640625 1000 362.499023438 c 0
 1000 228.833984375 947.487304688 107.331054688 862.0625 17.6689453125 c 0
 844.206054688 -1.0751953125 814.537109375 -1.7998046875 795.793945312 16.0625 c 0
 777.049804688 33.9189453125 776.331054688 63.587890625 794.1875 82.3310546875 c 0
 863.668945312 155.262695312 906.25 253.858398438 906.25 362.499023438 c 0
 906.25 471.138671875 863.668945312 569.733398438 794.1875 642.666015625 c 0
 776.331054688 661.41015625 777.049804688 691.081054688 795.793945312 708.938476562 c 0
546.875 263.650390625 m 2
 546.875 -90.625 l 2
 546.875 -116.512695312 525.887695312 -137.5 500 -137.5 c 0
 474.112304688 -137.5 453.125 -116.512695312 453.125 -90.625 c 2
 453.125 263.650390625 l 2
 416.172851562 281.204101562 390.625 318.869140625 390.625 362.5 c 0
 390.625 422.90625 439.59375 471.875 500 471.875 c 0
 560.40625 471.875 609.375 422.90625 609.375 362.5 c 0
 609.375 318.869140625 583.827148438 281.204101562 546.875 263.650390625 c 2
333.1953125 504.026367188 m 0
 300.768554688 465.854492188 281.25 416.516601562 281.25 362.499023438 c 0
 281.25 308.752929688 300.572265625 259.641601562 332.704101562 221.55078125 c 0
 349.396484375 201.762695312 346.887695312 172.1875 327.099609375 155.5 c 0
 307.311523438 138.806640625 277.73828125 141.3125 261.045898438 161.099609375 c 0
 215.182617188 215.470703125 187.5 285.813476562 187.5 362.499023438 c 0
 187.5 439.575195312 215.46484375 510.240234375 261.744140625 564.721679688 c 0
 278.504882812 584.452148438 308.086914062 586.860351562 327.817382812 570.099609375 c 0
 347.547851562 553.338867188 349.956054688 523.756835938 333.1953125 504.026367188 c 0
738.956054688 563.895507812 m 0
 784.818359375 509.52734375 812.5 439.184570312 812.5 362.499023438 c 0
 812.5 285.813476562 784.818359375 215.470703125 738.956054688 161.099609375 c 0
 722.262695312 141.3125 692.6875 138.806640625 672.900390625 155.5 c 0
 653.112304688 172.1875 650.599609375 201.762695312 667.293945312 221.55078125 c 0
 699.424804688 259.641601562 718.75 308.752929688 718.75 362.499023438 c 0
 718.75 416.245117188 699.424804688 465.356445312 667.293945312 503.447265625 c 0
 650.599609375 523.235351562 653.112304688 552.80859375 672.900390625 569.500976562 c 0
 692.6875 586.193359375 722.262695312 583.68359375 738.956054688 563.895507812 c 0
EndSplineSet
EndChar

StartChar: uniF049
Encoding: 61513 61513 54
Width: 1000
Flags: H
LayerCount: 2
Fore
SplineSet
406.25 456.25 m 0
 406.25 428.458984375 410.766601562 401.817382812 419.0703125 376.96484375 c 0
 424.700195312 360.11328125 420.319335938 341.528320312 407.756835938 328.965820312 c 2
 93.75 14.9560546875 l 1
 93.75 -90.625 l 2
 93.75 -99.255859375 100.74609375 -106.25 109.375 -106.25 c 2
 214.958984375 -106.25 l 1
 218.75 -102.456054688 l 1
 218.75 -28.125 l 2
 218.75 -2.2373046875 239.737304688 18.75 265.625 18.75 c 2
 339.958984375 18.75 l 1
 343.75 22.5439453125 l 1
 343.75 96.875 l 2
 343.75 122.762695312 364.737304688 143.75 390.625 143.75 c 2
 464.958984375 143.75 l 1
 528.965820312 207.756835938 l 2
 541.528320312 220.319335938 560.114257812 224.700195312 576.96484375 219.0703125 c 0
 601.817382812 210.766601562 628.456054688 206.25 656.25 206.25 c 0
 794.318359375 206.25 906.25 318.178710938 906.25 456.25 c 0
 906.25 594.321289062 794.318359375 706.25 656.25 706.25 c 0
 518.178710938 706.25 406.25 594.321289062 406.25 456.25 c 0
656.25 800 m 0
 846.099609375 800 1000 646.09765625 1000 456.25 c 0
 1000 266.40234375 846.099609375 112.5 656.25 112.5 c 0
 628.581054688 112.5 601.625 115.78125 575.774414062 121.981445312 c 2
 517.520507812 63.7314453125 l 2
 508.73046875 54.9375 496.806640625 50 484.375 50 c 2
 437.5 50 l 1
 437.5 3.125 l 2
 437.5 -9.306640625 432.561523438 -21.2314453125 423.770507812 -30.0185546875 c 2
 392.520507812 -61.2685546875 l 2
 383.73046875 -70.0625 371.806640625 -75 359.375 -75 c 2
 312.5 -75 l 1
 312.5 -121.875 l 2
 312.5 -134.306640625 307.561523438 -146.231445312 298.770507812 -155.018554688 c 2
 267.520507812 -186.268554688 l 2
 258.73046875 -195.0625 246.806640625 -200 234.375 -200 c 2
 109.375 -200 l 2
 48.96875 -200 0 -151.03125 0 -90.625 c 2
 0 34.375 l 2
 0 46.806640625 4.9384765625 58.7314453125 13.7294921875 67.5185546875 c 2
 321.983398438 375.774414062 l 2
 315.778320312 401.625 312.5 428.580078125 312.5 456.25 c 0
 312.5 646.09765625 466.40234375 800 656.25 800 c 0
687.5 425 m 0
 652.981445312 425 625 452.982421875 625 487.5 c 0
 625 522.017578125 652.981445312 550 687.5 550 c 0
 722.018554688 550 750 522.017578125 750 487.5 c 0
 750 452.982421875 722.018554688 425 687.5 425 c 0
EndSplineSet
EndChar

StartChar: uniF04D
Encoding: 61517 61517 55
Width: 1000
Flags: H
LayerCount: 2
Fore
SplineSet
546.875976562 690.625 m 2
 546.875976562 487.505859375 l 1
 750 487.505859375 l 2
 775.887695312 487.505859375 796.875 466.51953125 796.875 440.630859375 c 0
 796.875 414.7421875 775.887695312 393.755859375 750 393.755859375 c 2
 546.875976562 393.755859375 l 1
 546.875976562 190.625 l 2
 546.875976562 164.737304688 525.888671875 143.75 500.000976562 143.75 c 0
 474.112304688 143.75 453.125 164.737304688 453.125 190.625 c 2
 453.125 393.755859375 l 1
 250.000976562 393.755859375 l 2
 224.112304688 393.755859375 203.125976562 414.7421875 203.125976562 440.630859375 c 0
 203.125976562 466.51953125 224.112304688 487.505859375 250.000976562 487.505859375 c 2
 453.125 487.505859375 l 1
 453.125 690.625 l 2
 453.125 716.512695312 474.112304688 737.5 500.000976562 737.5 c 0
 525.888671875 737.5 546.875976562 716.512695312 546.875976562 690.625 c 2
250 -12.494140625 m 2
 750 -12.494140625 l 2
 775.887695312 -12.494140625 796.875 -33.4814453125 796.875 -59.369140625 c 0
 796.875 -85.2626953125 775.887695312 -106.244140625 750 -106.244140625 c 2
 250 -106.244140625 l 2
 224.112304688 -106.244140625 203.125 -85.2626953125 203.125 -59.369140625 c 0
 203.125 -33.4814453125 224.112304688 -12.494140625 250 -12.494140625 c 2
EndSplineSet
EndChar

StartChar: uniF04E
Encoding: 61518 61518 56
Width: 1000
Flags: H
LayerCount: 2
Fore
SplineSet
104.927734375 304.271484375 m 0
 103.125976562 301.5625 103.125976562 298.4375 104.927734375 295.728515625 c 0
 130.71484375 256.93359375 182.537109375 186.344726562 252.793945312 125.924804688 c 0
 323.479492188 65.130859375 407.9609375 18.75 500.000976562 18.75 c 0
 592.040039062 18.75 676.525390625 65.130859375 747.206054688 125.924804688 c 0
 817.462890625 186.344726562 869.287109375 256.93359375 895.075195312 295.728515625 c 0
 896.875 298.4375 896.875 301.5625 895.075195312 304.271484375 c 0
 869.287109375 343.06640625 817.462890625 413.655273438 747.206054688 474.077148438 c 0
 676.525390625 534.869140625 592.040039062 581.25 500.000976562 581.25 c 0
 407.9609375 581.25 323.479492188 534.869140625 252.793945312 474.077148438 c 0
 182.537109375 413.655273438 130.71484375 343.06640625 104.927734375 304.271484375 c 0
500.000976562 675 m 0
 623.8359375 675 729.424804688 613.020507812 808.337890625 545.155273438 c 0
 887.674804688 476.920898438 944.974609375 398.55859375 973.150390625 356.168945312 c 0
 995.849609375 322.018554688 995.849609375 277.981445312 973.150390625 243.831054688 c 0
 944.974609375 201.44140625 887.674804688 123.081054688 808.337890625 54.84375 c 0
 729.424804688 -13.0185546875 623.8359375 -75 500.000976562 -75 c 0
 376.166015625 -75 270.57421875 -13.0185546875 191.6640625 54.84375 c 0
 112.32421875 123.081054688 55.0283203125 201.44140625 26.8525390625 243.831054688 c 0
 4.1513671875 277.981445312 4.1513671875 322.018554688 26.8525390625 356.168945312 c 0
 55.0283203125 398.55859375 112.32421875 476.920898438 191.6640625 545.155273438 c 0
 270.57421875 613.020507812 376.166015625 675 500.000976562 675 c 0
500 175 m 0
 430.96484375 175 375 230.96484375 375 300 c 0
 375 369.03515625 430.96484375 425 500 425 c 0
 569.03515625 425 625 369.03515625 625 300 c 0
 625 230.96484375 569.03515625 175 500 175 c 0
EndSplineSet
EndChar

StartChar: uniF04F
Encoding: 61519 61519 57
Width: 1000
Flags: H
LayerCount: 2
Fore
SplineSet
93.75 628.125 m 2
 93.75 284.375 l 2
 93.75 280.231445312 95.396484375 276.256835938 98.326171875 273.326171875 c 0
 101.256835938 270.396484375 105.231445312 268.75 109.375 268.75 c 2
 171.875 268.75 l 2
 184.306640625 268.75 196.23046875 263.811523438 205.020507812 255.020507812 c 0
 213.811523438 246.23046875 218.75 234.306640625 218.75 221.875 c 2
 218.75 85 l 1
 388.75 255 l 2
 397.532226562 263.79296875 409.447265625 268.739257812 421.875 268.75 c 2
 640.625 268.75 l 2
 644.768554688 268.75 648.744140625 270.396484375 651.674804688 273.326171875 c 0
 654.606445312 276.256835938 656.25 280.231445312 656.25 284.375 c 2
 656.25 628.125 l 2
 656.25 632.268554688 654.606445312 636.243164062 651.674804688 639.173828125 c 0
 648.744140625 642.103515625 644.768554688 643.75 640.625 643.75 c 2
 109.375 643.75 l 2
 105.231445312 643.75 101.256835938 642.103515625 98.326171875 639.173828125 c 0
 95.396484375 636.243164062 93.75 632.268554688 93.75 628.125 c 2
109.375 737.5 m 2
 640.625 737.5 l 2
 669.630859375 737.5 697.450195312 725.9765625 717.962890625 705.46484375 c 0
 738.474609375 684.953125 750 657.1328125 750 628.125 c 2
 750 284.375 l 2
 750 255.3671875 738.474609375 227.546875 717.962890625 207.03515625 c 0
 697.450195312 186.5234375 669.630859375 175 640.625 175 c 2
 441.3125 175 l 1
 280.4375 14.1875 l 2
 267.702148438 1.4560546875 251.479492188 -7.2060546875 233.819335938 -10.71875 c 0
 216.159179688 -14.2314453125 197.854492188 -12.4248046875 181.21875 -5.537109375 c 0
 164.583007812 1.349609375 150.36328125 13.0185546875 140.356445312 27.9873046875 c 0
 130.350585938 42.9560546875 125.005859375 60.556640625 125 78.5625 c 2
 125 175 l 1
 109.375 175 l 2
 49 175 0 224 0 284.375 c 2
 0 628.125 l 2
 0 657.1328125 11.5234375 684.953125 32.03515625 705.46484375 c 0
 52.546875 725.9765625 80.3671875 737.5 109.375 737.5 c 2
906.25 503.125 m 2
 906.25 507.268554688 904.606445312 511.243164062 901.674804688 514.173828125 c 0
 898.744140625 517.103515625 894.768554688 518.75 890.625 518.75 c 2
 859.375 518.75 l 2
 846.943359375 518.75 835.018554688 523.688476562 826.231445312 532.479492188 c 0
 817.4375 541.26953125 812.5 553.193359375 812.5 565.625 c 0
 812.5 578.056640625 817.4375 589.98046875 826.231445312 598.770507812 c 0
 835.018554688 607.561523438 846.943359375 612.5 859.375 612.5 c 2
 890.625 612.5 l 2
 951 612.5 1000 563.5 1000 503.125 c 2
 1000 159.375 l 2
 1000 130.369140625 988.474609375 102.549804688 967.962890625 82.037109375 c 0
 947.450195312 61.525390625 919.630859375 50 890.625 50 c 2
 875 50 l 1
 875 -46.4375 l 2
 874.994140625 -64.443359375 869.650390625 -82.0439453125 859.643554688 -97.0126953125 c 0
 849.637695312 -111.981445312 835.418945312 -123.650390625 818.78125 -130.537109375 c 0
 802.143554688 -137.424804688 783.84375 -139.231445312 766.181640625 -135.71875 c 0
 748.518554688 -132.206054688 732.299804688 -123.543945312 719.5625 -110.8125 c 2
 576.25 32.5 l 2
 571.64453125 36.7939453125 567.950195312 41.96875 565.388671875 47.71875 c 0
 562.827148438 53.46875 561.44921875 59.6748046875 561.337890625 65.96875 c 0
 561.2265625 72.2626953125 562.384765625 78.5126953125 564.7421875 84.349609375 c 0
 567.099609375 90.1875 570.608398438 95.4873046875 575.059570312 99.9375 c 0
 579.51171875 104.393554688 584.813476562 107.900390625 590.650390625 110.255859375 c 0
 596.487304688 112.612304688 602.73828125 113.775390625 609.032226562 113.662109375 c 0
 615.327148438 113.549804688 621.534179688 112.174804688 627.28125 109.612304688 c 0
 633.03125 107.049804688 638.206054688 103.356445312 642.5 98.75 c 2
 781.25 -40 l 1
 781.25 96.875 l 2
 781.25 109.306640625 786.1875 121.231445312 794.981445312 130.018554688 c 0
 803.768554688 138.8125 815.693359375 143.75 828.125 143.75 c 2
 890.625 143.75 l 2
 894.768554688 143.75 898.744140625 145.393554688 901.674804688 148.325195312 c 0
 904.606445312 151.255859375 906.25 155.231445312 906.25 159.375 c 2
 906.25 503.125 l 2
EndSplineSet
EndChar

StartChar: uniF051
Encoding: 61521 61521 58
Width: 1000
Flags: H
LayerCount: 2
Fore
SplineSet
423.770507812 676.895507812 m 0
 442.076171875 658.58984375 442.076171875 628.91015625 423.770507812 610.604492188 c 2
 238.166015625 425 l 1
 640.625 425 l 2
 804.581054688 425 937.5 292.0859375 937.5 128.125 c 2
 937.5 -28.125 l 2
 937.5 -54.0126953125 916.512695312 -75 890.625 -75 c 0
 864.737304688 -75 843.75 -54.0126953125 843.75 -28.125 c 2
 843.75 128.125 l 2
 843.75 240.30859375 752.806640625 331.25 640.625 331.25 c 2
 238.166015625 331.25 l 1
 423.770507812 145.643554688 l 2
 442.076171875 127.337890625 442.076171875 97.662109375 423.770507812 79.3564453125 c 0
 405.46484375 61.0498046875 375.78515625 61.0498046875 357.479492188 79.3564453125 c 2
 91.8544921875 344.979492188 l 2
 73.548828125 363.28515625 73.548828125 392.96484375 91.8544921875 411.270507812 c 2
 357.479492188 676.895507812 l 2
 375.78515625 695.201171875 405.46484375 695.201171875 423.770507812 676.895507812 c 0
EndSplineSet
EndChar

StartChar: uniF052
Encoding: 61522 61522 59
Width: 1000
Flags: H
LayerCount: 2
Fore
SplineSet
500 -12.5 m 0
 327.411132812 -12.5 187.5 127.412109375 187.5 300 c 0
 187.5 472.588867188 327.411132812 612.5 500 612.5 c 0
 672.587890625 612.5 812.5 472.588867188 812.5 300 c 0
 812.5 127.412109375 672.587890625 -12.5 500 -12.5 c 0
EndSplineSet
EndChar

StartChar: uniF056
Encoding: 61526 61526 60
Width: 1000
Flags: H
LayerCount: 2
Fore
SplineSet
937.5 612.5 m 2
 971.875 612.5 1000 584.375 1000 550 c 2
 1000 -12.5 l 2
 1000 -46.875 971.875 -75 937.5 -75 c 2
 62.5 -75 l 2
 28.125 -75 0 -46.875 0 -12.5 c 2
 0 550 l 2
 0 584.375 28.125 612.5 62.5 612.5 c 1
 62.5 646.875 90.625 675 125 675 c 2
 375 675 l 2
 409.375 675 437.5 646.875 437.5 612.5 c 1
 937.5 612.5 l 2
375 487.5 m 1
 375 550 l 1
 125 550 l 1
 125 487.5 l 1
 375 487.5 l 1
656.25 50 m 0
 777.5 50 875 147.5 875 268.75 c 0
 875 390 777.5 487.5 656.25 487.5 c 0
 535 487.5 437.5 390 437.5 268.75 c 0
 437.5 147.5 535 50 656.25 50 c 0
812.5 268.75 m 0
 812.5 182.5 741.875 112.5 656.25 112.5 c 0
 570.625 112.5 500 183.125 500 268.75 c 0
 500 354.375 570.625 425 656.25 425 c 0
 741.875 425 812.5 354.375 812.5 268.75 c 0
EndSplineSet
EndChar

StartChar: uniF057
Encoding: 61527 61527 61
Width: 1000
Flags: H
LayerCount: 2
Fore
SplineSet
1000 565.625 m 2
 1000 34.375 l 2
 1000 17.4873046875 990.918945312 1.90625 976.21875 -6.412109375 c 0
 961.525390625 -14.7373046875 943.487304688 -14.505859375 929.005859375 -5.818359375 c 2
 687.5 139.087890625 l 1
 687.5 96.875 l 2
 687.5 36.46875 638.53125 -12.5 578.125 -12.5 c 2
 109.375 -12.5 l 2
 48.96875 -12.5 0 36.46875 0 96.875 c 2
 0 503.125 l 2
 0 563.53125 48.96875 612.5 109.375 612.5 c 2
 578.125 612.5 l 2
 638.53125 612.5 687.5 563.53125 687.5 503.125 c 2
 687.5 460.915039062 l 1
 929.005859375 605.8203125 l 2
 943.487304688 614.508789062 961.525390625 614.736328125 976.21875 606.416015625 c 0
 990.918945312 598.094726562 1000 582.512695312 1000 565.625 c 2
687.5 248.415039062 m 1
 906.25 117.162109375 l 1
 906.25 482.834960938 l 1
 687.5 351.584960938 l 1
 687.5 248.415039062 l 1
593.75 378.125 m 1
 593.75 503.125 l 2
 593.75 511.75390625 586.75390625 518.75 578.125 518.75 c 2
 109.375 518.75 l 2
 100.74609375 518.75 93.75 511.75390625 93.75 503.125 c 2
 93.75 96.875 l 2
 93.75 88.244140625 100.74609375 81.25 109.375 81.25 c 2
 578.125 81.25 l 2
 586.75390625 81.25 593.75 88.244140625 593.75 96.875 c 2
 593.75 221.875 l 1
 593.75 378.125 l 1
EndSplineSet
EndChar

StartChar: uniF058
Encoding: 61528 61528 62
Width: 1000
Flags: H
LayerCount: 2
Fore
SplineSet
688.287109375 710.826171875 m 2
 731 753.540039062 800.25 753.540039062 842.962890625 710.826171875 c 2
 910.825195312 642.96484375 l 2
 953.537109375 600.250976562 953.537109375 530.999023438 910.825195312 488.28515625 c 2
 372.721679688 -49.818359375 l 2
 359.578125 -62.962890625 343.301757812 -72.537109375 325.4296875 -77.6435546875 c 2
 122.251953125 -135.693359375 l 2
 105.8828125 -140.375 88.2666015625 -135.806640625 76.228515625 -123.768554688 c 0
 64.19140625 -111.731445312 59.6259765625 -94.119140625 64.302734375 -77.75 c 2
 122.353515625 125.431640625 l 2
 127.459960938 143.299804688 137.037109375 159.581054688 150.180664062 172.724609375 c 2
 688.287109375 710.826171875 l 2
776.674804688 644.53515625 m 2
 770.568359375 650.63671875 760.674804688 650.63671875 754.575195312 644.53515625 c 2
 675.662109375 565.625 l 1
 765.625 475.666015625 l 1
 844.537109375 554.576171875 l 2
 850.637695312 560.677734375 850.637695312 570.571289062 844.537109375 576.672851562 c 2
 776.674804688 644.53515625 l 2
699.331054688 409.375 m 1
 609.374023438 499.333984375 l 1
 216.471679688 106.431640625 l 2
 214.594726562 104.556640625 213.2265625 102.231445312 212.49609375 99.6748046875 c 2
 177.625 -22.375 l 1
 299.674804688 12.5 l 2
 302.227539062 13.224609375 304.552734375 14.59375 306.430664062 16.474609375 c 2
 699.331054688 409.375 l 1
EndSplineSet
EndChar

StartChar: uniF059
Encoding: 61529 61529 63
Width: 1000
Flags: H
LayerCount: 2
Fore
SplineSet
500 706.25 m 0
 275.634765625 706.25 93.75 524.365234375 93.75 300 c 0
 93.75 75.630859375 275.634765625 -106.25 500 -106.25 c 0
 724.369140625 -106.25 906.25 75.630859375 906.25 300 c 0
 906.25 524.365234375 724.369140625 706.25 500 706.25 c 0
0 300 m 0
 0 576.142578125 223.857421875 800 500 800 c 0
 776.143554688 800 1000 576.142578125 1000 300 c 0
 1000 23.8564453125 776.143554688 -200 500 -200 c 0
 223.857421875 -200 0 23.8564453125 0 300 c 0
406.25 315.625 m 0
 406.25 341.512695312 427.237304688 362.5 453.125 362.5 c 2
 515.625 362.5 l 2
 541.512695312 362.5 562.5 341.512695312 562.5 315.625 c 2
 562.5 143.75 l 1
 578.125 143.75 l 2
 604.012695312 143.75 625 122.762695312 625 96.875 c 0
 625 70.9873046875 604.012695312 50 578.125 50 c 2
 453.125 50 l 2
 427.237304688 50 406.25 70.9873046875 406.25 96.875 c 0
 406.25 122.762695312 427.237304688 143.75 453.125 143.75 c 2
 468.75 143.75 l 1
 468.75 268.75 l 1
 453.125 268.75 l 2
 427.237304688 268.75 406.25 289.737304688 406.25 315.625 c 0
500 425 m 0
 465.482421875 425 437.5 452.982421875 437.5 487.5 c 0
 437.5 522.017578125 465.482421875 550 500 550 c 0
 534.518554688 550 562.5 522.017578125 562.5 487.5 c 0
 562.5 452.982421875 534.518554688 425 500 425 c 0
EndSplineSet
EndChar

StartChar: uniF05C
Encoding: 61532 61532 64
Width: 1000
Flags: H
LayerCount: 2
Fore
SplineSet
485.9375 595.3125 m 2
 564.061523438 673.4375 l 2
 605.087890625 714.463867188 660.731445312 737.51171875 718.75 737.51171875 c 0
 776.768554688 737.51171875 832.412109375 714.463867188 873.4375 673.4375 c 0
 914.462890625 632.412109375 937.512695312 576.76953125 937.512695312 518.75 c 0
 937.512695312 460.731445312 914.462890625 405.088867188 873.4375 364.0625 c 2
 717.1875 207.8125 l 2
 696.875 187.497070312 672.755859375 171.380859375 646.21875 160.387695312 c 0
 619.67578125 149.393554688 591.228515625 143.737304688 562.5 143.737304688 c 0
 533.771484375 143.737304688 505.32421875 149.393554688 478.782226562 160.387695312 c 0
 452.241210938 171.380859375 428.125976562 187.497070312 407.8125 207.8125 c 0
 399.532226562 216.69921875 395.024414062 228.452148438 395.23828125 240.595703125 c 0
 395.453125 252.739257812 400.372070312 264.325195312 408.9609375 272.9140625 c 0
 417.549804688 281.502929688 429.135742188 286.421875 441.279296875 286.63671875 c 0
 453.422851562 286.850585938 465.17578125 282.342773438 474.0625 274.0625 c 0
 485.670898438 262.440429688 499.45703125 253.220703125 514.631835938 246.930664062 c 0
 529.806640625 240.639648438 546.072265625 237.40234375 562.5 237.40234375 c 0
 578.926757812 237.40234375 595.192382812 240.639648438 610.3671875 246.930664062 c 0
 625.543945312 253.220703125 639.325195312 262.440429688 650.9375 274.0625 c 2
 807.1875 430.3125 l 2
 818.799804688 441.926757812 828.012695312 455.71484375 834.299804688 470.887695312 c 0
 840.581054688 486.0625 843.818359375 502.325195312 843.818359375 518.75 c 0
 843.818359375 535.174804688 840.581054688 551.438476562 834.299804688 566.612304688 c 0
 828.012695312 581.786132812 818.799804688 595.57421875 807.1875 607.1875 c 0
 795.575195312 618.80078125 781.787109375 628.014648438 766.612304688 634.299804688 c 0
 751.4375 640.584960938 735.174804688 643.8203125 718.75 643.8203125 c 0
 702.325195312 643.8203125 686.0625 640.584960938 670.887695312 634.299804688 c 0
 655.712890625 628.014648438 641.924804688 618.80078125 630.3125 607.1875 c 2
 552.1875 529.0625 l 2
 543.30078125 520.782226562 531.547851562 516.275390625 519.404296875 516.489257812 c 0
 507.260742188 516.704101562 495.674804688 521.623046875 487.0859375 530.2109375 c 0
 478.497070312 538.799804688 473.578125 550.38671875 473.36328125 562.530273438 c 0
 473.149414062 574.673828125 477.657226562 586.426757812 485.9375 595.3125 c 2
192.8125 -7.1875 m 0
 204.420898438 -18.806640625 218.20703125 -28.03125 233.381835938 -34.318359375 c 0
 248.556640625 -40.6123046875 264.822265625 -43.849609375 281.25 -43.849609375 c 0
 297.676757812 -43.849609375 313.942382812 -40.6123046875 329.1171875 -34.318359375 c 0
 344.291992188 -28.03125 358.078125 -18.806640625 369.6875 -7.1875 c 2
 447.8125 70.9375 l 2
 456.698242188 79.21875 468.451171875 83.724609375 480.594726562 83.5126953125 c 0
 492.73828125 83.2998046875 504.325195312 78.375 512.9140625 69.787109375 c 0
 521.501953125 61.2001953125 526.420898438 49.6123046875 526.635742188 37.46875 c 0
 526.849609375 25.3251953125 522.342773438 13.5751953125 514.0625 4.6875 c 2
 435.9375 -73.4375 l 2
 394.911132812 -114.462890625 339.268554688 -137.512695312 281.25 -137.512695312 c 0
 223.23046875 -137.512695312 167.587890625 -114.462890625 126.5625 -73.4375 c 0
 85.5361328125 -32.412109375 62.48828125 23.2314453125 62.48828125 81.25 c 0
 62.48828125 139.268554688 85.5361328125 194.912109375 126.5625 235.938476562 c 2
 282.8125 392.1875 l 2
 303.125976562 412.502929688 327.241210938 428.618164062 353.782226562 439.612304688 c 0
 380.32421875 450.606445312 408.771484375 456.266601562 437.5 456.266601562 c 0
 466.228515625 456.266601562 494.67578125 450.606445312 521.216796875 439.612304688 c 0
 547.7578125 428.618164062 571.874023438 412.502929688 592.1875 392.1875 c 0
 600.467773438 383.301757812 604.974609375 371.548828125 604.760742188 359.405273438 c 0
 604.545898438 347.26171875 599.626953125 335.674804688 591.0390625 327.0859375 c 0
 582.450195312 318.498046875 570.86328125 313.579101562 558.719726562 313.364257812 c 0
 546.576171875 313.150390625 534.823242188 317.657226562 525.9375 325.9375 c 0
 514.328125 337.559570312 500.541992188 346.780273438 485.3671875 353.0703125 c 0
 470.192382812 359.360351562 453.926757812 362.598632812 437.5 362.598632812 c 0
 421.072265625 362.598632812 404.806640625 359.360351562 389.631835938 353.0703125 c 0
 374.45703125 346.780273438 360.670898438 337.559570312 349.0625 325.9375 c 2
 192.8125 169.6875 l 2
 181.190429688 158.081054688 171.969726562 144.293945312 165.6796875 129.119140625 c 0
 159.389648438 113.943359375 156.151367188 97.6748046875 156.151367188 81.25 c 0
 156.151367188 64.8251953125 159.389648438 48.556640625 165.6796875 33.380859375 c 0
 171.969726562 18.2060546875 181.190429688 4.4248046875 192.8125 -7.1875 c 0
EndSplineSet
EndChar

StartChar: uniF05D
Encoding: 61533 61533 65
Width: 1000
Flags: H
LayerCount: 2
Fore
SplineSet
500 675 m 0
 525.887695312 675 546.875 654.012695312 546.875 628.125 c 2
 546.875 346.875 l 1
 828.125 346.875 l 2
 854.012695312 346.875 875 325.887695312 875 300 c 0
 875 274.112304688 854.012695312 253.125 828.125 253.125 c 2
 546.875 253.125 l 1
 546.875 -28.125 l 2
 546.875 -54.0126953125 525.887695312 -75 500 -75 c 0
 474.112304688 -75 453.125 -54.0126953125 453.125 -28.125 c 2
 453.125 253.125 l 1
 171.875 253.125 l 2
 145.987304688 253.125 125 274.112304688 125 300 c 0
 125 325.887695312 145.987304688 346.875 171.875 346.875 c 2
 453.125 346.875 l 1
 453.125 628.125 l 2
 453.125 654.012695312 474.112304688 675 500 675 c 0
EndSplineSet
EndChar

StartChar: uniF05E
Encoding: 61534 61534 66
Width: 1000
Flags: H
LayerCount: 2
Fore
SplineSet
62.5 628.125 m 0
 62.5 640.556640625 67.4384765625 652.48046875 76.2294921875 661.270507812 c 0
 85.01953125 670.061523438 96.943359375 675 109.375 675 c 2
 890.625 675 l 2
 903.056640625 675 914.981445312 670.061523438 923.768554688 661.270507812 c 0
 932.5625 652.48046875 937.5 640.556640625 937.5 628.125 c 0
 937.5 615.693359375 932.5625 603.76953125 923.768554688 594.979492188 c 0
 914.981445312 586.188476562 903.056640625 581.25 890.625 581.25 c 2
 109.375 581.25 l 2
 96.943359375 581.25 85.01953125 586.188476562 76.2294921875 594.979492188 c 0
 67.4384765625 603.76953125 62.5 615.693359375 62.5 628.125 c 0
62.5 315.625 m 0
 62.5 328.056640625 67.4384765625 339.98046875 76.2294921875 348.770507812 c 0
 85.01953125 357.561523438 96.943359375 362.5 109.375 362.5 c 2
 890.625 362.5 l 2
 903.056640625 362.5 914.981445312 357.561523438 923.768554688 348.770507812 c 0
 932.5625 339.98046875 937.5 328.056640625 937.5 315.625 c 0
 937.5 303.193359375 932.5625 291.26953125 923.768554688 282.479492188 c 0
 914.981445312 273.688476562 903.056640625 268.75 890.625 268.75 c 2
 109.375 268.75 l 2
 96.943359375 268.75 85.01953125 273.688476562 76.2294921875 282.479492188 c 0
 67.4384765625 291.26953125 62.5 303.193359375 62.5 315.625 c 0
109.375 50 m 2
 890.625 50 l 2
 903.056640625 50 914.981445312 45.0625 923.768554688 36.2685546875 c 0
 932.5625 27.4814453125 937.5 15.556640625 937.5 3.125 c 0
 937.5 -9.306640625 932.5625 -21.2314453125 923.768554688 -30.0185546875 c 0
 914.981445312 -38.8125 903.056640625 -43.75 890.625 -43.75 c 2
 109.375 -43.75 l 2
 96.943359375 -43.75 85.01953125 -38.8125 76.2294921875 -30.0185546875 c 0
 67.4384765625 -21.2314453125 62.5 -9.306640625 62.5 3.125 c 0
 62.5 15.556640625 67.4384765625 27.4814453125 76.2294921875 36.2685546875 c 0
 85.01953125 45.0625 96.943359375 50 109.375 50 c 2
EndSplineSet
EndChar

StartChar: uniF05F
Encoding: 61535 61535 67
Width: 1000
Flags: H
LayerCount: 2
Fore
SplineSet
294.979492188 598.770507812 m 2
 313.28515625 617.076171875 342.96484375 617.076171875 361.270507812 598.770507812 c 0
 379.576171875 580.46484375 379.576171875 550.78515625 361.270507812 532.479492188 c 2
 128.791015625 300 l 1
 361.270507812 67.5185546875 l 2
 379.576171875 49.212890625 379.576171875 19.537109375 361.270507812 1.2314453125 c 0
 342.96484375 -17.0751953125 313.28515625 -17.0751953125 294.979492188 1.2314453125 c 2
 29.3544921875 266.854492188 l 2
 11.048828125 285.16015625 11.048828125 314.83984375 29.3544921875 333.145507812 c 2
 294.979492188 598.770507812 l 2
705.018554688 598.770507812 m 2
 970.643554688 333.145507812 l 2
 988.950195312 314.83984375 988.950195312 285.16015625 970.643554688 266.854492188 c 2
 705.018554688 1.2314453125 l 2
 686.712890625 -17.0751953125 657.037109375 -17.0751953125 638.731445312 1.2314453125 c 0
 620.423828125 19.537109375 620.423828125 49.212890625 638.731445312 67.5185546875 c 2
 871.206054688 300 l 1
 638.731445312 532.479492188 l 2
 620.423828125 550.78515625 620.423828125 580.46484375 638.731445312 598.770507812 c 0
 657.037109375 617.076171875 686.712890625 617.076171875 705.018554688 598.770507812 c 2
EndSplineSet
EndChar

StartChar: uniF060
Encoding: 61536 61536 68
Width: 1000
Flags: H
LayerCount: 2
Fore
SplineSet
721 583.499023438 m 2
 721 583.561523438 l 2
 691.974609375 612.583984375 657.525390625 635.60546875 619.604492188 651.3125 c 0
 581.684570312 667.01953125 541.043945312 675.103515625 500 675.103515625 c 0
 458.95703125 675.103515625 418.315429688 667.01953125 380.395507812 651.3125 c 0
 342.4765625 635.60546875 308.022460938 612.583984375 279 583.561523438 c 0
 249.978515625 554.540039062 226.956054688 520.0859375 211.25 482.166015625 c 0
 195.54296875 444.247070312 187.458984375 403.60546875 187.458984375 362.561523438 c 0
 187.458984375 321.518554688 195.54296875 280.876953125 211.25 242.95703125 c 0
 226.956054688 205.0390625 249.978515625 170.581054688 279 141.5625 c 2
 500 -79.375 l 1
 721 141.5 l 2
 750.025390625 170.518554688 773.056640625 204.97265625 788.762695312 242.891601562 c 0
 804.474609375 280.811523438 812.556640625 321.454101562 812.556640625 362.499023438 c 0
 812.556640625 403.543945312 804.474609375 444.1875 788.762695312 482.106445312 c 0
 773.056640625 520.02734375 750.025390625 554.48046875 721 583.499023438 c 2
787.25 75.25 m 2
 566.3125 -145.75 l 2
 557.606445312 -154.462890625 547.268554688 -161.375 535.890625 -166.087890625 c 0
 524.512695312 -170.806640625 512.31640625 -173.231445312 500 -173.231445312 c 0
 487.68359375 -173.231445312 475.48828125 -170.806640625 464.110351562 -166.087890625 c 0
 452.731445312 -161.375 442.393554688 -154.462890625 433.6875 -145.75 c 2
 212.75 75.25 l 2
 155.931640625 132.0625 117.237304688 204.450195312 101.55859375 283.255859375 c 0
 85.880859375 362.061523438 93.923828125 443.747070312 124.670898438 517.981445312 c 0
 155.41796875 592.215820312 207.48828125 655.665039062 274.295898438 700.306640625 c 0
 341.104492188 744.947265625 419.650390625 768.7734375 500 768.7734375 c 0
 580.349609375 768.7734375 658.893554688 744.947265625 725.706054688 700.306640625 c 0
 792.512695312 655.665039062 844.581054688 592.215820312 875.331054688 517.981445312 c 0
 906.075195312 443.747070312 914.119140625 362.061523438 898.443359375 283.255859375 c 0
 882.762695312 204.450195312 844.068359375 132.0625 787.25 75.25 c 2
500 237.499023438 m 0
 466.84765625 237.499023438 435.053710938 250.668945312 411.612304688 274.111328125 c 0
 388.169921875 297.552734375 375 329.34765625 375 362.499023438 c 0
 375 395.65234375 388.169921875 427.4453125 411.612304688 450.887695312 c 0
 435.053710938 474.330078125 466.84765625 487.499023438 500 487.499023438 c 0
 533.15234375 487.499023438 564.946289062 474.330078125 588.388671875 450.887695312 c 0
 611.831054688 427.4453125 625 395.65234375 625 362.499023438 c 0
 625 329.34765625 611.831054688 297.552734375 588.388671875 274.111328125 c 0
 564.946289062 250.668945312 533.15234375 237.499023438 500 237.499023438 c 0
EndSplineSet
EndChar

StartChar: uniF061
Encoding: 61537 61537 69
Width: 1000
Flags: H
LayerCount: 2
Fore
SplineSet
125 550 m 0
 90.482421875 550 62.5 577.982421875 62.5 612.5 c 0
 62.5 647.017578125 90.482421875 675 125 675 c 0
 159.517578125 675 187.5 647.017578125 187.5 612.5 c 0
 187.5 577.982421875 159.517578125 550 125 550 c 0
359.375 643.75 m 2
 890.625 643.75 l 2
 916.512695312 643.75 937.5 622.762695312 937.5 596.875 c 0
 937.5 570.987304688 916.512695312 550 890.625 550 c 2
 359.375 550 l 2
 333.487304688 550 312.5 570.987304688 312.5 596.875 c 0
 312.5 622.762695312 333.487304688 643.75 359.375 643.75 c 2
359.375 331.25 m 2
 890.625 331.25 l 2
 916.512695312 331.25 937.5 310.262695312 937.5 284.375 c 0
 937.5 258.487304688 916.512695312 237.5 890.625 237.5 c 2
 359.375 237.5 l 2
 333.487304688 237.5 312.5 258.487304688 312.5 284.375 c 0
 312.5 310.262695312 333.487304688 331.25 359.375 331.25 c 2
359.375 18.75 m 2
 890.625 18.75 l 2
 916.512695312 18.75 937.5 -2.2373046875 937.5 -28.125 c 0
 937.5 -54.0126953125 916.512695312 -75 890.625 -75 c 2
 359.375 -75 l 2
 333.487304688 -75 312.5 -54.0126953125 312.5 -28.125 c 0
 312.5 -2.2373046875 333.487304688 18.75 359.375 18.75 c 2
187.5 300 m 0
 187.5 265.482421875 159.517578125 237.5 125 237.5 c 0
 90.482421875 237.5 62.5 265.482421875 62.5 300 c 0
 62.5 334.517578125 90.482421875 362.5 125 362.5 c 0
 159.517578125 362.5 187.5 334.517578125 187.5 300 c 0
125 -75 m 0
 90.482421875 -75 62.5 -47.0185546875 62.5 -12.5 c 0
 62.5 22.0185546875 90.482421875 50 125 50 c 0
 159.517578125 50 187.5 22.0185546875 187.5 -12.5 c 0
 187.5 -47.0185546875 159.517578125 -75 125 -75 c 0
EndSplineSet
EndChar

StartChar: uniF062
Encoding: 61538 61538 70
Width: 1000
Flags: H
LayerCount: 2
Fore
SplineSet
125.2109375 643.747070312 m 2
 125.2109375 424.977539062 l 1
 156.65625 424.977539062 l 2
 173.916992188 424.977539062 187.909179688 410.985351562 187.909179688 393.724609375 c 0
 187.909179688 376.46484375 173.916992188 362.471679688 156.65625 362.471679688 c 2
 31.259765625 362.471679688 l 2
 13.9990234375 362.471679688 0.0068359375 376.46484375 0.0068359375 393.724609375 c 0
 0.0068359375 410.985351562 13.9990234375 424.977539062 31.259765625 424.977539062 c 2
 62.705078125 424.977539062 l 1
 62.705078125 593.249023438 l 1
 45.2021484375 584.5234375 l 2
 29.75390625 576.82421875 10.9892578125 583.104492188 3.2890625 598.551757812 c 0
 -4.4111328125 614 1.8701171875 632.764648438 17.3173828125 640.46484375 c 2
 80.015625 671.717773438 l 2
 89.7041015625 676.546875 101.200195312 676.018554688 110.405273438 670.322265625 c 0
 119.609375 664.625976562 125.2109375 654.572265625 125.2109375 643.747070312 c 2
312.5 596.875 m 0
 312.5 622.762695312 333.487304688 643.75 359.375 643.75 c 2
 890.625 643.75 l 2
 916.512695312 643.75 937.5 622.762695312 937.5 596.875 c 0
 937.5 570.987304688 916.512695312 550 890.625 550 c 2
 359.375 550 l 2
 333.487304688 550 312.5 570.987304688 312.5 596.875 c 0
312.5 284.375 m 0
 312.5 310.262695312 333.487304688 331.25 359.375 331.25 c 2
 890.625 331.25 l 2
 916.512695312 331.25 937.5 310.262695312 937.5 284.375 c 0
 937.5 258.487304688 916.512695312 237.5 890.625 237.5 c 2
 359.375 237.5 l 2
 333.487304688 237.5 312.5 258.487304688 312.5 284.375 c 0
312.5 -28.125 m 0
 312.5 -2.2373046875 333.487304688 18.75 359.375 18.75 c 2
 890.625 18.75 l 2
 916.512695312 18.75 937.5 -2.2373046875 937.5 -28.125 c 0
 937.5 -54.0126953125 916.512695312 -75 890.625 -75 c 2
 359.375 -75 l 2
 333.487304688 -75 312.5 -54.0126953125 312.5 -28.125 c 0
57.7744140625 155 m 2
 48.734375 140.505859375 29.6884765625 135.9375 15.04296875 144.831054688 c 0
 0.2880859375 153.787109375 -4.3974609375 173.03125 4.55859375 187.78515625 c 2
 4.6044921875 187.860351562 l 1
 4.6728515625 187.971679688 l 1
 4.8359375 188.233398438 l 1
 5.265625 188.91015625 l 2
 5.599609375 189.42578125 6.0283203125 190.0703125 6.5517578125 190.827148438 c 0
 7.5966796875 192.3359375 9.0341796875 194.305664062 10.8681640625 196.580078125 c 0
 14.5078125 201.094726562 19.8681640625 207.00390625 27.0068359375 212.927734375 c 0
 41.3046875 224.791992188 63.7509765625 237.462890625 93.7666015625 237.461914062 c 0
 123.022460938 237.4609375 147.387695312 226.12109375 164.09765625 207.170898438 c 0
 180.305664062 188.788085938 187.700195312 165.137695312 187.700195312 142.306640625 c 0
 187.700195312 80.619140625 144.853515625 48.8251953125 115.431640625 27 c 2
 112.515625 24.8310546875 l 2
 93.5888671875 10.744140625 79.861328125 -0.162109375 71.6318359375 -12.494140625 c 1
 156.448242188 -12.494140625 l 2
 173.708007812 -12.494140625 187.700195312 -26.4873046875 187.700195312 -43.744140625 c 0
 187.700195312 -61.005859375 173.704101562 -75 156.443359375 -75 c 2
 31.2607421875 -75 l 2
 22.9716796875 -75 15.0224609375 -71.7060546875 9.1611328125 -65.84375 c 0
 3.30078125 -59.9814453125 0.0078125 -52.03125 0.0078125 -43.744140625 c 0
 0.0078125 19.099609375 43.244140625 51.2314453125 73.0029296875 73.34375 c 2
 75.1923828125 74.96875 l 2
 108.374023438 99.6689453125 125.1953125 114.03125 125.1953125 142.306640625 c 0
 125.1953125 152.125 121.98046875 160.424804688 117.213867188 165.831054688 c 0
 112.948242188 170.668945312 105.97265625 174.956054688 93.765625 174.956054688 c 0
 82.318359375 174.956054688 73.51171875 170.293945312 66.921875 164.825195312 c 0
 63.6171875 162.087890625 61.125 159.331054688 59.5244140625 157.34375 c 0
 58.73828125 156.369140625 58.20703125 155.630859375 57.939453125 155.244140625 c 2
 57.7744140625 155 l 2
31.2568359375 171.549804688 m 1
 4.55859375 187.78515625 l 1
 4.55859375 187.78515625 4.544921875 187.762695312 31.2568359375 171.549804688 c 1
EndSplineSet
EndChar

StartChar: uniF063
Encoding: 61539 61539 71
Width: 1000
Flags: H
LayerCount: 2
Fore
SplineSet
109.375 643.75 m 2
 765.625 643.75 l 2
 791.512695312 643.75 812.5 622.762695312 812.5 596.875 c 0
 812.5 570.987304688 791.512695312 550 765.625 550 c 2
 109.375 550 l 2
 83.4873046875 550 62.5 570.987304688 62.5 596.875 c 0
 62.5 622.762695312 83.4873046875 643.75 109.375 643.75 c 2
359.375 331.25 m 2
 890.625 331.25 l 2
 916.512695312 331.25 937.5 310.262695312 937.5 284.375 c 0
 937.5 258.487304688 916.512695312 237.5 890.625 237.5 c 2
 359.375 237.5 l 2
 333.487304688 237.5 312.5 258.487304688 312.5 284.375 c 0
 312.5 310.262695312 333.487304688 331.25 359.375 331.25 c 2
359.375 18.75 m 2
 890.625 18.75 l 2
 916.512695312 18.75 937.5 -2.2373046875 937.5 -28.125 c 0
 937.5 -54.0126953125 916.512695312 -75 890.625 -75 c 2
 359.375 -75 l 2
 333.487304688 -75 312.5 -54.0126953125 312.5 -28.125 c 0
 312.5 -2.2373046875 333.487304688 18.75 359.375 18.75 c 2
156.25 315.625 m 2
 156.25 -59.375 l 2
 156.25 -85.2626953125 135.262695312 -106.25 109.375 -106.25 c 0
 83.4873046875 -106.25 62.5 -85.2626953125 62.5 -59.375 c 2
 62.5 315.625 l 2
 62.5 341.512695312 83.4873046875 362.5 109.375 362.5 c 0
 135.262695312 362.5 156.25 341.512695312 156.25 315.625 c 2
EndSplineSet
EndChar

StartChar: uniF064
Encoding: 61540 61540 72
Width: 1000
Flags: H
LayerCount: 2
Fore
SplineSet
484.375 -75 m 2
 423.96875 -75 375 -26.03125 375 34.375 c 2
 375 565.625 l 2
 375 626.03125 423.96875 675 484.375 675 c 2
 890.625 675 l 2
 951.03125 675 1000 626.03125 1000 565.625 c 2
 1000 34.375 l 2
 1000 -26.03125 951.03125 -75 890.625 -75 c 2
 484.375 -75 l 2
468.75 34.375 m 2
 468.75 25.744140625 475.74609375 18.75 484.375 18.75 c 2
 890.625 18.75 l 2
 899.255859375 18.75 906.25 25.744140625 906.25 34.375 c 2
 906.25 565.625 l 2
 906.25 574.25390625 899.255859375 581.25 890.625 581.25 c 2
 484.375 581.25 l 2
 475.74609375 581.25 468.75 574.25390625 468.75 565.625 c 2
 468.75 34.375 l 2
306.200195312 580.7421875 m 0
 319.163085938 558.333007812 311.505859375 529.658203125 289.096679688 516.6953125 c 0
 284.303710938 513.922851562 281.25 508.856445312 281.25 503.131835938 c 2
 281.25 96.880859375 l 2
 281.25 91.15625 284.303710938 86.09375 289.096679688 83.318359375 c 0
 311.505859375 70.3564453125 319.163085938 41.681640625 306.200195312 19.2685546875 c 0
 293.237304688 -3.1376953125 264.5625 -10.7939453125 242.153320312 2.1689453125 c 0
 209.583984375 21.005859375 187.5 56.337890625 187.5 96.880859375 c 2
 187.5 503.131835938 l 2
 187.5 543.674804688 209.583984375 579.004882812 242.153320312 597.845703125 c 0
 264.5625 610.80859375 293.237304688 603.151367188 306.200195312 580.7421875 c 0
101.596679688 454.1953125 m 0
 96.8037109375 451.422851562 93.75 446.356445312 93.75 440.631835938 c 2
 93.75 159.380859375 l 2
 93.75 153.65625 96.8037109375 148.59375 101.596679688 145.818359375 c 0
 124.005859375 132.856445312 131.663085938 104.181640625 118.700195312 81.7685546875 c 0
 105.737304688 59.3623046875 77.0625 51.7060546875 54.6533203125 64.6689453125 c 0
 22.083984375 83.505859375 0 118.837890625 0 159.380859375 c 2
 0 440.631835938 l 2
 0 481.174804688 22.083984375 516.504882812 54.6533203125 535.345703125 c 0
 77.0625 548.30859375 105.737304688 540.651367188 118.700195312 518.2421875 c 0
 131.663085938 495.833007812 124.005859375 467.158203125 101.596679688 454.1953125 c 0
EndSplineSet
EndChar

StartChar: uniF068
Encoding: 61544 61544 73
Width: 1000
Flags: H
LayerCount: 2
Fore
SplineSet
296.875 800 m 0
 322.762695312 800 343.75 779.013671875 343.75 753.125 c 2
 343.75 675 l 1
 656.25 675 l 1
 656.25 753.125 l 2
 656.25 779.013671875 677.237304688 800 703.125 800 c 0
 729.012695312 800 750 779.013671875 750 753.125 c 2
 750 675 l 1
 828.125 675 l 2
 888.53125 675 937.5 626.03125 937.5 565.625 c 2
 937.5 -90.625 l 2
 937.5 -151.03125 888.53125 -200 828.125 -200 c 2
 171.875 -200 l 2
 111.46875 -200 62.5 -151.03125 62.5 -90.625 c 2
 62.5 565.625 l 2
 62.5 626.03125 111.46875 675 171.875 675 c 2
 250 675 l 1
 250 753.125 l 2
 250 779.013671875 270.987304688 800 296.875 800 c 0
296.875 581.25 m 1
 171.875 581.25 l 2
 163.24609375 581.25 156.25 574.25390625 156.25 565.625 c 2
 156.25 425 l 1
 843.75 425 l 1
 843.75 565.625 l 2
 843.75 574.25390625 836.755859375 581.25 828.125 581.25 c 2
 703.125 581.25 l 1
 296.875 581.25 l 1
156.25 331.25 m 1
 156.25 -90.625 l 2
 156.25 -99.255859375 163.24609375 -106.25 171.875 -106.25 c 2
 828.125 -106.25 l 2
 836.755859375 -106.25 843.75 -99.255859375 843.75 -90.625 c 2
 843.75 331.25 l 1
 156.25 331.25 l 1
EndSplineSet
EndChar

StartChar: uniF06A
Encoding: 61546 61546 74
Width: 1000
Flags: H
LayerCount: 2
Fore
SplineSet
250 550 m 2
 250 616.3046875 276.33984375 679.892578125 323.22265625 726.77734375 c 0
 370.107421875 773.661132812 433.6953125 800 500 800 c 0
 566.3046875 800 629.893554688 773.661132812 676.775390625 726.77734375 c 0
 723.662109375 679.892578125 750 616.3046875 750 550 c 2
 750 425 l 1
 765.625 425 l 2
 794.630859375 425 822.450195312 413.4765625 842.962890625 392.96484375 c 0
 863.474609375 372.453125 875 344.6328125 875 315.625 c 2
 875 -28.125 l 2
 875 -57.130859375 863.474609375 -84.9501953125 842.962890625 -105.462890625 c 0
 822.450195312 -125.974609375 794.630859375 -137.5 765.625 -137.5 c 2
 234.375 -137.5 l 2
 174 -137.5 125 -88.5 125 -28.125 c 2
 125 315.625 l 2
 125 344.6328125 136.5234375 372.453125 157.03515625 392.96484375 c 0
 177.546875 413.4765625 205.3671875 425 234.375 425 c 2
 250 425 l 1
 250 550 l 2
656.25 425 m 1
 656.25 550 l 2
 656.25 591.440429688 639.787109375 631.18359375 610.485351562 660.485351562 c 0
 581.18359375 689.788085938 541.440429688 706.25 500 706.25 c 0
 458.559570312 706.25 418.81640625 689.788085938 389.514648438 660.485351562 c 0
 360.211914062 631.18359375 343.75 591.440429688 343.75 550 c 2
 343.75 425 l 1
 656.25 425 l 1
750 331.25 m 1
 234.375 331.25 l 2
 230.231445312 331.25 226.256835938 329.603515625 223.326171875 326.673828125 c 0
 220.396484375 323.743164062 218.75 319.768554688 218.75 315.625 c 2
 218.75 -28.125 l 2
 218.75 -32.2685546875 220.396484375 -36.244140625 223.326171875 -39.1748046875 c 0
 226.256835938 -42.1064453125 230.231445312 -43.75 234.375 -43.75 c 2
 765.625 -43.75 l 2
 769.768554688 -43.75 773.744140625 -42.1064453125 776.674804688 -39.1748046875 c 0
 779.606445312 -36.244140625 781.25 -32.2685546875 781.25 -28.125 c 2
 781.25 315.625 l 2
 781.25 319.768554688 779.606445312 323.743164062 776.674804688 326.673828125 c 0
 773.744140625 329.603515625 769.768554688 331.25 765.625 331.25 c 2
 750 331.25 l 1
EndSplineSet
EndChar

StartChar: uniF06B
Encoding: 61547 61547 75
Width: 1000
Flags: H
LayerCount: 2
Fore
SplineSet
828.125 643.75 m 2
 171.875 643.75 l 2
 163.24609375 643.75 156.25 636.75390625 156.25 628.125 c 2
 156.25 -28.125 l 2
 156.25 -36.755859375 163.24609375 -43.75 171.875 -43.75 c 2
 828.125 -43.75 l 2
 836.755859375 -43.75 843.75 -36.755859375 843.75 -28.125 c 2
 843.75 628.125 l 2
 843.75 636.75390625 836.755859375 643.75 828.125 643.75 c 2
171.875 737.5 m 2
 828.125 737.5 l 2
 888.53125 737.5 937.5 688.53125 937.5 628.125 c 2
 937.5 -28.125 l 2
 937.5 -88.53125 888.53125 -137.5 828.125 -137.5 c 2
 171.875 -137.5 l 2
 111.46875 -137.5 62.5 -88.53125 62.5 -28.125 c 2
 62.5 628.125 l 2
 62.5 688.53125 111.46875 737.5 171.875 737.5 c 2
500 550 m 0
 525.887695312 550 546.875 529.012695312 546.875 503.125 c 2
 546.875 346.875 l 1
 703.125 346.875 l 2
 729.012695312 346.875 750 325.887695312 750 300 c 0
 750 274.112304688 729.012695312 253.125 703.125 253.125 c 2
 546.875 253.125 l 1
 546.875 96.875 l 2
 546.875 70.9873046875 525.887695312 50 500 50 c 0
 474.112304688 50 453.125 70.9873046875 453.125 96.875 c 2
 453.125 253.125 l 1
 296.875 253.125 l 2
 270.987304688 253.125 250 274.112304688 250 300 c 0
 250 325.887695312 270.987304688 346.875 296.875 346.875 c 2
 453.125 346.875 l 1
 453.125 503.125 l 2
 453.125 529.012695312 474.112304688 550 500 550 c 0
EndSplineSet
EndChar

StartChar: uniF06C
Encoding: 61548 61548 76
Width: 1000
Flags: H
LayerCount: 2
Fore
SplineSet
171.875 643.75 m 2
 163.24609375 643.75 156.25 636.75390625 156.25 628.125 c 2
 156.25 -28.125 l 2
 156.25 -36.755859375 163.24609375 -43.75 171.875 -43.75 c 2
 828.125 -43.75 l 2
 836.755859375 -43.75 843.75 -36.755859375 843.75 -28.125 c 2
 843.75 628.125 l 2
 843.75 636.75390625 836.755859375 643.75 828.125 643.75 c 2
 171.875 643.75 l 2
828.125 737.5 m 2
 888.53125 737.5 937.5 688.53125 937.5 628.125 c 2
 937.5 -28.125 l 2
 937.5 -88.53125 888.53125 -137.5 828.125 -137.5 c 2
 171.875 -137.5 l 2
 111.46875 -137.5 62.5 -88.53125 62.5 -28.125 c 2
 62.5 628.125 l 2
 62.5 688.53125 111.46875 737.5 171.875 737.5 c 2
 828.125 737.5 l 2
703.125 253.125 m 2
 296.875 253.125 l 2
 270.987304688 253.125 250 274.112304688 250 300 c 0
 250 325.887695312 270.987304688 346.875 296.875 346.875 c 2
 703.125 346.875 l 2
 729.012695312 346.875 750 325.887695312 750 300 c 0
 750 274.112304688 729.012695312 253.125 703.125 253.125 c 2
EndSplineSet
EndChar

StartChar: uniF06D
Encoding: 61549 61549 77
Width: 1000
Flags: H
LayerCount: 2
Fore
SplineSet
171.875 643.75 m 2
 163.24609375 643.75 156.25 636.75390625 156.25 628.125 c 2
 156.25 -28.125 l 2
 156.25 -36.755859375 163.24609375 -43.75 171.875 -43.75 c 2
 828.125 -43.75 l 2
 836.755859375 -43.75 843.75 -36.755859375 843.75 -28.125 c 2
 843.75 628.125 l 2
 843.75 636.75390625 836.755859375 643.75 828.125 643.75 c 2
 171.875 643.75 l 2
828.125 737.5 m 2
 888.53125 737.5 937.5 688.53125 937.5 628.125 c 2
 937.5 -28.125 l 2
 937.5 -88.53125 888.53125 -137.5 828.125 -137.5 c 2
 171.875 -137.5 l 2
 111.46875 -137.5 62.5 -88.53125 62.5 -28.125 c 2
 62.5 628.125 l 2
 62.5 688.53125 111.46875 737.5 171.875 737.5 c 2
 828.125 737.5 l 2
500 175 m 0
 430.96484375 175 375 230.96484375 375 300 c 0
 375 369.03515625 430.96484375 425 500 425 c 0
 569.03515625 425 625 369.03515625 625 300 c 0
 625 230.96484375 569.03515625 175 500 175 c 0
EndSplineSet
EndChar

StartChar: uniF06E
Encoding: 61550 61550 78
Width: 1000
Flags: H
LayerCount: 2
Fore
SplineSet
171.875 643.75 m 2
 163.24609375 643.75 156.25 636.75390625 156.25 628.125 c 2
 156.25 -28.125 l 2
 156.25 -36.755859375 163.24609375 -43.75 171.875 -43.75 c 2
 828.125 -43.75 l 2
 836.755859375 -43.75 843.75 -36.755859375 843.75 -28.125 c 2
 843.75 628.125 l 2
 843.75 636.75390625 836.755859375 643.75 828.125 643.75 c 2
 171.875 643.75 l 2
828.125 737.5 m 2
 888.53125 737.5 937.5 688.53125 937.5 628.125 c 2
 937.5 -28.125 l 2
 937.5 -88.53125 888.53125 -137.5 828.125 -137.5 c 2
 171.875 -137.5 l 2
 111.46875 -137.5 62.5 -88.53125 62.5 -28.125 c 2
 62.5 628.125 l 2
 62.5 688.53125 111.46875 737.5 171.875 737.5 c 2
 828.125 737.5 l 2
736.268554688 266.854492188 m 2
 533.145507812 63.7314453125 l 2
 514.83984375 45.4248046875 485.16015625 45.4248046875 466.854492188 63.7314453125 c 0
 448.548828125 82.037109375 448.548828125 111.712890625 466.854492188 130.018554688 c 2
 589.958984375 253.125 l 1
 296.875 253.125 l 2
 270.987304688 253.125 250 274.112304688 250 300 c 0
 250 325.887695312 270.987304688 346.875 296.875 346.875 c 2
 589.958984375 346.875 l 1
 466.854492188 469.979492188 l 2
 448.548828125 488.28515625 448.548828125 517.96484375 466.854492188 536.270507812 c 0
 485.16015625 554.576171875 514.83984375 554.576171875 533.145507812 536.270507812 c 2
 736.268554688 333.145507812 l 2
 745.0625 324.35546875 750 312.431640625 750 300 c 0
 750 287.568359375 745.0625 275.64453125 736.268554688 266.854492188 c 2
EndSplineSet
EndChar

StartChar: uniF070
Encoding: 61552 61552 79
Width: 1000
Flags: H
LayerCount: 2
Fore
SplineSet
0 315.625 m 0
 0 341.512695312 20.986328125 362.5 46.875 362.5 c 2
 953.125 362.5 l 2
 979.012695312 362.5 1000 341.512695312 1000 315.625 c 0
 1000 289.737304688 979.012695312 268.75 953.125 268.75 c 2
 46.875 268.75 l 2
 20.986328125 268.75 0 289.737304688 0 315.625 c 0
EndSplineSet
EndChar

StartChar: uniF075
Encoding: 61557 61557 80
Width: 1000
Flags: H
LayerCount: 2
Fore
SplineSet
484.375 800 m 1
 496.806640625 800 508.73046875 795.061523438 517.520507812 786.270507812 c 0
 526.311523438 777.479492188 531.25 765.556640625 531.25 753.125 c 2
 531.25 612.5 l 1
 758.375 612.5 l 2
 784.25 612.5 809.25 603.3125 829 586.625 c 2
 958.375 477.25 l 2
 970.512695312 466.982421875 980.262695312 454.193359375 986.950195312 439.772460938 c 0
 993.637695312 425.3515625 997.106445312 409.646484375 997.106445312 393.75 c 0
 997.106445312 377.853515625 993.637695312 362.1484375 986.950195312 347.727539062 c 0
 980.262695312 333.306640625 970.512695312 320.517578125 958.375 310.25 c 2
 829 200.875 l 2
 809.255859375 184.171875 784.237304688 175.00390625 758.375 175 c 2
 531.25 175 l 1
 531.25 -153.125 l 2
 531.25 -165.556640625 526.311523438 -177.481445312 517.520507812 -186.268554688 c 0
 508.73046875 -195.0625 496.806640625 -200 484.375 -200 c 0
 471.943359375 -200 460.01953125 -195.0625 451.229492188 -186.268554688 c 0
 442.438476562 -177.481445312 437.5 -165.556640625 437.5 -153.125 c 2
 437.5 175 l 1
 171.875 175 l 2
 142.8671875 175 115.046875 186.5234375 94.53515625 207.03515625 c 0
 74.0234375 227.546875 62.5 255.3671875 62.5 284.375 c 2
 62.5 503.125 l 2
 62.5 563.5 111.5 612.5 171.875 612.5 c 2
 437.5 612.5 l 1
 437.5 753.125 l 2
 437.5 765.556640625 442.438476562 777.479492188 451.229492188 786.270507812 c 0
 460.01953125 795.061523438 471.943359375 800 484.375 800 c 1
 484.375 800 l 1
484.375 268.75 m 1
 758.375 268.75 l 2
 762.068359375 268.771484375 765.630859375 270.100585938 768.4375 272.5 c 2
 897.8125 381.875 l 2
 899.525390625 383.341796875 900.90625 385.163085938 901.849609375 387.212890625 c 0
 902.793945312 389.262695312 903.28125 391.493164062 903.28125 393.75 c 0
 903.28125 396.006835938 902.793945312 398.237304688 901.849609375 400.287109375 c 0
 900.90625 402.336914062 899.525390625 404.158203125 897.8125 405.625 c 2
 768.4375 515 l 2
 765.630859375 517.399414062 762.068359375 518.728515625 758.375 518.75 c 2
 171.875 518.75 l 2
 167.731445312 518.75 163.756835938 517.103515625 160.826171875 514.173828125 c 0
 157.896484375 511.243164062 156.25 507.268554688 156.25 503.125 c 2
 156.25 284.375 l 2
 156.25 275.75 163.25 268.75 171.875 268.75 c 2
 484.375 268.75 l 1
EndSplineSet
EndChar

StartChar: uniF076
Encoding: 61558 61558 81
Width: 1000
Flags: H
LayerCount: 2
Fore
SplineSet
156.25 690.625 m 2
 156.25 -28.125 l 2
 156.25 -36.755859375 163.24609375 -43.75 171.875 -43.75 c 2
 370.051757812 -43.75 l 2
 395.940429688 -43.75 416.926757812 -64.7373046875 416.926757812 -90.625 c 0
 416.926757812 -116.512695312 395.940429688 -137.5 370.051757812 -137.5 c 2
 171.875 -137.5 l 2
 111.46875 -137.5 62.5 -88.53125 62.5 -28.125 c 2
 62.5 690.625 l 2
 62.5 751.03125 111.46875 800 171.875 800 c 2
 703.125 800 l 2
 763.53125 800 812.5 751.03125 812.5 690.625 c 2
 812.5 207.096679688 l 2
 812.5 181.208007812 791.512695312 160.21875 765.625 160.21875 c 0
 739.737304688 160.21875 718.75 181.208007812 718.75 207.096679688 c 2
 718.75 690.625 l 2
 718.75 699.25390625 711.755859375 706.25 703.125 706.25 c 2
 171.875 706.25 l 2
 163.24609375 706.25 156.25 699.25390625 156.25 690.625 c 2
296.875 550 m 2
 578.125 550 l 2
 604.012695312 550 625 529.012695312 625 503.125 c 0
 625 477.237304688 604.012695312 456.25 578.125 456.25 c 2
 296.875 456.25 l 2
 270.987304688 456.25 250 477.237304688 250 503.125 c 0
 250 529.012695312 270.987304688 550 296.875 550 c 2
250 315.625 m 0
 250 341.512695312 270.987304688 362.5 296.875 362.5 c 2
 421.875 362.5 l 2
 447.762695312 362.5 468.75 341.512695312 468.75 315.625 c 0
 468.75 289.737304688 447.762695312 268.75 421.875 268.75 c 2
 296.875 268.75 l 2
 270.987304688 268.75 250 289.737304688 250 315.625 c 0
985.875 94.587890625 m 2
 701.068359375 -183.537109375 l 2
 682.681640625 -201.494140625 653.255859375 -201.293945312 635.112304688 -183.087890625 c 2
 513.670898438 -61.212890625 l 2
 495.397460938 -42.875 495.450195312 -13.193359375 513.788085938 5.0810546875 c 0
 532.125976562 23.349609375 561.805664062 23.2998046875 580.079101562 4.962890625 c 2
 668.768554688 -84.0439453125 l 1
 920.375 161.662109375 l 2
 938.893554688 179.749023438 968.575195312 179.396484375 986.662109375 160.875 c 0
 1004.75 142.356445312 1004.39355469 112.674804688 985.875 94.587890625 c 2
EndSplineSet
EndChar

StartChar: uniF077
Encoding: 61559 61559 82
Width: 1000
Flags: H
LayerCount: 2
Fore
SplineSet
973.200195312 764.234375 m 0
 956.875 771.969726562 937.5625 769.635742188 923.556640625 758.24609375 c 2
 923.53125 758.225585938 l 1
 1000 721.874023438 l 1
 1000 65.625 l 2
 1000 47.5126953125 989.5625 31.0185546875 973.200195312 23.2626953125 c 0
 956.887695312 15.537109375 937.599609375 17.8564453125 923.59375 29.21875 c 2
 923.53125 29.275390625 l 1
 922.630859375 29.96875 l 2
 921.700195312 30.681640625 920.106445312 31.875 917.856445312 33.4814453125 c 0
 913.34375 36.6875 906.181640625 41.5498046875 896.337890625 47.5185546875 c 0
 876.650390625 59.46875 846.237304688 75.8623046875 804.856445312 92.412109375 c 0
 729.837890625 122.418945312 618.357421875 153.119140625 468.750976562 158.53125 c 1
 468.825195312 74.2314453125 480.200195312 7.5126953125 492.6953125 -40.412109375 c 0
 502.579101562 -78.3251953125 493.095703125 -117.293945312 473.326171875 -146.418945312 c 0
 453.439453125 -175.71875 419.481445312 -200 376.67578125 -200 c 2
 301.89453125 -200 l 2
 263.106445312 -200 223.423828125 -178.706054688 207.03515625 -137.537109375 c 0
 186.634765625 -86.2939453125 156.25 14.4189453125 156.25 159.375 c 0
 156.25 160.21875 156.272460938 161.0625 156.31640625 161.893554688 c 0
 64.6611328125 198.965820312 0 288.806640625 0 393.75 c 0
 0 531.821289062 111.928710938 643.75 250 643.75 c 2
 368.303710938 643.75 l 2
 388.107421875 643.75 406.573242188 638.018554688 422.131835938 628.124023438 c 0
 595.409179688 628.158203125 722.244140625 662.0390625 804.856445312 695.083984375 c 0
 846.237304688 711.637695312 876.650390625 728.033203125 896.337890625 739.977539062 c 0
 906.181640625 745.950195312 913.34375 750.809570312 917.856445312 754.01953125 c 0
 920.106445312 755.624023438 921.700195312 756.81640625 922.630859375 757.52734375 c 2
 923.53125 758.2265625 l 2
 923.599609375 758.280273438 923.625 758.301757812 923.606445312 758.290039062 c 2
 923.556640625 758.247070312 l 1
 923.556640625 758.24609375 l 1
 1000 721.874023438 l 1
 1000 739.986328125 989.5625 756.477539062 973.200195312 764.234375 c 0
250.130859375 143.75 m 1
 252.19140625 20.7060546875 278.21484375 -62.869140625 294.13671875 -102.862304688 c 0
 294.397460938 -103.518554688 294.805664062 -104.112304688 295.815429688 -104.744140625 c 0
 296.971679688 -105.46875 299.02734375 -106.25 301.89453125 -106.25 c 2
 376.67578125 -106.25 l 2
 381.860351562 -106.25 389.28515625 -103.306640625 395.7578125 -93.7685546875 c 0
 402.34765625 -84.0625 404.200195312 -72.587890625 401.977539062 -64.0625 c 0
 388.3671875 -11.8623046875 376.405273438 57.880859375 375.115234375 143.974609375 c 1
 372.86328125 143.825195312 370.592773438 143.75 368.303710938 143.75 c 2
 250.130859375 143.75 l 1
468.75 252.340820312 m 2
 631.331054688 246.862304688 754.549804688 213.509765625 839.674804688 179.458984375 c 0
 865.356445312 169.1875 887.537109375 158.862304688 906.25 149.255859375 c 1
 906.25 638.24609375 l 1
 887.537109375 628.6328125 865.356445312 618.3125 839.674804688 608.0390625 c 0
 754.549804688 573.98828125 631.331054688 540.63671875 468.75 535.157226562 c 2
 468.75 252.340820312 l 2
923.53125 758.225585938 m 1
 923.505859375 758.20703125 l 1
 923.53125 758.2265625 l 1
 923.53125 758.225585938 l 1
93.75 393.75 m 0
 93.75 307.456054688 163.706054688 237.5 250 237.5 c 2
 368.303710938 237.5 l 2
 372.001953125 237.5 375 240.498046875 375 244.196289062 c 2
 375 543.303710938 l 2
 375 547.001953125 372.001953125 550 368.303710938 550 c 2
 250 550 l 2
 163.706054688 550 93.75 480.043945312 93.75 393.75 c 0
EndSplineSet
EndChar

StartChar: uniF078
Encoding: 61560 61560 83
Width: 1000
Flags: H
LayerCount: 2
Fore
SplineSet
388.729492188 598.770507812 m 0
 407.03515625 617.076171875 436.71484375 617.076171875 455.020507812 598.770507812 c 2
 720.643554688 333.145507812 l 2
 738.950195312 314.83984375 738.950195312 285.16015625 720.643554688 266.854492188 c 2
 455.020507812 1.2314453125 l 2
 436.71484375 -17.0751953125 407.03515625 -17.0751953125 388.729492188 1.2314453125 c 0
 370.423828125 19.537109375 370.423828125 49.212890625 388.729492188 67.5185546875 c 2
 621.208984375 300 l 1
 388.729492188 532.479492188 l 2
 370.423828125 550.78515625 370.423828125 580.46484375 388.729492188 598.770507812 c 0
EndSplineSet
EndChar

StartChar: uniF07B
Encoding: 61563 61563 84
Width: 1000
Flags: H
LayerCount: 2
Fore
SplineSet
296.875 643.75 m 2
 288.24609375 643.75 281.25 636.75390625 281.25 628.125 c 2
 281.25 8.7001953125 l 1
 470.201171875 164.306640625 l 2
 487.509765625 178.563476562 512.490234375 178.563476562 529.798828125 164.306640625 c 2
 718.75 8.7001953125 l 1
 718.75 628.125 l 2
 718.75 636.75390625 711.755859375 643.75 703.125 643.75 c 2
 296.875 643.75 l 2
187.5 628.125 m 2
 187.5 688.53125 236.46875 737.5 296.875 737.5 c 2
 703.125 737.5 l 2
 763.53125 737.5 812.5 688.53125 812.5 628.125 c 2
 812.5 -90.625 l 2
 812.5 -108.762695312 802.037109375 -125.275390625 785.630859375 -133.018554688 c 0
 769.224609375 -140.755859375 749.831054688 -138.337890625 735.825195312 -126.806640625 c 2
 500 67.400390625 l 1
 264.173828125 -126.806640625 l 2
 250.171875 -138.337890625 230.7734375 -140.755859375 214.369140625 -133.018554688 c 0
 197.96484375 -125.275390625 187.5 -108.762695312 187.5 -90.625 c 2
 187.5 628.125 l 2
EndSplineSet
EndChar

StartChar: uniF07D
Encoding: 61565 61565 85
Width: 1000
Flags: H
LayerCount: 2
Fore
SplineSet
562.5 487.5 m 1
 500 487.5 l 1
 500 550 l 1
 562.5 550 l 1
 562.5 487.5 l 1
 562.5 487.5 l 1
812.5 300 m 1
 812.5 300 l 1
 812.5 237.5 l 1
 750 237.5 l 1
 750 300 l 1
 812.5 300 l 1
375 487.5 m 1
 375 487.5 l 1
 375 425 l 1
 312.5 425 l 1
 312.5 487.5 l 1
 375 487.5 l 1
312.5 300 m 1
 312.5 300 l 1
 312.5 237.5 l 1
 250 237.5 l 1
 250 300 l 1
 312.5 300 l 1
1000 643.75 m 1
 1000 643.75 l 1
 625 295 l 1
 625 237.5 l 2
 625 203.125 596.875 175 562.5 175 c 2
 500 175 l 2
 465.625 175 437.5 203.125 437.5 237.5 c 2
 437.5 300 l 2
 437.5 334.375 465.625 362.5 500 362.5 c 2
 500 362.5 558.75 363.75 562.5 362.5 c 2
 968.75 675 l 1
 1000 643.75 l 1
900.625 388.125 m 1
 900.625 388.125 l 1
 963.125 450.625 l 1
 987.5 395 1000 333.125 1000 268.75 c 0
 1000 10 790 -200 531.25 -200 c 0
 272.5 -200 62.5 10 62.5 268.75 c 0
 62.5 527.5 272.5 737.5 531.875 737.5 c 0
 629.375 737.5 720 706.875 794.375 656.25 c 1
 735.625 597.5 l 2
 675.625 635 606.25 656.25 531.25 656.25 c 0
 317.5 656.25 143.75 482.5 143.75 268.75 c 0
 143.75 55 318.125 -118.75 531.875 -118.75 c 0
 745.625 -118.75 919.375 55 919.375 268.75 c 0
 919.375 310 912.5 350 900.625 388.125 c 1
EndSplineSet
EndChar

StartChar: uniF07E
Encoding: 61566 61566 86
Width: 1000
Flags: H
LayerCount: 2
Fore
SplineSet
102.68359375 603.568359375 m 1
 194.022460938 722.936523438 337.981445312 800 500.00390625 800 c 0
 776.143554688 800 1000.00585938 576.142578125 1000.00585938 300 c 0
 1000.00585938 23.8564453125 776.143554688 -200 500.00390625 -200 c 0
 241.297851562 -200 28.5322265625 -3.556640625 2.64453125 248.33203125 c 0
 -0.001953125 274.0859375 18.7294921875 297.107421875 44.482421875 299.75390625 c 0
 70.2353515625 302.401367188 93.2568359375 283.669921875 95.9033203125 257.91796875 c 0
 116.927734375 53.349609375 289.858398438 -106.25 500.00390625 -106.25 c 0
 724.369140625 -106.25 906.255859375 75.630859375 906.255859375 300 c 0
 906.255859375 524.365234375 724.369140625 706.25 500.00390625 706.25 c 0
 363.946289062 706.25 243.442382812 639.36328125 169.6875 536.563476562 c 2
 254.576171875 451.674804688 l 2
 264.418945312 441.83203125 257.448242188 425.000976562 243.528320312 425.000976562 c 2
 15.625 425.000976562 l 2
 6.9951171875 425.000976562 0 431.997070312 0 440.625976562 c 2
 0 668.529296875 l 2
 0 682.450195312 16.830078125 689.420898438 26.673828125 679.578125 c 2
 102.68359375 603.568359375 l 1
484.375 550 m 0
 510.262695312 550 531.25 529.012695312 531.25 503.125 c 2
 531.25 316.110351562 l 1
 658.03125 265.397460938 l 2
 682.068359375 255.782226562 693.762695312 228.502929688 684.150390625 204.465820312 c 0
 674.53125 180.4296875 647.25 168.737304688 623.215820312 178.352539062 c 2
 466.965820312 240.852539062 l 2
 449.168945312 247.971679688 437.5 265.20703125 437.5 284.375 c 2
 437.5 503.125 l 2
 437.5 529.012695312 458.487304688 550 484.375 550 c 0
EndSplineSet
EndChar

StartChar: uniF07F
Encoding: 61567 61567 87
Width: 1000
Flags: H
LayerCount: 2
Fore
SplineSet
662.724609375 737.5 m 2
 921.875 737.5 l 2
 930.505859375 737.5 937.5 730.50390625 937.5 721.875 c 2
 937.5 462.721679688 l 2
 937.5 448.801757812 920.668945312 441.830078125 910.825195312 451.673828125 c 2
 814.393554688 548.104492188 l 1
 580.020507812 313.729492188 l 2
 561.71484375 295.423828125 532.03515625 295.423828125 513.729492188 313.729492188 c 0
 495.423828125 332.03515625 495.423828125 361.71484375 513.729492188 380.020507812 c 2
 748.106445312 614.395507812 l 1
 651.674804688 710.826171875 l 2
 641.831054688 720.668945312 648.799804688 737.5 662.724609375 737.5 c 2
234.375 675 m 2
 453.125 675 l 2
 479.012695312 675 500 654.012695312 500 628.125 c 0
 500 602.237304688 479.012695312 581.25 453.125 581.25 c 2
 234.375 581.25 l 2
 225.74609375 581.25 218.75 574.25390625 218.75 565.625 c 2
 218.75 34.375 l 2
 218.75 25.744140625 225.74609375 18.75 234.375 18.75 c 2
 765.625 18.75 l 2
 774.255859375 18.75 781.25 25.744140625 781.25 34.375 c 2
 781.25 253.125 l 2
 781.25 279.012695312 802.237304688 300 828.125 300 c 0
 854.012695312 300 875 279.012695312 875 253.125 c 2
 875 34.375 l 2
 875 -26.03125 826.03125 -75 765.625 -75 c 2
 234.375 -75 l 2
 173.96875 -75 125 -26.03125 125 34.375 c 2
 125 565.625 l 2
 125 626.03125 173.96875 675 234.375 675 c 2
EndSplineSet
EndChar

StartChar: uniF080
Encoding: 61568 61568 88
Width: 1000
Flags: H
LayerCount: 2
Fore
SplineSet
500 628.125 m 2
 500 -28.125 l 2
 500.005859375 -37.09375 497.439453125 -45.869140625 492.60546875 -53.4248046875 c 0
 487.772460938 -60.974609375 480.874023438 -66.9814453125 472.729492188 -70.7314453125 c 0
 464.583984375 -74.4814453125 455.53515625 -75.818359375 446.654296875 -74.5810546875 c 0
 437.7734375 -73.34375 429.43359375 -69.5810546875 422.625 -63.75 c 2
 217.0625 112.5 l 1
 109.375 112.5 l 2
 49 112.5 0 161.5 0 221.875 c 2
 0 378.125 l 2
 0 407.1328125 11.5234375 434.953125 32.03515625 455.46484375 c 0
 52.546875 475.9765625 80.3671875 487.5 109.375 487.5 c 2
 217 487.5 l 1
 422.625 663.75 l 2
 429.43359375 669.583984375 437.7734375 673.342773438 446.654296875 674.581054688 c 0
 455.53515625 675.818359375 464.583984375 674.483398438 472.729492188 670.733398438 c 0
 480.874023438 666.983398438 487.772460938 660.9765625 492.60546875 653.423828125 c 0
 497.439453125 645.872070312 500.005859375 637.091796875 500 628.125 c 2
264.875 405 m 2
 256.375976562 397.731445312 245.55859375 393.7421875 234.375 393.75 c 2
 109.375 393.75 l 2
 105.231445312 393.75 101.256835938 392.103515625 98.326171875 389.173828125 c 0
 95.396484375 386.243164062 93.75 382.268554688 93.75 378.125 c 2
 93.75 221.875 l 2
 93.75 217.731445312 95.396484375 213.756835938 98.326171875 210.826171875 c 0
 101.256835938 207.896484375 105.231445312 206.25 109.375 206.25 c 2
 234.375 206.25 l 2
 245.55859375 206.2578125 256.375976562 202.268554688 264.875 195 c 2
 406.25 73.75 l 1
 406.25 526.25 l 1
 264.875 405 l 2
705 473.75 m 2
 812.5 366.25 l 1
 920 473.75 l 2
 928.887695312 482.030273438 940.637695312 486.537109375 952.78125 486.323242188 c 0
 964.924804688 486.109375 976.512695312 481.189453125 985.099609375 472.6015625 c 0
 993.6875 464.012695312 998.606445312 452.42578125 998.825195312 440.282226562 c 0
 999.037109375 428.138671875 994.53125 416.385742188 986.25 407.5 c 2
 878.75 300 l 1
 986.25 192.5 l 2
 990.856445312 188.208984375 994.549804688 183.034179688 997.112304688 177.284179688 c 0
 999.674804688 171.53125 1001.04980469 165.325195312 1001.16210938 159.03125 c 0
 1001.27539062 152.737304688 1000.11230469 146.487304688 997.755859375 140.650390625 c 0
 995.400390625 134.8125 991.893554688 129.512695312 987.4375 125.0625 c 0
 982.987304688 120.606445312 977.6875 117.099609375 971.849609375 114.744140625 c 0
 966.012695312 112.387695312 959.762695312 111.224609375 953.46875 111.337890625 c 0
 947.174804688 111.450195312 940.96875 112.825195312 935.21875 115.387695312 c 0
 929.46875 117.950195312 924.293945312 121.643554688 920 126.25 c 2
 812.5 233.75 l 1
 705 126.25 l 2
 700.706054688 121.643554688 695.53125 117.950195312 689.78125 115.387695312 c 0
 684.03125 112.825195312 677.825195312 111.450195312 671.53125 111.337890625 c 0
 665.237304688 111.224609375 658.987304688 112.387695312 653.150390625 114.744140625 c 0
 647.3125 117.099609375 642.012695312 120.606445312 637.5625 125.0625 c 0
 633.106445312 129.512695312 629.599609375 134.8125 627.244140625 140.650390625 c 0
 624.884765625 146.487304688 623.7265625 152.737304688 623.837890625 159.03125 c 0
 623.94921875 165.325195312 625.325195312 171.53125 627.887695312 177.284179688 c 0
 630.450195312 183.034179688 634.143554688 188.208984375 638.75 192.5 c 2
 746.25 300 l 1
 638.75 407.5 l 2
 634.143554688 411.791015625 630.450195312 416.965820312 627.887695312 422.715820312 c 0
 625.325195312 428.465820312 623.94921875 434.672851562 623.837890625 440.967773438 c 0
 623.7265625 447.26171875 624.884765625 453.512695312 627.244140625 459.349609375 c 0
 629.599609375 465.186523438 633.106445312 470.48828125 637.5625 474.940429688 c 0
 642.012695312 479.391601562 647.3125 482.900390625 653.150390625 485.2578125 c 0
 658.987304688 487.615234375 665.237304688 488.7734375 671.53125 488.662109375 c 0
 677.825195312 488.55078125 684.03125 487.172851562 689.78125 484.611328125 c 0
 695.53125 482.049804688 700.706054688 478.35546875 705 473.75 c 2
EndSplineSet
EndChar

StartChar: uniF081
Encoding: 61569 61569 89
Width: 1000
Flags: H
LayerCount: 2
Fore
SplineSet
232.5 567.5 m 0
 241.2890625 576.278320312 253.203125 581.208984375 265.625 581.208984375 c 0
 278.046875 581.208984375 289.9609375 576.278320312 298.75 567.5 c 2
 500 366.25 l 1
 701.25 567.5 l 2
 705.543945312 572.10546875 710.71875 575.799804688 716.46875 578.361328125 c 0
 722.21875 580.922851562 728.424804688 582.30078125 734.71875 582.412109375 c 0
 741.012695312 582.5234375 747.262695312 581.365234375 753.099609375 579.0078125 c 0
 758.9375 576.650390625 764.237304688 573.141601562 768.6875 568.690429688 c 0
 773.143554688 564.23828125 776.650390625 558.936523438 779.005859375 553.099609375 c 0
 781.362304688 547.262695312 782.525390625 541.01171875 782.412109375 534.717773438 c 0
 782.299804688 528.422851562 780.924804688 522.215820312 778.362304688 516.465820312 c 0
 775.799804688 510.715820312 772.106445312 505.541015625 767.5 501.25 c 2
 566.25 300 l 1
 767.5 98.75 l 2
 772.106445312 94.4560546875 775.799804688 89.28125 778.362304688 83.53125 c 0
 780.924804688 77.78125 782.299804688 71.5751953125 782.412109375 65.28125 c 0
 782.525390625 58.9873046875 781.362304688 52.7373046875 779.005859375 46.900390625 c 0
 776.650390625 41.0625 773.143554688 35.7626953125 768.6875 31.3125 c 0
 764.237304688 26.8564453125 758.9375 23.349609375 753.099609375 20.994140625 c 0
 747.262695312 18.6376953125 741.012695312 17.474609375 734.71875 17.587890625 c 0
 728.424804688 17.7001953125 722.21875 19.0751953125 716.46875 21.6376953125 c 0
 710.71875 24.2001953125 705.543945312 27.8935546875 701.25 32.5 c 2
 500 233.75 l 1
 298.75 32.5 l 2
 289.86328125 24.21875 278.110351562 19.712890625 265.966796875 19.9248046875 c 0
 253.823242188 20.1435546875 242.237304688 25.0625 233.6484375 33.650390625 c 0
 225.059570312 42.2373046875 220.140625 53.8251953125 219.92578125 65.96875 c 0
 219.711914062 78.1123046875 224.219726562 89.8623046875 232.5 98.75 c 2
 433.75 300 l 1
 232.5 501.25 l 2
 223.721679688 510.0390625 218.791015625 521.953125 218.791015625 534.375 c 0
 218.791015625 546.796875 223.721679688 558.7109375 232.5 567.5 c 0
EndSplineSet
EndChar

StartChar: uniF084
Encoding: 61572 61572 90
Width: 1000
Flags: H
LayerCount: 2
Fore
SplineSet
93.75 300 m 0
 93.611328125 208.427734375 124.547851562 119.518554688 181.5 47.8125 c 1
 752.1875 618.5 l 1
 692.331054688 665.896484375 620.325195312 695.46484375 544.432617188 703.815429688 c 0
 468.540039062 712.166015625 391.830078125 698.9609375 323.09765625 665.713867188 c 0
 254.365234375 632.466796875 196.39453125 580.5234375 155.829101562 515.83984375 c 0
 115.264648438 451.15625 93.7490234375 376.350585938 93.75 300 c 0
247.8125 -18.5 m 1
 325.91796875 -80.349609375 424.02734375 -111.34375 523.48828125 -105.581054688 c 0
 622.94921875 -99.8251953125 716.825195312 -57.724609375 787.275390625 12.724609375 c 0
 857.724609375 83.1748046875 899.825195312 177.05078125 905.581054688 276.51171875 c 0
 911.34375 375.97265625 880.349609375 474.08203125 818.5 552.1875 c 1
 247.8125 -18.5 l 1
500 800 m 1
 500 800 l 1
 632.606445312 800 759.787109375 747.321289062 853.556640625 653.552734375 c 0
 947.318359375 559.78515625 1000 432.608398438 1000 300 c 0
 1000 167.393554688 947.318359375 40.212890625 853.556640625 -53.556640625 c 0
 759.787109375 -147.318359375 632.606445312 -200 500 -200 c 0
 367.391601562 -200 240.21484375 -147.318359375 146.447265625 -53.556640625 c 0
 52.6787109375 40.212890625 0 167.393554688 0 300 c 0
 0 432.608398438 52.6787109375 559.78515625 146.447265625 653.552734375 c 0
 240.21484375 747.321289062 367.391601562 800 500 800 c 1
EndSplineSet
EndChar

StartChar: uniF085
Encoding: 61573 61573 91
Width: 1000
Flags: H
LayerCount: 2
Fore
SplineSet
375 675 m 0
 394.16796875 675 411.403320312 663.331054688 418.522460938 645.534179688 c 2
 625 129.337890625 l 1
 706.474609375 333.034179688 l 2
 713.59375 350.831054688 730.831054688 362.5 750 362.5 c 2
 953.125 362.5 l 2
 979.012695312 362.5 1000 341.512695312 1000 315.625 c 0
 1000 289.737304688 979.012695312 268.75 953.125 268.75 c 2
 781.737304688 268.75 l 1
 668.525390625 -14.28125 l 2
 661.40625 -32.0810546875 644.168945312 -43.75 625 -43.75 c 0
 605.83203125 -43.75 588.596679688 -32.0810546875 581.477539062 -14.28125 c 2
 375 501.91015625 l 1
 293.522460938 298.215820312 l 2
 286.403320312 280.418945312 269.16796875 268.75 250 268.75 c 2
 46.875 268.75 l 2
 20.986328125 268.75 0 289.737304688 0 315.625 c 0
 0 341.512695312 20.986328125 362.5 46.875 362.5 c 2
 218.264648438 362.5 l 1
 331.477539062 645.534179688 l 2
 338.596679688 663.331054688 355.83203125 675 375 675 c 0
EndSplineSet
EndChar

StartChar: uniF087
Encoding: 61575 61575 92
Width: 1000
Flags: H
LayerCount: 2
Fore
SplineSet
499.998046875 643.75 m 0
 397.166015625 643.75 304.8359375 598.608398438 241.801757812 526.94921875 c 2
 317.076171875 451.674804688 l 2
 326.918945312 441.83203125 319.948242188 425.000976562 306.028320312 425.000976562 c 2
 78.125 425.000976562 l 2
 69.49609375 425.000976562 62.5 431.997070312 62.5 440.625976562 c 2
 62.5 668.529296875 l 2
 62.5 682.450195312 79.3310546875 689.420898438 89.173828125 679.578125 c 2
 175.412109375 593.338867188 l 1
 255.434570312 681.828125 371.1953125 737.5 499.998046875 737.5 c 0
 723.887695312 737.5 908.443359375 569.362304688 934.380859375 352.44140625 c 0
 937.456054688 326.736328125 919.112304688 303.405273438 893.40625 300.33203125 c 0
 867.700195312 297.2578125 844.369140625 315.603515625 841.293945312 341.30859375 c 0
 820.924804688 511.659179688 675.849609375 643.75 499.998046875 643.75 c 0
106.590820312 299.66796875 m 0
 132.295898438 302.7421875 155.625976562 284.396484375 158.700195312 258.69140625 c 0
 179.072265625 88.34375 324.14453125 -43.75 499.998046875 -43.75 c 0
 602.831054688 -43.75 695.162109375 1.3935546875 758.193359375 73.0498046875 c 2
 682.924804688 148.325195312 l 2
 673.081054688 158.168945312 680.049804688 175 693.974609375 175 c 2
 921.875 175 l 2
 930.505859375 175 937.5 168 937.5 159.375 c 2
 937.5 -68.53125 l 2
 937.5 -82.4501953125 920.668945312 -89.4189453125 910.825195312 -79.5751953125 c 2
 824.587890625 6.662109375 l 1
 744.5625 -81.8251953125 628.799804688 -137.5 499.998046875 -137.5 c 0
 276.106445312 -137.5 91.5556640625 30.6376953125 65.61328125 247.55859375 c 0
 62.5390625 273.263671875 80.8857421875 296.594726562 106.590820312 299.66796875 c 0
EndSplineSet
EndChar

StartChar: uniF088
Encoding: 61576 61576 93
Width: 1000
Flags: H
LayerCount: 2
Fore
SplineSet
886.474609375 728.541015625 m 2
 975.362304688 574.583984375 l 2
 1007.17480469 519.479492188 985.418945312 448.954101562 928.09375 421.349609375 c 2
 193.977539062 67.875 l 2
 142.411132812 43.0439453125 80.4228515625 62.1689453125 51.8056640625 111.731445312 c 2
 23.8564453125 160.143554688 l 2
 -4.759765625 209.70703125 9.673828125 272.952148438 56.9599609375 305.1953125 c 2
 730.137695312 764.219726562 l 2
 782.706054688 800.06640625 854.662109375 783.64453125 886.474609375 728.541015625 c 2
782.950195312 686.762695312 m 2
 667.40625 607.9765625 l 1
 761.418945312 445.1484375 l 1
 887.418945312 505.818359375 l 2
 895.612304688 509.76171875 898.71875 519.836914062 894.174804688 527.708984375 c 2
 805.287109375 681.666015625 l 2
 800.744140625 689.537109375 790.462890625 691.883789062 782.950195312 686.762695312 c 2
589.734375 555.01171875 m 1
 279.037109375 343.154296875 l 1
 337.889648438 241.21875 l 1
 676.712890625 404.362304688 l 1
 589.734375 555.01171875 l 1
201.362304688 290.190429688 m 1
 109.775390625 227.739257812 l 2
 103.01953125 223.1328125 100.958007812 214.09765625 105.045898438 207.017578125 c 2
 132.99609375 158.606445312 l 2
 137.083984375 151.525390625 145.939453125 148.793945312 153.306640625 152.34375 c 2
 253.18359375 200.43359375 l 1
 201.362304688 290.190429688 l 1
592.21484375 146.075195312 m 2
 757.4375 -95.40625 l 2
 772.056640625 -116.768554688 766.587890625 -145.943359375 745.21875 -160.5625 c 0
 723.856445312 -175.181640625 694.681640625 -169.706054688 680.0625 -148.34375 c 2
 562.5 23.4814453125 l 1
 562.5 -153.125 l 2
 562.5 -179.012695312 541.512695312 -200 515.625 -200 c 0
 489.737304688 -200 468.75 -179.012695312 468.75 -153.125 c 2
 468.75 23.4814453125 l 1
 351.186523438 -148.34375 l 2
 336.567382812 -169.706054688 307.396484375 -175.181640625 286.030273438 -160.5625 c 0
 264.6640625 -145.943359375 259.1953125 -116.768554688 273.813476562 -95.40625 c 2
 401.791015625 91.6376953125 l 2
 406.422851562 98.40625 412.75 103.84375 420.140625 107.40625 c 2
 533.193359375 161.837890625 l 2
 554.059570312 171.887695312 579.13671875 165.1875 592.21484375 146.075195312 c 2
EndSplineSet
EndChar

StartChar: uniF08D
Encoding: 61581 61581 94
Width: 1000
Flags: H
LayerCount: 2
Fore
SplineSet
509.75 685.3125 m 2
 506.981445312 687.5234375 503.54296875 688.728515625 500 688.728515625 c 0
 496.45703125 688.728515625 493.018554688 687.5234375 490.25 685.3125 c 2
 162.125 422.8125 l 2
 160.287109375 421.344726562 158.803710938 419.48046875 157.786132812 417.360351562 c 0
 156.76953125 415.23828125 156.244140625 412.915039062 156.25 410.5625 c 2
 156.25 -28.125 l 2
 156.25 -36.75 163.25 -43.75 171.875 -43.75 c 2
 343.75 -43.75 l 1
 343.75 284.375 l 2
 343.75 296.807617188 348.688476562 308.73046875 357.479492188 317.520507812 c 0
 366.26953125 326.311523438 378.193359375 331.25 390.625 331.25 c 2
 609.375 331.25 l 2
 621.806640625 331.25 633.731445312 326.311523438 642.518554688 317.520507812 c 0
 651.3125 308.73046875 656.25 296.807617188 656.25 284.375 c 2
 656.25 -43.75 l 1
 828.125 -43.75 l 2
 832.268554688 -43.75 836.244140625 -42.1064453125 839.174804688 -39.1748046875 c 0
 842.106445312 -36.244140625 843.75 -32.2685546875 843.75 -28.125 c 2
 843.75 410.625 l 2
 843.744140625 412.966796875 843.21875 415.278320312 842.200195312 417.387695312 c 0
 841.181640625 419.497070312 839.706054688 421.3515625 837.875 422.8125 c 2
 509.75 685.3125 l 2
431.625 758.5 m 1
 451.021484375 774.024414062 475.125 782.482421875 499.96875 782.482421875 c 0
 524.8125 782.482421875 548.916015625 774.024414062 568.3125 758.5 c 2
 896.4375 496 l 2
 922.375 475.250976562 937.5 443.8125 937.5 410.5625 c 2
 937.5 -28.125 l 2
 937.5 -57.130859375 925.974609375 -84.9501953125 905.462890625 -105.462890625 c 0
 884.950195312 -125.974609375 857.130859375 -137.5 828.125 -137.5 c 2
 609.375 -137.5 l 2
 596.943359375 -137.5 585.01953125 -132.5625 576.229492188 -123.768554688 c 0
 567.438476562 -114.981445312 562.5 -103.056640625 562.5 -90.625 c 2
 562.5 237.5 l 1
 437.5 237.5 l 1
 437.5 -90.625 l 2
 437.5 -103.056640625 432.561523438 -114.981445312 423.770507812 -123.768554688 c 0
 414.98046875 -132.5625 403.056640625 -137.5 390.625 -137.5 c 2
 171.875 -137.5 l 2
 142.8671875 -137.5 115.046875 -125.974609375 94.53515625 -105.462890625 c 0
 74.0234375 -84.9501953125 62.5 -57.130859375 62.5 -28.125 c 2
 62.5 410.625 l 2
 62.5 443.8125 77.625 475.250976562 103.5625 496 c 2
 431.6875 758.5 l 1
 431.625 758.5 l 1
EndSplineSet
EndChar

StartChar: uniF08F
Encoding: 61583 61583 95
Width: 1000
Flags: H
LayerCount: 2
Fore
SplineSet
279.354492188 786.270507812 m 2
 288.14453125 795.061523438 300.068359375 800 312.5 800 c 2
 687.5 800 l 2
 699.931640625 800 711.856445312 795.061523438 720.643554688 786.270507812 c 2
 986.268554688 520.645507812 l 2
 995.0625 511.85546875 1000 499.931640625 1000 487.5 c 2
 1000 112.5 l 2
 1000 100.068359375 995.0625 88.1435546875 986.268554688 79.3564453125 c 2
 720.643554688 -186.268554688 l 2
 711.856445312 -195.0625 699.931640625 -200 687.5 -200 c 2
 312.5 -200 l 2
 300.068359375 -200 288.14453125 -195.0625 279.354492188 -186.268554688 c 2
 13.7294921875 79.3564453125 l 2
 4.9384765625 88.1435546875 0 100.068359375 0 112.5 c 2
 0 487.5 l 2
 0 499.931640625 4.9384765625 511.85546875 13.7294921875 520.645507812 c 2
 279.354492188 786.270507812 l 2
331.916015625 706.25 m 1
 93.75 468.083984375 l 1
 93.75 131.918945312 l 1
 331.916015625 -106.25 l 1
 668.081054688 -106.25 l 1
 906.25 131.918945312 l 1
 906.25 468.083984375 l 1
 668.081054688 706.25 l 1
 331.916015625 706.25 l 1
500 550 m 0
 525.887695312 550 546.875 529.012695312 546.875 503.125 c 2
 546.875 284.375 l 2
 546.875 258.487304688 525.887695312 237.5 500 237.5 c 0
 474.112304688 237.5 453.125 258.487304688 453.125 284.375 c 2
 453.125 503.125 l 2
 453.125 529.012695312 474.112304688 550 500 550 c 0
500 50 m 0
 465.482421875 50 437.5 77.9814453125 437.5 112.5 c 0
 437.5 147.018554688 465.482421875 175 500 175 c 0
 534.518554688 175 562.5 147.018554688 562.5 112.5 c 0
 562.5 77.9814453125 534.518554688 50 500 50 c 0
EndSplineSet
EndChar

